<svg width="26" height="19" viewBox="0 0 26 19" fill="none" xmlns="http://www.w3.org/2000/svg">
<mask id="mask0_125_270" style="mask-type:alpha" maskUnits="userSpaceOnUse" x="0" y="0" width="26" height="19">
<path d="M0 0H26V19H0V0Z" fill="white"/>
</mask>
<g mask="url(#mask0_125_270)">
<path fill-rule="evenodd" clip-rule="evenodd" d="M0 0H26V19H0V0Z" fill="#F50100"/>
<path fill-rule="evenodd" clip-rule="evenodd" d="M13.4062 4.92736C13.4615 4.91628 13.5996 4.84186 13.8962 4.46265C14.0774 4.2307 14.0684 3.95124 14.0619 3.70899C14.0522 3.39153 14.0449 3.1374 14.4682 3.1374C14.8143 3.1374 15.0719 3.04003 15.2864 2.95928C15.5342 2.86507 15.7267 2.79303 15.9372 2.91257C16.276 3.10574 16.6758 3.13265 16.6749 3.13661H16.6424C16.4791 3.13661 15.8933 3.46199 16.3459 3.46199C16.5677 3.46199 16.8049 3.30682 16.9878 3.1857C17.1803 3.05903 17.3144 2.97115 17.3144 3.1374C17.3144 3.1374 17.4444 3.50395 17.1324 3.53245C17.1324 3.53245 15.7284 3.66545 16.003 3.72561C16.003 3.72561 16.2524 3.82615 16.4231 3.83249C16.4231 3.83249 16.4978 4.08582 16.0428 4.15628C16.0428 4.15628 14.7566 4.38903 14.6973 4.7912C14.6827 4.89253 14.6461 5.02553 14.6071 5.16803C14.4893 5.59236 14.3488 6.1014 14.6973 6.1014C15.1629 6.1014 15.4651 5.79107 15.4651 5.44195C15.4651 5.09361 15.5277 4.50461 15.9372 4.47611C15.9372 4.47611 16.9439 4.1444 17.0682 4.16736C17.1153 4.17528 17.1129 4.20615 17.1096 4.2402C17.1048 4.2964 17.0999 4.36449 17.3144 4.36449C17.6605 4.36449 18.6615 3.5554 18.8191 3.23399C18.9768 2.91257 19.214 3.23399 19.214 3.23399C19.214 3.23399 19.3659 4.13332 18.5721 4.46265C17.7791 4.7912 17.3144 4.7912 17.3144 4.7912C17.3144 4.7912 16.8204 5.14586 17.1324 5.14586C17.2014 5.14586 17.2884 5.1522 17.3867 5.15932C17.7304 5.18307 18.2138 5.2179 18.5729 5.03107C18.6712 4.97961 18.7574 4.9329 18.8321 4.89253C19.1027 4.74607 19.214 4.6867 19.214 4.7912V4.79357C19.214 4.9337 19.214 5.67707 18.6859 5.67707H17.3144C17.1324 5.67707 16.7009 5.9304 17.4176 6.1014C18.135 6.2724 18.3657 6.20115 18.6851 6.1014C19.0044 6.00165 19.2132 5.94544 19.2132 6.1014C19.2132 6.25736 18.7761 6.8424 18.3991 6.8424C18.1797 6.8424 17.9441 6.73157 17.7499 6.63894C17.6126 6.57324 17.4956 6.51782 17.4176 6.51782C17.2299 6.51782 17.0357 6.8424 17.1324 6.8424C17.1641 6.8424 17.2193 6.89228 17.2949 6.95878C17.4492 7.09811 17.6906 7.31344 17.9766 7.31344C18.2098 7.31344 18.3909 7.26753 18.5543 7.22557C18.6875 7.19153 18.8077 7.16065 18.9337 7.16065C19.0962 7.16065 19.1636 7.14165 19.1929 7.1662C19.214 7.1844 19.214 7.22557 19.214 7.31344C19.214 7.52324 18.6542 7.7544 18.3991 7.7544C18.2837 7.7544 17.9977 7.63011 17.7206 7.50978C17.3875 7.3657 17.0682 7.22636 17.0682 7.31344C17.0682 7.47257 17.7426 8.32995 18.1569 8.32995H18.9337C19.214 8.32995 19.1027 8.67669 19.1027 8.67669C19.1027 8.67669 18.8313 8.91103 18.4941 8.91103C18.2422 8.91103 17.9928 8.72499 17.7978 8.57853C17.7412 8.53489 17.6826 8.49368 17.6223 8.45503C17.4176 8.32995 17.1324 8.23336 17.1324 8.45503C17.1324 8.6767 17.7767 9.56257 18.2983 9.56257C18.5063 9.56257 18.694 9.52932 18.8451 9.50319C19.071 9.46361 19.214 9.43986 19.214 9.56257C19.214 9.76682 18.9711 10.2212 18.6859 10.1207L18.6794 10.1191C18.3869 10.0162 17.4956 9.7027 17.3144 9.3702C17.1324 9.03532 16.7992 9.17861 16.9341 9.3702C17.0682 9.56257 17.7767 10.5545 18.2983 10.6472C18.4364 10.6709 18.5737 10.6875 18.6989 10.7026C19.0442 10.7437 19.2953 10.7738 19.214 10.9353C19.1027 11.1546 18.6412 11.461 18.3991 11.3644C18.1578 11.2678 17.3314 10.5276 17.1324 10.2197C16.9341 9.9109 16.4239 9.32032 16.4239 9.56257C16.4239 9.61403 16.4141 9.68449 16.4036 9.76524C16.3637 10.0613 16.3069 10.4857 16.6424 10.5569C17.0682 10.6472 17.2924 11.0469 17.0682 11.0469C16.8439 11.0469 16.0428 10.8593 16.0428 10.3637C16.0428 9.86894 15.6796 9.59107 15.6796 9.7304V9.7874C15.6748 9.96157 15.6658 10.3178 15.8429 10.5561C16.042 10.8253 15.7601 11.0446 15.6804 10.9353C15.6008 10.8253 15.2588 10.3178 15.2588 10.2197C15.2588 10.1207 15.1385 9.89032 14.9963 9.89032C14.8549 9.89032 14.8265 10.131 15.0914 10.6472C15.3571 11.1633 16.0103 11.5758 16.2167 11.5758C16.4239 11.5758 16.2167 12.0389 16.2167 12.0389L17.6223 12.3936C17.6223 12.3936 18.1577 12.1244 18.1577 12.0389C18.1577 11.9526 18.4372 11.7436 18.6859 11.7436C18.9337 11.7436 18.9532 12.0389 18.8191 12.0389C18.7533 12.0389 18.6591 12.0943 18.5648 12.1497C18.4673 12.2067 18.3698 12.2645 18.2983 12.2645C18.1577 12.2645 17.7279 12.5574 17.7279 12.5574H18.6851C18.6851 12.5574 18.5323 12.3936 18.9337 12.3936C19.3351 12.3936 19.5 12.5574 19.5 12.5574C19.5 12.5574 19.0474 12.8163 18.9337 12.8163C18.8966 12.8179 18.8597 12.8221 18.8232 12.829C18.7365 12.8441 18.6488 12.8531 18.5607 12.8559C18.5299 12.8337 18.512 12.8385 18.5014 12.8559C18.3858 12.8538 18.2707 12.8406 18.1577 12.8163C17.7279 12.7261 18.4941 13.0039 18.4941 13.0039C18.4941 13.0039 18.4779 12.8963 18.5022 12.8559H18.5607C18.6098 12.8987 18.6518 12.9486 18.6851 13.0039C18.9337 13.3705 18.9711 13.4845 18.6851 13.4845C18.3991 13.4845 18.1569 13.3998 18.1569 13.2019C18.1569 13.0039 17.6223 12.8163 17.6223 12.8163L16.9333 13.2019C16.9333 13.2019 17.0625 13.4172 16.8521 13.4845C16.6424 13.5526 16.3459 13.4528 16.3459 13.3847C16.3459 13.3174 16.4157 13.0039 16.5945 13.0039C16.7732 13.0039 17.3144 12.7166 17.3144 12.7166L16.003 12.335C16.003 12.335 15.6349 12.7166 15.5139 12.7166C15.4521 12.7166 15.3303 12.4727 15.197 12.2067C15.0711 11.9534 14.9346 11.6787 14.8298 11.5758C14.7623 11.5039 14.7019 11.4259 14.6494 11.343C14.521 11.1546 14.4032 10.9812 14.2301 11.1024C13.9815 11.2765 13.8832 11.8133 14.2301 12.2645C14.5779 12.7166 15.1791 13.0736 15.3465 13.0736C15.5139 13.0736 15.8429 13.0894 15.8429 13.2019C15.8429 13.3143 15.6967 13.7758 15.3473 13.5803C15.2774 13.5415 15.2067 13.5011 15.1385 13.4615C14.8606 13.3032 14.612 13.1607 14.5697 13.2019C14.5161 13.2533 14.7347 13.8344 15.041 13.9729C15.1535 14.0194 15.2761 14.0376 15.3977 14.026C15.522 14.022 15.6024 14.0181 15.6024 14.1558C15.6024 14.3997 15.3863 14.6704 14.9963 14.4131C14.8401 14.3025 14.6975 14.1747 14.5714 14.0323C14.4308 13.8843 14.3398 13.7877 14.3008 13.8835C14.2301 14.0545 14.2602 14.7227 14.5689 14.7227C14.6404 14.7227 14.7071 14.7195 14.7664 14.7179C14.9654 14.7108 15.0914 14.7068 15.0914 14.7971C15.0914 14.915 15.0199 15.4169 14.6973 15.2167C14.3748 15.0164 14.1383 14.767 14.0814 14.5897C14.0229 14.4131 13.6784 14.5897 13.7873 14.8374C13.8962 15.086 14.1602 15.5872 14.2301 15.5872C14.3008 15.5872 13.4119 17.1 13.4119 17.1L13.4062 15.2372L13.4006 17.1C13.4006 17.1 12.5117 15.5872 12.5824 15.5872C12.6523 15.5872 12.9163 15.086 13.0252 14.8374C13.1341 14.5897 12.7896 14.4131 12.7319 14.5897C12.6734 14.767 12.4377 15.0164 12.1144 15.2167C11.7926 15.4169 11.7211 14.915 11.7211 14.7971C11.7211 14.7068 11.8471 14.7108 12.0461 14.7179C12.1063 14.7195 12.1721 14.7219 12.2436 14.7219C12.5523 14.7219 12.5824 14.0545 12.5117 13.8835C12.4727 13.7885 12.3817 13.8835 12.2411 14.0323C12.115 14.1747 11.9724 14.3025 11.8162 14.4131C11.4262 14.6712 11.2101 14.3997 11.2101 14.1558C11.2101 14.0189 11.2905 14.0212 11.4148 14.026C11.5367 14.0377 11.6596 14.0195 11.7723 13.9729C12.0778 13.8344 12.2964 13.2525 12.2436 13.2019C12.2005 13.1607 11.9511 13.3032 11.6748 13.4623L11.466 13.5811C11.1158 13.7758 10.9696 13.3143 10.9696 13.2019C10.9696 13.0894 11.2986 13.0736 11.4652 13.0736C11.6334 13.0736 12.2346 12.7174 12.5824 12.2645C12.9301 11.8133 12.831 11.2765 12.5824 11.1024C12.4093 10.9812 12.2915 11.1546 12.1631 11.343C12.1071 11.4254 12.0494 11.5117 11.9828 11.5758C11.8779 11.6787 11.7414 11.9526 11.6147 12.2067C11.4823 12.4727 11.3604 12.7166 11.2978 12.7166C11.1776 12.7166 10.8103 12.335 10.8103 12.335L9.49812 12.7166C9.49812 12.7166 10.0401 13.0039 10.218 13.0039C10.3968 13.0039 10.4666 13.3174 10.4666 13.3855C10.4666 13.4528 10.1701 13.5518 9.96044 13.4845C9.75 13.4172 9.87919 13.2019 9.87919 13.2019L9.19019 12.8163C9.19019 12.8163 8.65475 13.0039 8.65475 13.2019C8.65475 13.3998 8.41344 13.4845 8.12662 13.4845C7.84144 13.4845 7.87881 13.3705 8.12662 13.0039C8.16017 12.9485 8.20238 12.8986 8.25175 12.8559H8.31106C8.33544 12.8963 8.31837 13.0039 8.31837 13.0039C8.31837 13.0039 9.08456 12.7261 8.65475 12.8163C8.54182 12.8406 8.42669 12.8538 8.31106 12.8559C8.3005 12.8385 8.28263 12.8337 8.25175 12.8559C8.16372 12.8532 8.076 12.8442 7.98931 12.829C7.95285 12.8221 7.91592 12.8179 7.87881 12.8163C7.76506 12.8163 7.3125 12.5574 7.3125 12.5574C7.3125 12.5574 7.47744 12.3936 7.87881 12.3936C8.28019 12.3936 8.12744 12.5574 8.12744 12.5574H9.08456C9.08456 12.5574 8.65475 12.2645 8.51419 12.2645C8.4435 12.2645 8.34519 12.2067 8.24769 12.1497C8.15344 12.0943 8.05919 12.0389 7.99338 12.0389C7.85931 12.0389 7.87963 11.7436 8.12744 11.7436C8.37525 11.7436 8.65556 11.9526 8.65556 12.0389C8.65556 12.1244 9.19019 12.3936 9.19019 12.3936L10.5958 12.0389C10.5958 12.0389 10.3886 11.5758 10.5958 11.5758C10.8022 11.5758 11.4554 11.1633 11.7211 10.6472C11.986 10.131 11.9576 9.89032 11.8162 9.89032C11.674 9.89032 11.5538 10.1207 11.5538 10.2197C11.5538 10.3178 11.2125 10.8253 11.1321 10.9353C11.0524 11.0446 10.7697 10.8253 10.9696 10.5561C11.1467 10.3186 11.1378 9.96236 11.1337 9.78819L11.1321 9.72961C11.1321 9.59107 10.7697 9.86894 10.7697 10.3645C10.7697 10.8593 9.96856 11.0469 9.74431 11.0469C9.52006 11.0469 9.74431 10.6472 10.1701 10.5561C10.5056 10.4849 10.4487 10.0613 10.4089 9.76524C10.3985 9.6981 10.392 9.63043 10.3894 9.56257C10.3894 9.32032 9.87837 9.9109 9.68012 10.2197C9.48106 10.5284 8.65475 11.2678 8.41263 11.3644C8.17131 11.461 7.70981 11.1546 7.59931 10.9353C7.51725 10.7738 7.76831 10.7437 8.11363 10.7026C8.24762 10.6875 8.38118 10.669 8.51419 10.6472C9.03581 10.5545 9.74431 9.56257 9.87919 9.3702C10.0133 9.17861 9.68013 9.03532 9.49731 9.3702C9.31694 9.7027 8.42563 10.0162 8.13313 10.1191L8.12744 10.1207C7.84144 10.2212 7.59931 9.76682 7.59931 9.56257C7.59931 9.43986 7.7415 9.4644 7.96737 9.50319C8.1185 9.52932 8.30619 9.56257 8.51419 9.56257C9.03581 9.56257 9.68012 8.6759 9.68012 8.45424C9.68012 8.23257 9.39494 8.32994 9.19019 8.45424C9.139 8.4859 9.07969 8.53024 9.01469 8.57932C8.81969 8.72499 8.57106 8.91182 8.31837 8.91182C7.98119 8.91182 7.70981 8.67669 7.70981 8.67669C7.70981 8.67669 7.59931 8.32995 7.87881 8.32995H8.65475C9.06994 8.32995 9.7435 7.47257 9.7435 7.31344C9.7435 7.22636 9.42419 7.3657 9.09187 7.50978C8.81481 7.63011 8.52881 7.7544 8.41344 7.7544C8.1575 7.7544 7.59931 7.52324 7.59931 7.31344C7.59931 7.22557 7.59931 7.1844 7.61963 7.1662C7.64888 7.14245 7.71712 7.16065 7.87962 7.16065C8.00475 7.16065 8.125 7.19232 8.25825 7.22557C8.42075 7.26753 8.60275 7.31344 8.83594 7.31344C9.12194 7.31344 9.36244 7.09811 9.51844 6.95878C9.59319 6.89228 9.64844 6.8424 9.68012 6.8424C9.77762 6.8424 9.58262 6.51782 9.39494 6.51782C9.31694 6.51782 9.19994 6.57324 9.06181 6.63894C8.86844 6.73078 8.63362 6.8424 8.41344 6.8424C8.03644 6.8424 7.59931 6.25736 7.59931 6.1014C7.59931 5.94544 7.80813 6.00165 8.12744 6.1014C8.44675 6.20115 8.6775 6.2724 9.39494 6.1014C10.1116 5.9304 9.68012 5.67707 9.49812 5.67707H8.12744C7.59931 5.67707 7.59931 4.9329 7.59931 4.79357V4.7912C7.59931 4.6859 7.70981 4.74607 7.98119 4.89253C8.05431 4.9329 8.14125 4.97961 8.23956 5.03107C8.59869 5.2179 9.08212 5.18307 9.42581 5.15932C9.52331 5.1514 9.61106 5.14586 9.68012 5.14586C9.99294 5.14586 9.49812 4.7912 9.49812 4.7912C9.49812 4.7912 9.03337 4.7912 8.23956 4.46265C7.44656 4.13332 7.59931 3.23399 7.59931 3.23399C7.59931 3.23399 7.83494 2.91257 7.99338 3.23399C8.151 3.5554 9.152 4.36449 9.49812 4.36449C9.71262 4.36449 9.70775 4.2964 9.70288 4.2402C9.69963 4.20615 9.69719 4.17607 9.7435 4.16736C9.86862 4.1444 10.8753 4.47611 10.8753 4.47611C11.2848 4.50461 11.3482 5.09361 11.3482 5.44195C11.3482 5.79107 11.6496 6.1014 12.1152 6.1014C12.4629 6.1014 12.3232 5.59236 12.2054 5.16724C12.1664 5.02474 12.1298 4.89253 12.1152 4.7912C12.0559 4.38903 10.7697 4.15628 10.7697 4.15628C10.3147 4.08582 10.3886 3.8317 10.3886 3.8317C10.5601 3.82615 10.8103 3.72561 10.8103 3.72561C11.0841 3.66545 9.68012 3.53245 9.68012 3.53245C9.36894 3.50395 9.49812 3.13661 9.49812 3.13661C9.49812 2.97036 9.63219 3.05982 9.82394 3.1857C10.0084 3.30682 10.2448 3.46278 10.4658 3.46278C10.9192 3.46278 10.3334 3.1374 10.1701 3.1374L10.1376 3.13661C10.1376 3.13265 10.5365 3.10574 10.8753 2.91257C11.0858 2.79303 11.2783 2.86507 11.5253 2.95928C11.7406 3.04003 11.9982 3.1374 12.3443 3.1374C12.7676 3.1374 12.7603 3.39074 12.7506 3.70899C12.7441 3.95124 12.7351 4.2307 12.9163 4.46265C13.2129 4.84265 13.351 4.91628 13.4062 4.92736V4.92736Z" fill="#1A1A1A"/>
</g>
</svg>
