<svg width="26" height="19" viewBox="0 0 26 19" fill="none" xmlns="http://www.w3.org/2000/svg">
<path fill-rule="evenodd" clip-rule="evenodd" d="M13 0H26V19H13V0Z" fill="#F7FCFF"/>
<path fill-rule="evenodd" clip-rule="evenodd" d="M0 0H13V19H0V0Z" fill="#36A400"/>
<path fill-rule="evenodd" clip-rule="evenodd" d="M14.4552 5.37935C15.6918 5.37935 16.822 5.82427 17.6857 6.55894C16.916 5.61071 15.8623 4.91953 14.6711 4.58136C13.4798 4.24319 12.21 4.27481 11.038 4.67183C9.86605 5.06885 8.85001 5.81157 8.13099 6.79686C7.41197 7.78216 7.02563 8.96114 7.02563 10.1701C7.02563 11.3791 7.41197 12.5581 8.13099 13.5434C8.85001 14.5287 9.86605 15.2714 11.038 15.6684C12.21 16.0654 13.4798 16.0971 14.6711 15.7589C15.8623 15.4207 16.916 14.7295 17.6857 13.7813C17.087 14.2899 16.3707 14.6496 15.5982 14.8296C14.8256 15.0095 14.0198 15.0045 13.2498 14.8148C12.4797 14.625 11.7682 14.2564 11.1763 13.7403C10.5844 13.2241 10.1297 12.576 9.85097 11.8512C9.57228 11.1265 9.47797 10.3467 9.57609 9.57872C9.67422 8.81071 9.96187 8.07729 10.4144 7.44124C10.867 6.8052 11.471 6.28546 12.1747 5.92651C12.8784 5.56756 13.6609 5.38009 14.4552 5.38015V5.37935ZM16.7465 7.55565L15.3628 9.08277L13.3762 8.54919L14.478 10.2275L13.3762 12.0151L15.4603 11.2836L16.5994 13.0166V11.0057L18.4616 10.2283L16.5994 9.57835L16.7456 7.55565H16.7465Z" fill="#FF0000"/>
</svg>
