<svg width="26" height="19" viewBox="0 0 26 19" fill="none" xmlns="http://www.w3.org/2000/svg">
<mask id="mask0_120_278" style="mask-type:alpha" maskUnits="userSpaceOnUse" x="0" y="0" width="26" height="19">
<path d="M0 0H26V19H0V0Z" fill="white"/>
</mask>
<g mask="url(#mask0_120_278)">
<path fill-rule="evenodd" clip-rule="evenodd" d="M0 0V19H26V0H0Z" fill="#2E42A5"/>
<mask id="mask1_120_278" style="mask-type:alpha" maskUnits="userSpaceOnUse" x="0" y="0" width="26" height="19">
<path fill-rule="evenodd" clip-rule="evenodd" d="M0 0V19H26V0H0Z" fill="white"/>
</mask>
<g mask="url(#mask1_120_278)">
<path d="M0 0H14.625V11.0833H0V0Z" fill="#2B409A"/>
<mask id="mask2_120_278" style="mask-type:alpha" maskUnits="userSpaceOnUse" x="0" y="0" width="15" height="12">
<path d="M0 0H14.625V11.0833H0V0Z" fill="white"/>
</mask>
<g mask="url(#mask2_120_278)">
<path d="M-1.62817 10.2916L1.58933 11.6668L14.6982 1.49544L16.3963 -0.548646L12.9546 -1.00781L7.60833 3.37485L3.30451 6.32777L-1.62817 10.2916Z" fill="#F7FCFF"/>
<path d="M-1.18787 11.2551L0.451759 12.0531L15.7861 -0.738647H13.4843L-1.18787 11.2551V11.2551Z" fill="#F50100"/>
<path d="M16.2533 10.2916L13.0358 11.6668L-0.0731151 1.49544L-1.77124 -0.548646L1.67051 -1.00781L7.01676 3.37485L11.3206 6.32777L16.2533 10.2916Z" fill="#F7FCFF"/>
<path d="M16.1444 10.9828L14.504 11.7816L7.97472 6.30483L6.03853 5.69287L-1.93372 -0.541504H0.368097L8.33628 5.54483L10.4528 6.2787L16.1436 10.9828H16.1444Z" fill="#F50100"/>
<mask id="mask3_120_278" style="mask-type:alpha" maskUnits="userSpaceOnUse" x="-2" y="-2" width="19" height="15">
<path d="M-1.625 -1.58337H16.25V12.6666H-1.625V-1.58337Z" fill="white"/>
<path fill-rule="evenodd" clip-rule="evenodd" d="M8.11281 0H6.48781V4.75H0V6.33333H6.48781V11.0833H8.11281V6.33333H14.625V4.75H8.11281V0Z" fill="black"/>
</mask>
<g mask="url(#mask3_120_278)">
<path fill-rule="evenodd" clip-rule="evenodd" d="M8.11281 0H6.48781V4.75H0V6.33333H6.48781V11.0833H8.11281V6.33333H14.625V4.75H8.11281V0Z" fill="#F50100"/>
<path d="M6.48781 -5.96046e-08V-1.1875H5.26906V-5.96046e-08H6.48781ZM8.11281 -5.96046e-08H9.33156V-1.1875H8.11281V-5.96046e-08ZM6.48781 4.75V5.9375H7.70656V4.75H6.48781ZM0 4.75V3.5625H-1.21875V4.75H0ZM0 6.33333H-1.21875V7.52083H0V6.33333ZM6.48781 6.33333H7.70656V5.14583H6.48781V6.33333V6.33333ZM6.48781 11.0833H5.26906V12.2708H6.48781V11.0833ZM8.11281 11.0833V12.2708H9.33156V11.0833H8.11281ZM8.11281 6.33333V5.14583H6.89406V6.33333H8.11281ZM14.625 6.33333V7.52083H15.8438V6.33333H14.625ZM14.625 4.75H15.8438V3.5625H14.625V4.75ZM8.11281 4.75H6.89406V5.9375H8.11281V4.75ZM6.48781 1.1875H8.11281V-1.1875H6.48781V1.1875ZM7.70656 4.75V-5.96046e-08H5.26906V4.75H7.70656ZM0 5.9375H6.48781V3.5625H0V5.9375ZM1.21875 6.33333V4.75H-1.21875V6.33333H1.21875ZM6.48781 5.14583H0V7.52083H6.48781V5.14583ZM7.70656 11.0833V6.33333H5.26906V11.0833H7.70656ZM8.11281 9.89583H6.48781V12.2708H8.11281V9.89583ZM6.89406 6.33333V11.0833H9.33156V6.33333H6.89406ZM14.625 5.14583H8.11281V7.52083H14.625V5.14583ZM13.4062 4.75V6.33333H15.8438V4.75H13.4062ZM8.11281 5.9375H14.625V3.5625H8.11281V5.9375ZM6.89406 -5.96046e-08V4.75H9.33156V-5.96046e-08H6.89406Z" fill="#F7FCFF"/>
</g>
</g>
<path d="M7.31248 16.2292L6.2546 17.1816L6.36023 15.7819L4.93591 15.5705L6.1246 14.7773L5.40716 13.5605L6.78354 13.9722L7.31248 12.6667L7.8406 13.9714L9.21779 13.5613L8.50035 14.7773L9.68904 15.5705L8.26554 15.7819L8.37035 17.1816L7.31248 16.2292ZM17.875 10.2917L17.1697 10.9266L17.2396 9.99404L16.2906 9.85233L17.0828 9.3235L16.6042 8.51283L17.5223 8.78675L17.875 7.91671L18.2276 8.78675L19.1457 8.51283L18.6664 9.3235L19.4593 9.85233L18.5104 9.99325L18.5802 10.9266L17.875 10.2917ZM19.5 3.95837L18.7947 4.59329L18.8646 3.65992L17.9156 3.519L18.7078 2.99017L18.2292 2.1795L19.1474 2.45342L19.5 1.58337L19.8526 2.45342L20.7707 2.1795L20.2914 2.99017L21.0843 3.519L20.1354 3.65992L20.2052 4.59329L19.5 3.95837ZM23.5625 7.12504L22.8572 7.75996L22.9271 6.82658L21.9781 6.68566L22.7703 6.15683L22.2917 5.34617L23.2099 5.62008L23.5625 4.75004L23.9151 5.62008L24.8332 5.34617L24.3539 6.15683L25.1468 6.68566L24.1978 6.82658L24.2677 7.75996L23.5625 7.12504ZM20.3125 17.4167L19.6072 18.0516L19.6771 17.119L18.7281 16.9773L19.5203 16.4485L19.0417 15.6378L19.9599 15.9117L20.3125 15.0417L20.6651 15.9117L21.5832 15.6378L21.1039 16.4485L21.8968 16.9773L20.9479 17.1182L21.0177 18.0516L20.3125 17.4167ZM23.1562 11.2813L22.4396 11.6478L22.5769 10.8712L21.9968 10.321L22.7979 10.207L23.1562 9.50004L23.5137 10.207L24.3157 10.3202L23.7355 10.8712L23.8728 11.6486L23.1562 11.2813Z" fill="#F7FCFF"/>
</g>
</g>
</svg>
