<svg width="26" height="19" viewBox="0 0 26 19" fill="none" xmlns="http://www.w3.org/2000/svg">
<mask id="mask0_126_309" style="mask-type:alpha" maskUnits="userSpaceOnUse" x="0" y="0" width="26" height="19">
<path d="M0 0H26V19H0V0Z" fill="white"/>
</mask>
<g mask="url(#mask0_126_309)">
<path fill-rule="evenodd" clip-rule="evenodd" d="M0 0H26V19H0V0Z" fill="#73BE4A"/>
<path fill-rule="evenodd" clip-rule="evenodd" d="M0 0V12.6667H26V0H0Z" fill="#AF0100"/>
<path d="M0 0H4.875V19H0V0Z" fill="#F7FCFF"/>
<path fill-rule="evenodd" clip-rule="evenodd" d="M0.360718 1.77015L1.54128 0.0443115L2.69097 1.77015L1.54128 3.41681L0.360718 1.77015V1.77015ZM1.53641 2.71223L2.19859 1.7646L1.53559 0.771853L0.857968 1.7654L1.53641 2.71223ZM1.62497 1.63398H1.42184V2.04248H1.62497V1.63398ZM0.92378 3.31389L0.360718 4.09765L0.92378 4.84656L1.47222 4.09844L0.92378 3.31389ZM1.18703 4.1111L0.93353 4.44677L0.67678 4.09131L0.932718 3.72319L1.18703 4.1111V4.1111ZM2.14253 3.31389L1.57947 4.09765L2.14253 4.84656L2.69097 4.09844L2.14253 3.31389V3.31389ZM2.40578 4.1111L2.15228 4.44677L1.89553 4.09131L2.15147 3.72319L2.40578 4.1111V4.1111Z" fill="#B20000"/>
<path fill-rule="evenodd" clip-rule="evenodd" d="M2.95503 3.31389L2.39197 4.09765L2.95503 4.84656L3.50347 4.09844L2.95503 3.31389V3.31389ZM3.21828 4.1111L2.96478 4.44677L2.70803 4.09131L2.96397 3.72319L3.21828 4.1111V4.1111ZM4.17378 3.31389L3.61072 4.09765L4.17378 4.84656L4.72222 4.09844L4.17378 3.31389ZM4.43703 4.1111L4.18353 4.44677L3.92678 4.09131L4.18272 3.72319L4.43703 4.1111V4.1111ZM2.39197 1.77015L3.57253 0.0443115L4.72222 1.77015L3.57253 3.41681L2.39197 1.77015V1.77015ZM3.56766 2.71223L4.22984 1.7646L3.56684 0.771853L2.88922 1.7654L3.56766 2.71223ZM3.65622 1.63398H3.45309V2.04248H3.65622V1.63398Z" fill="#B20000"/>
<path d="M1.34547 9.82141L0.0300293 7.66887L0.376154 7.45512L1.33003 9.0147L2.49353 6.93182L3.68628 9.02024L4.52884 7.65778L4.87334 7.87312L3.67247 9.81666L2.49759 7.75832L1.34547 9.82062V9.82141Z" fill="#B20000"/>
<path fill-rule="evenodd" clip-rule="evenodd" d="M0.609375 0.4085H0.827938V0.817H0.609375V0.4085ZM2.4375 0H2.65606V0.4085H2.4375V0ZM4.26562 0.4085H4.48419V0.817H4.26562V0.4085ZM0.609375 2.86029H0.8125V3.26879H0.609375V2.86029V2.86029ZM2.4375 2.86029H2.64062V3.26879H2.4375V2.86029V2.86029ZM4.46875 2.86029H4.26562V3.26879H4.46875V2.86029V2.86029ZM0.609375 4.90358H0.8125V5.31208H0.609375V4.90358ZM2.4375 4.90358H2.64062V5.31208H2.4375V4.90358ZM4.46875 4.90358H4.26562V5.31208H4.46875V4.90358Z" fill="#B20000"/>
<path fill-rule="evenodd" clip-rule="evenodd" d="M1.79397 7.0894L1.25447 7.85574L0.402968 6.36186L1.52422 4.65503L2.48866 6.14336L3.45228 4.65503L4.57353 6.36186L3.72203 7.85574L3.18253 7.0894L3.60909 6.22649L3.45228 5.87499L2.54309 7.31503V7.48524L2.48947 7.39974L2.43503 7.48524V7.31503L1.52422 5.8742L1.36822 6.2249L1.79397 7.08782V7.0894ZM2.43747 8.37586H2.64059V8.78515H2.43747V8.37665V8.37586ZM2.43747 10.4192H2.64059V10.8277H2.43747V10.4192ZM2.43747 8.9894H2.23434V9.3979H2.43747V9.60215H2.23434V10.0107H2.43747V9.8064H2.64059V10.0107H2.84372V9.60215H2.64059V9.3979H2.84372V8.9894H2.64059V9.3979H2.43747V8.9894V8.9894ZM1.82809 9.3979H2.03122V9.8064H1.82809V9.3979ZM3.24997 9.3979H3.04684V9.8064H3.24997V9.3979ZM0.406218 9.3979H0.609343V9.8064H0.406218V9.3979ZM4.67184 9.3979H4.46872V9.8064H4.67184V9.3979ZM0.360718 17.2299L1.54128 18.9557L2.69097 17.2299L1.54128 15.5832L0.360718 17.2299V17.2299ZM1.53641 16.2878L2.19859 17.2354L1.53641 18.2282L0.857968 17.2354L1.53641 16.2886V16.2878ZM1.62497 17.366H1.42184V16.9575H1.62497V17.3668V17.366ZM0.92378 15.6861L0.360718 14.9024L0.92378 14.1534L1.47222 14.9016L0.92378 15.6861ZM1.18703 14.8889L0.93353 14.5532L0.67678 14.9087L0.932718 15.2768L1.18703 14.8889V14.8889ZM2.14253 15.6861L1.57947 14.9024L2.14253 14.1534L2.69097 14.9016L2.14253 15.6861V15.6861ZM2.40578 14.8889L2.15228 14.5532L1.89553 14.9087L2.15147 15.2768L2.40578 14.8889V14.8889Z" fill="#B20000"/>
<path fill-rule="evenodd" clip-rule="evenodd" d="M2.95503 15.6861L2.39197 14.9024L2.95503 14.1534L3.50347 14.9016L2.95503 15.6861V15.6861ZM3.21828 14.8889L2.96478 14.5532L2.70803 14.9087L2.96397 15.2768L3.21828 14.8889V14.8889ZM4.17378 15.6861L3.61072 14.9024L4.17378 14.1534L4.72222 14.9016L4.17378 15.6861ZM4.43703 14.8889L4.18353 14.5532L3.92678 14.9087L4.18272 15.2768L4.43703 14.8889V14.8889ZM2.39197 17.2299L3.57253 18.9557L4.72222 17.2299L3.57253 15.5832L2.39197 17.2299V17.2299ZM3.56766 16.2878L4.22984 17.2354L3.56766 18.2281L2.88922 17.2354L3.56766 16.2886V16.2878ZM3.65622 17.3652H3.45309V16.9567H3.65622V17.366V17.3652Z" fill="#B20000"/>
<path d="M1.34547 9.17859L0.0300293 11.3311L0.376154 11.5449L1.33003 9.9853L2.49353 12.0682L3.68628 9.97976L4.52884 11.3422L4.87334 11.1269L3.67247 9.18334L2.49759 11.2417L1.34547 9.17859Z" fill="#B20000"/>
<path fill-rule="evenodd" clip-rule="evenodd" d="M0.609375 18.5915H0.827938V18.183H0.609375V18.5915ZM2.4375 19H2.65606V18.5915H2.4375V19ZM4.26562 18.5915H4.48419V18.183H4.26562V18.5915ZM0.609375 16.1397H0.8125V15.7312H0.609375V16.1397ZM2.4375 16.1397H2.64062V15.7312H2.4375V16.1397ZM4.46875 16.1397H4.26562V15.7312H4.46875V16.1397ZM0.609375 14.0964H0.8125V13.6879H0.609375V14.0972V14.0964ZM2.4375 14.0964H2.64062V13.6879H2.4375V14.0972V14.0964ZM4.46875 14.0964H4.26562V13.6879H4.46875V14.0972V14.0964Z" fill="#B20000"/>
<path fill-rule="evenodd" clip-rule="evenodd" d="M1.79395 12.0278L1.25445 11.2615L0.402954 12.7538L1.5242 14.4606L2.48864 12.9731L3.45227 14.4614L4.57352 12.7538L3.72202 11.2607L3.18252 12.027L3.60908 12.8899L3.45227 13.2406L2.54227 11.8022V11.632L2.48864 11.7167L2.4342 11.632V11.8022L1.5242 13.2406L1.3682 12.8899L1.79395 12.027V12.0278Z" fill="#B20000"/>
</g>
</svg>
