<svg width="26" height="19" viewBox="0 0 26 19" fill="none" xmlns="http://www.w3.org/2000/svg">
<mask id="mask0_130_270" style="mask-type:alpha" maskUnits="userSpaceOnUse" x="0" y="0" width="26" height="19">
<path d="M0 0H26V19H0V0Z" fill="white"/>
</mask>
<g mask="url(#mask0_130_270)">
<path fill-rule="evenodd" clip-rule="evenodd" d="M0 0V19H26V0H0Z" fill="#009933"/>
<mask id="mask1_130_270" style="mask-type:alpha" maskUnits="userSpaceOnUse" x="0" y="0" width="26" height="19">
<path fill-rule="evenodd" clip-rule="evenodd" d="M0 0V19H26V0H0Z" fill="white"/>
</mask>
<g mask="url(#mask1_130_270)">
<g filter="url(#filter0_d_130_270)">
<path fill-rule="evenodd" clip-rule="evenodd" d="M12.9407 2.93237L22.8548 9.66471L12.805 15.968L3.09479 9.53408L12.9407 2.93237V2.93237Z" fill="#FFD221"/>
<path fill-rule="evenodd" clip-rule="evenodd" d="M12.9407 2.93237L22.8548 9.66471L12.805 15.968L3.09479 9.53408L12.9407 2.93237V2.93237Z" fill="url(#paint0_linear_130_270)"/>
</g>
<path fill-rule="evenodd" clip-rule="evenodd" d="M13 13.6167C14.0774 13.6167 15.1108 13.1997 15.8726 12.4574C16.6345 11.715 17.0625 10.7082 17.0625 9.65841C17.0625 8.60859 16.6345 7.60177 15.8726 6.85944C15.1108 6.11711 14.0774 5.70007 13 5.70007C11.9226 5.70007 10.8892 6.11711 10.1274 6.85944C9.36551 7.60177 8.9375 8.60859 8.9375 9.65841C8.9375 10.7082 9.36551 11.715 10.1274 12.4574C10.8892 13.1997 11.9226 13.6167 13 13.6167V13.6167Z" fill="#2E42A5"/>
<mask id="mask2_130_270" style="mask-type:alpha" maskUnits="userSpaceOnUse" x="8" y="5" width="10" height="9">
<path fill-rule="evenodd" clip-rule="evenodd" d="M13 13.6167C14.0774 13.6167 15.1108 13.1997 15.8726 12.4574C16.6345 11.715 17.0625 10.7082 17.0625 9.65841C17.0625 8.60859 16.6345 7.60177 15.8726 6.85944C15.1108 6.11711 14.0774 5.70007 13 5.70007C11.9226 5.70007 10.8892 6.11711 10.1274 6.85944C9.36551 7.60177 8.9375 8.60859 8.9375 9.65841C8.9375 10.7082 9.36551 11.715 10.1274 12.4574C10.8892 13.1997 11.9226 13.6167 13 13.6167V13.6167Z" fill="white"/>
</mask>
<g mask="url(#mask2_130_270)">
<path fill-rule="evenodd" clip-rule="evenodd" d="M11.6837 11.5347L11.5025 11.6273L11.5367 11.431L11.3904 11.2916L11.5935 11.2624L11.6837 11.0834L11.7747 11.2624L11.9779 11.2916L11.8308 11.431L11.8649 11.6273L11.6837 11.5347ZM13.3087 11.5347L13.1275 11.6273L13.1617 11.431L13.0154 11.2916L13.2185 11.2624L13.3087 11.0834L13.3997 11.2624L13.6029 11.2916L13.4558 11.431L13.4899 11.6273L13.3087 11.5347V11.5347ZM13.3087 12.4847L13.1275 12.5773L13.1617 12.381L13.0154 12.2416L13.2185 12.2124L13.3087 12.0334L13.3997 12.2124L13.6029 12.2416L13.4558 12.381L13.4899 12.5773L13.3087 12.4847V12.4847ZM12.4962 9.15969L12.315 9.25231L12.3492 9.05598L12.2029 8.91665L12.406 8.88736L12.4962 8.70844L12.5872 8.88736L12.7904 8.91665L12.6433 9.05598L12.6774 9.25231L12.4962 9.15969ZM12.4962 10.743L12.315 10.8356L12.3492 10.6393L12.2029 10.5L12.406 10.4707L12.4962 10.2918L12.5872 10.4707L12.7904 10.5L12.6433 10.6393L12.6774 10.8356L12.4962 10.743ZM11.3587 9.95136L11.1775 10.044L11.2117 9.84765L11.0654 9.70831L11.2685 9.67902L11.3587 9.50011L11.4497 9.67902L11.6529 9.70831L11.5058 9.84765L11.5399 10.044L11.3587 9.95136ZM10.2212 10.5847L10.04 10.6773L10.0742 10.481L9.92792 10.3416L10.131 10.3124L10.2212 10.1334L10.3122 10.3124L10.5154 10.3416L10.3683 10.481L10.4024 10.6773L10.2212 10.5847ZM13.9587 7.89302L13.7775 7.98565L13.8117 7.78931L13.6654 7.64998L13.8685 7.62069L13.9587 7.44177L14.0497 7.62069L14.2529 7.64998L14.1058 7.78931L14.1399 7.98565L13.9587 7.89302V7.89302Z" fill="#F7FCFF"/>
<path d="M8.06405 8.70602L8.18592 7.12744C12.0843 7.41402 15.1612 8.66327 17.3777 10.8839L16.2126 11.9883C14.2919 10.0621 11.5879 8.9649 8.06323 8.70602H8.06405Z" fill="#F7FCFF"/>
<path d="M9.98562 8.39413L10.0262 7.99988C12.5401 8.25321 14.6957 9.19134 16.4872 10.8119L16.211 11.1016C14.4844 9.54125 12.4109 8.63954 9.9848 8.39413H9.98562Z" fill="#009933"/>
</g>
</g>
</g>
<defs>
<filter id="filter0_d_130_270" x="-0.905212" y="-1.06763" width="27.76" height="21.0355" filterUnits="userSpaceOnUse" color-interpolation-filters="sRGB">
<feFlood flood-opacity="0" result="BackgroundImageFix"/>
<feColorMatrix in="SourceAlpha" type="matrix" values="0 0 0 0 0 0 0 0 0 0 0 0 0 0 0 0 0 0 127 0" result="hardAlpha"/>
<feOffset/>
<feGaussianBlur stdDeviation="2"/>
<feColorMatrix type="matrix" values="0 0 0 0 0.0313726 0 0 0 0 0.368627 0 0 0 0 0 0 0 0 0.28 0"/>
<feBlend mode="normal" in2="BackgroundImageFix" result="effect1_dropShadow_130_270"/>
<feBlend mode="normal" in="SourceGraphic" in2="effect1_dropShadow_130_270" result="shape"/>
</filter>
<linearGradient id="paint0_linear_130_270" x1="26" y1="19" x2="26" y2="3.92318e-05" gradientUnits="userSpaceOnUse">
<stop stop-color="#FFC600"/>
<stop offset="1" stop-color="#FFDE42"/>
</linearGradient>
</defs>
</svg>
