<svg width="26" height="19" viewBox="0 0 26 19" fill="none" xmlns="http://www.w3.org/2000/svg">
<mask id="mask0_145_537" style="mask-type:alpha" maskUnits="userSpaceOnUse" x="0" y="0" width="26" height="19">
<path d="M0 0H26V19H0V0Z" fill="white"/>
</mask>
<g mask="url(#mask0_145_537)">
<path fill-rule="evenodd" clip-rule="evenodd" d="M6.5 0H19.5V19H6.5V0Z" fill="#F7FCFF"/>
<path fill-rule="evenodd" clip-rule="evenodd" d="M12.9805 5.54167L13 15.0417H12.5125L12.8115 12.6904C10.6259 13.0736 9.62325 13.1686 9.80444 12.9754C9.98481 12.7822 10.127 12.5083 10.231 12.1537L7.3125 10.256C7.61962 10.2529 7.8975 10.1785 8.14775 10.0336C8.39719 9.88871 8.27206 9.38758 7.77319 8.52942L9.24625 8.73842L9.80444 8.14783L10.9159 9.2815H11.4156L10.9159 6.68483L11.8121 7.17171L12.9805 5.54167ZM12.9805 5.54167L14.1879 7.1725L15.0841 6.68404L14.5844 9.2815H15.0841L16.1956 8.14783L16.7529 8.73842L18.2268 8.52942C17.7279 9.38758 17.6028 9.88871 17.8531 10.0336C18.1025 10.1785 18.3812 10.2529 18.6875 10.256L15.7682 12.1537C15.873 12.5083 16.0152 12.7822 16.1956 12.9754C16.3768 13.1686 15.3741 13.0736 13.1885 12.6904L13.4867 15.0417H13L12.9805 5.54167V5.54167ZM19.5 0H26V19H19.5V0ZM0 0H6.5V19H0V0Z" fill="#E31D1C"/>
</g>
</svg>
