<svg width="26" height="19" viewBox="0 0 26 19" fill="none" xmlns="http://www.w3.org/2000/svg">
<mask id="mask0_145_581" style="mask-type:alpha" maskUnits="userSpaceOnUse" x="0" y="0" width="26" height="19">
<path d="M0 0H26V19H0V0Z" fill="white"/>
</mask>
<g mask="url(#mask0_145_581)">
<path fill-rule="evenodd" clip-rule="evenodd" d="M0 0V19H26V0H0Z" fill="#3D58DB"/>
<mask id="mask1_145_581" style="mask-type:alpha" maskUnits="userSpaceOnUse" x="0" y="0" width="26" height="19">
<path fill-rule="evenodd" clip-rule="evenodd" d="M0 0V19H26V0H0Z" fill="white"/>
</mask>
<g mask="url(#mask1_145_581)">
<path d="M0 6.33331H-1.625V12.6666H27.625V6.33331H0Z" fill="#3D58DB" stroke="#F7FCFF" stroke-width="4"/>
<path fill-rule="evenodd" clip-rule="evenodd" d="M0 0V19L14.625 9.5L0 0Z" fill="#E31D1C"/>
</g>
<mask id="mask2_145_581" style="mask-type:alpha" maskUnits="userSpaceOnUse" x="0" y="0" width="15" height="19">
<path fill-rule="evenodd" clip-rule="evenodd" d="M0 0V19L14.625 9.5L0 0Z" fill="white"/>
</mask>
<g mask="url(#mask2_145_581)">
<path fill-rule="evenodd" clip-rule="evenodd" d="M5.43399 11.2551L2.45049 12.7894L3.90243 9.70665L2.05237 8.05998L4.33712 7.97765L5.43399 5.19098L6.27087 7.97765H8.55156L7.03218 9.70665L8.24118 12.7894L5.43399 11.2551V11.2551Z" fill="#F7FCFF"/>
</g>
</g>
</svg>
