<svg width="26" height="19" viewBox="0 0 26 19" fill="none" xmlns="http://www.w3.org/2000/svg">
<mask id="mask0_145_549" style="mask-type:alpha" maskUnits="userSpaceOnUse" x="0" y="0" width="26" height="19">
<path d="M0 0H26V19H0V0Z" fill="white"/>
</mask>
<g mask="url(#mask0_145_549)">
<path fill-rule="evenodd" clip-rule="evenodd" d="M0 0V19H26V0H0Z" fill="#F7FCFF"/>
<mask id="mask1_145_549" style="mask-type:alpha" maskUnits="userSpaceOnUse" x="0" y="0" width="26" height="19">
<path fill-rule="evenodd" clip-rule="evenodd" d="M0 0V19H26V0H0Z" fill="white"/>
</mask>
<g mask="url(#mask1_145_549)">
<path fill-rule="evenodd" clip-rule="evenodd" d="M6.175 11.3367C5.82725 11.1016 5.98325 10.5846 5.98325 10.5846C5.98325 10.5846 6.5 10.8712 6.68038 11.0042C6.86156 11.1364 6.99238 11.6834 6.99238 11.6834C6.99238 11.6834 6.52275 11.5726 6.175 11.3375V11.3367ZM7.1045 12.0761C7.08663 11.9273 7.12969 11.7935 7.12969 11.7935C7.12969 11.7935 7.566 12.0207 7.71875 12.126C7.8715 12.2313 7.98119 12.6659 7.98119 12.6659C7.98119 12.6659 7.58469 12.578 7.29056 12.3904C7.24455 12.3607 7.20515 12.3222 7.17472 12.2773C7.14429 12.2324 7.12345 12.182 7.11344 12.1291C6.93823 12.182 6.75446 12.2027 6.5715 12.1901C6.27494 12.1624 6.06125 11.7571 6.06125 11.7571C6.06125 11.7571 6.46506 11.7555 6.62513 11.7768C6.74944 11.7927 6.99969 11.9906 7.1045 12.0761ZM8.47844 12.8488C8.47844 12.8488 8.51013 13.2739 8.82619 13.361C9.14225 13.4481 9.51113 13.4108 9.51113 13.4108C9.51113 13.4108 9.26494 13.0356 9.09675 12.9833C8.89288 12.9303 8.68687 12.8855 8.47925 12.8488H8.47844ZM10.3521 13.988C10.0254 13.9563 9.919 13.5423 9.919 13.5423C9.919 13.5423 10.3781 13.5454 10.5528 13.5692C10.7266 13.5929 11.0362 13.9207 11.0362 13.9207C11.0362 13.9207 10.6787 14.0196 10.3521 13.988ZM10.9322 13.2216C10.9322 13.2216 10.8883 13.718 11.2166 13.8843C11.5448 14.0505 11.9535 14.0853 11.9535 14.0853C11.9535 14.0853 11.7544 13.6024 11.5814 13.5058C11.4091 13.4108 10.9322 13.2216 10.9322 13.2216ZM11.1621 14.4891C10.7998 14.5611 10.5138 14.1487 10.5138 14.1487C10.5138 14.1487 11.0053 14.0022 11.2019 13.9713C11.3969 13.9397 11.8649 14.193 11.8649 14.193C11.8649 14.193 11.5245 14.4171 11.1621 14.4891ZM8.54019 13.5985C8.54019 13.5985 8.71244 13.9903 9.03988 13.9729C9.36813 13.9547 9.7045 13.8019 9.7045 13.8019C9.7045 13.8019 9.34619 13.5256 9.17069 13.5288C8.99438 13.532 8.54019 13.5985 8.54019 13.5985ZM9.49244 13.1488C9.19913 13.0047 9.25194 12.5812 9.25194 12.5812C9.25194 12.5812 9.6785 12.7451 9.83288 12.8282C9.98725 12.9113 10.1554 13.3253 10.1554 13.3253C10.1554 13.3253 9.78575 13.2937 9.49244 13.1488ZM7.84063 11.6003C7.84063 11.6003 7.84063 12.1228 8.06163 12.3278C8.28263 12.5321 8.5475 12.6033 8.5475 12.6033C8.5475 12.6033 8.39069 12.0729 8.2745 11.9573C8.1575 11.841 7.84063 11.6003 7.84063 11.6003ZM7.03138 12.7561C7.03138 12.7561 7.36044 13.1741 7.70006 13.152C8.03969 13.1314 8.33788 12.9659 8.33788 12.9659C8.33788 12.9659 7.85444 12.673 7.67 12.6778C7.48556 12.6825 7.03138 12.7561 7.03138 12.7561V12.7561ZM7.11019 12.6611C6.92982 12.677 6.76081 12.4577 6.76081 12.4577C6.76081 12.4577 7.00294 12.4118 7.10206 12.407C7.19956 12.4023 7.45144 12.5527 7.45144 12.5527C7.45144 12.5527 7.29138 12.6445 7.11019 12.6611ZM7.2605 10.9678C7.2605 10.9678 7.06875 11.1681 7.11588 11.3391C7.16463 11.5093 7.28488 11.6478 7.28488 11.6478C7.28488 11.6478 7.39294 11.3786 7.371 11.286C7.33912 11.1784 7.30225 11.0722 7.2605 10.9678ZM8.853 12.7332C8.74088 12.692 8.76688 12.5606 8.76688 12.5606C8.76688 12.5606 8.92938 12.6057 8.98869 12.6295C9.04719 12.6532 9.10731 12.7791 9.10731 12.7791C9.10731 12.7791 8.96431 12.7736 8.85219 12.7324L8.853 12.7332ZM8.27206 13.2398C8.27206 13.2398 8.24606 13.3713 8.35819 13.4124C8.4695 13.4536 8.6125 13.4583 8.6125 13.4583C8.6125 13.4583 8.55238 13.3325 8.49388 13.3087C8.43538 13.285 8.27206 13.2398 8.27206 13.2398ZM10.4187 13.4124C10.3066 13.3713 10.3326 13.2398 10.3326 13.2398C10.3326 13.2398 10.4959 13.2858 10.5544 13.3087C10.6129 13.3325 10.673 13.4591 10.673 13.4591C10.673 13.4591 10.53 13.4536 10.4187 13.4124ZM9.92063 14.0711C9.92063 14.0711 9.89463 14.2025 10.0068 14.2437C10.1181 14.2841 10.2611 14.2896 10.2611 14.2896C10.2611 14.2896 10.2009 14.1637 10.1424 14.14C10.0694 14.1144 9.99539 14.0914 9.92063 14.0711ZM12.1306 14.972L11.7691 14.6783C11.9949 14.5516 12.2273 14.4503 12.4256 14.3743C12.3812 14.3426 12.3329 14.3166 12.2818 14.2967V14.2001C12.2818 14.2001 12.4166 14.2342 12.6198 14.3038C12.8229 14.2342 12.9578 14.2009 12.9578 14.2009V14.2959C12.9063 14.3159 12.8577 14.3423 12.8131 14.3743C13.0122 14.4503 13.2438 14.5508 13.4704 14.6783L13.1081 14.972C13.1081 14.972 12.8594 14.7195 12.6198 14.5208C12.3801 14.7195 12.1314 14.972 12.1314 14.972H12.1306ZM19.2563 10.5846C19.2563 10.5846 19.4123 11.1016 19.0645 11.3367C18.7168 11.5726 18.2471 11.6834 18.2471 11.6834C18.2471 11.6834 18.3771 11.1364 18.5583 11.0034C18.7395 10.8712 19.2554 10.5846 19.2554 10.5846H19.2563ZM18.135 12.0761C18.1521 11.9273 18.109 11.7935 18.109 11.7935C18.109 11.7935 17.6735 12.0207 17.5208 12.126C17.368 12.2313 17.2575 12.6659 17.2575 12.6659C17.2575 12.6659 17.654 12.578 17.9481 12.3904C17.9943 12.3607 18.0338 12.3223 18.0644 12.2774C18.095 12.2325 18.116 12.1821 18.1261 12.1291C18.2138 12.1553 18.4373 12.2115 18.668 12.1901C18.9638 12.1624 19.1783 11.7571 19.1783 11.7571C19.1783 11.7571 18.7736 11.7555 18.6136 11.7768C18.4893 11.7927 18.2398 11.9906 18.1342 12.0761H18.135ZM16.7603 12.8488C16.7603 12.8488 16.7294 13.2739 16.4133 13.361C16.0964 13.4481 15.7276 13.4108 15.7276 13.4108C15.7276 13.4108 15.9746 13.0356 16.1419 12.9833C16.3093 12.9303 16.7603 12.8488 16.7603 12.8488V12.8488ZM14.8866 13.988C15.2133 13.9563 15.3205 13.5423 15.3205 13.5423C15.3205 13.5423 14.8614 13.5454 14.6868 13.5692C14.5129 13.5929 14.2033 13.9207 14.2033 13.9207C14.2033 13.9207 14.5608 14.0196 14.8866 13.988ZM14.3065 13.2216C14.3065 13.2216 14.3512 13.718 14.0221 13.8843C13.6947 14.0505 13.2852 14.0853 13.2852 14.0853C13.2852 14.0853 13.4851 13.6024 13.6573 13.5058C13.8296 13.4108 14.3073 13.2216 14.3073 13.2216H14.3065ZM14.0774 14.4891C14.4398 14.5611 14.7258 14.1487 14.7258 14.1487C14.7258 14.1487 14.2334 14.0022 14.0376 13.9713C13.8418 13.9397 13.3746 14.193 13.3746 14.193C13.3746 14.193 13.7142 14.4171 14.0774 14.4891V14.4891ZM16.6985 13.5985C16.6985 13.5985 16.5271 13.9903 16.1988 13.9729C15.8714 13.9547 15.5342 13.8019 15.5342 13.8019C15.5342 13.8019 15.8933 13.5256 16.0688 13.5288C16.2443 13.532 16.6985 13.5985 16.6985 13.5985ZM15.7471 13.1488C16.0396 13.0047 15.9876 12.5812 15.9876 12.5812C15.9876 12.5812 15.5602 12.7451 15.4066 12.8282C15.2523 12.9113 15.0841 13.3253 15.0841 13.3253C15.0841 13.3253 15.4538 13.2937 15.7471 13.1488ZM17.3989 11.6003C17.3989 11.6003 17.3981 12.1228 17.1771 12.3278C16.9569 12.5321 16.692 12.6033 16.692 12.6033C16.692 12.6033 16.848 12.0729 16.965 11.9573C17.0812 11.841 17.3989 11.6003 17.3989 11.6003V11.6003ZM18.2081 12.7561C18.2081 12.7561 17.8783 13.1741 17.5386 13.152C17.199 13.1314 16.9016 12.9659 16.9016 12.9659C16.9016 12.9659 17.3843 12.673 17.5687 12.6778C17.7531 12.6825 18.2081 12.7561 18.2081 12.7561ZM18.1285 12.6611C18.3089 12.677 18.4779 12.4577 18.4779 12.4577C18.4779 12.4577 18.2358 12.4118 18.1374 12.407C18.0399 12.4023 17.7881 12.5527 17.7881 12.5527C17.7881 12.5527 17.9481 12.6445 18.1293 12.6611H18.1285ZM17.9782 10.9678C17.9782 10.9678 18.1708 11.1681 18.1228 11.3391C18.0749 11.5093 17.9538 11.6478 17.9538 11.6478C17.9538 11.6478 17.8458 11.3786 17.8677 11.286C17.8896 11.1926 17.9782 10.9678 17.9782 10.9678ZM16.3865 12.7332C16.4986 12.692 16.4726 12.5606 16.4726 12.5606C16.4726 12.5606 16.3093 12.6057 16.2508 12.6295C16.1923 12.6532 16.1322 12.7791 16.1322 12.7791C16.1322 12.7791 16.2752 12.7736 16.3865 12.7324V12.7332ZM16.9674 13.2398C16.9674 13.2398 16.9934 13.3713 16.8813 13.4124C16.7692 13.4536 16.627 13.4583 16.627 13.4583C16.627 13.4583 16.6863 13.3325 16.7448 13.3087C16.8033 13.285 16.9674 13.2398 16.9674 13.2398ZM14.8208 13.4124C14.9321 13.3713 14.9061 13.2398 14.9061 13.2398C14.9061 13.2398 14.7436 13.2858 14.6843 13.3087C14.6258 13.3325 14.5657 13.4591 14.5657 13.4591C14.5657 13.4591 14.7087 13.4536 14.8208 13.4124ZM15.3189 14.0711C15.3189 14.0711 15.3449 14.2025 15.2328 14.2437C15.1206 14.2841 14.9784 14.2896 14.9784 14.2896C14.9784 14.2896 15.0378 14.1637 15.0963 14.14C15.1556 14.1162 15.3189 14.0711 15.3189 14.0711Z" fill="#006B49"/>
<path fill-rule="evenodd" clip-rule="evenodd" d="M22.5924 2.38843C22.5924 2.38843 22.8735 2.74072 22.5924 2.74072C22.3112 2.74072 21.5962 3.12151 21.5962 3.12151C21.5962 3.12151 21.255 3.6163 20.8439 3.72872C20.4319 3.83955 20.293 4.25597 19.6901 4.42934C19.0864 4.60272 19.0247 4.64943 19.0247 4.82518C19.0247 5.00014 19.1279 5.29701 18.7159 5.29701C18.304 5.29701 18.0123 4.73493 17.7897 5.29701C17.5671 5.85909 17.3412 6.02376 17.6499 6.36734C17.9587 6.71172 18.3674 7.04026 18.5421 7.23897C18.7159 7.43689 19.8762 8.01876 19.0247 8.01876C18.1732 8.01876 18.6014 7.4923 17.9457 7.68468C17.29 7.87705 17.6662 8.15968 17.1657 8.01876C16.6644 7.87626 16.3304 7.74722 16.1744 7.81214C16.0201 7.87705 15.7698 7.45272 15.7698 8.01797C15.7698 8.58401 16.237 8.35443 15.2344 8.97905C14.2317 9.60447 14.4308 9.43109 13.9709 9.43109C13.5102 9.43109 13.3494 9.71372 13.0422 9.71372H12.4272C12.0819 9.71372 12.4516 9.35668 11.8625 9.71372C11.2734 10.0716 11.0622 10.1428 11.0622 10.2806V10.7817C11.0622 10.7817 10.5219 11.0825 10.5219 10.7817C10.5219 10.4808 10.3553 10.4041 10.1319 10.2806C9.90761 10.1563 9.46074 10.2457 8.98299 10.2806C8.50524 10.3146 7.96493 9.8103 7.55055 9.8103C7.13618 9.8103 7.05818 9.43109 6.94443 9.43109C6.83068 9.43109 7.06305 9.10651 6.58043 8.81597C6.09699 8.52464 5.92799 8.48901 5.92799 8.01876C5.92799 7.54851 5.70618 7.41947 5.70618 7.13368C5.70618 6.84868 5.94261 7.23897 6.44393 7.23897C6.94443 7.23897 6.97774 6.93655 7.55055 6.65234C8.12255 6.36734 8.31674 6.21218 8.79368 6.36734C9.27143 6.5233 9.74105 7.10359 10.1319 6.54626C10.5219 5.98972 10.5219 5.35322 10.5219 5.0318C10.5219 4.71039 10.2911 4.61855 10.9143 4.82518C11.5375 5.03101 11.8999 5.03101 12.9358 5.03101C13.9709 5.03101 15.2092 5.36114 15.5902 5.03101C15.9721 4.70168 16.38 4.42934 17.3696 4.42934C18.3601 4.42934 18.6834 3.95434 19.3489 3.72872C20.0151 3.50151 19.0328 3.98126 20.5262 3.36059C22.0196 2.74072 22.5924 2.38843 22.5924 2.38843V2.38843Z" fill="#F57A01"/>
</g>
</g>
</svg>
