<svg width="26" height="19" viewBox="0 0 26 19" fill="none" xmlns="http://www.w3.org/2000/svg">
<mask id="mask0_139_344" style="mask-type:alpha" maskUnits="userSpaceOnUse" x="0" y="0" width="26" height="19">
<path d="M0 0H26V19H0V0Z" fill="white"/>
</mask>
<g mask="url(#mask0_139_344)">
<path fill-rule="evenodd" clip-rule="evenodd" d="M0 0V19H26V0H0Z" fill="#F7FCFF"/>
<mask id="mask1_139_344" style="mask-type:alpha" maskUnits="userSpaceOnUse" x="0" y="0" width="26" height="19">
<path fill-rule="evenodd" clip-rule="evenodd" d="M0 0V19H26V0H0Z" fill="white"/>
</mask>
<g mask="url(#mask1_139_344)">
<path fill-rule="evenodd" clip-rule="evenodd" d="M0 0V6.33333H26V0H0Z" fill="#BF2714"/>
<path fill-rule="evenodd" clip-rule="evenodd" d="M0 12.6666V19H26V12.6666H0Z" fill="#272727"/>
<path d="M9.96124 8.09082L10.7737 8.12724L10.569 12.4577L9.75812 12.4212L9.96124 8.09082V8.09082ZM10.8095 8.35999L11.6204 8.40432L11.4172 11.9162L10.6056 11.871L10.8095 8.35999V8.35999Z" fill="#C09302"/>
<path d="M11.6578 8.62282L12.4678 8.68774L12.2647 11.1071L11.4547 11.0422L11.6578 8.62282ZM16.0388 8.09082L15.2263 8.12724L15.4302 12.4577L16.2427 12.4212L16.0388 8.09082ZM15.1905 8.35999L14.3797 8.40432L14.5828 11.9162L15.3945 11.871L15.1905 8.35999V8.35999Z" fill="#C09302"/>
<path d="M14.3414 8.6228L13.5322 8.68772L13.7353 11.1071L14.5454 11.0421L14.3422 8.6228H14.3414ZM12.978 12.1338L12.1859 11.9565L12.5214 10.5315L13.3136 10.7081L12.978 12.1331V12.1338Z" fill="#C09302"/>
<path d="M13.585 12.1338L14.3764 11.9565L14.0416 10.5315L13.2495 10.708L13.585 12.133V12.1338Z" fill="#C09302"/>
<path d="M13.3835 12.1204H12.571V10.7207H13.3835V12.1204ZM11.891 8.6394L12.7035 8.6592L12.6555 10.5434L11.843 10.5244L11.891 8.6402V8.6394ZM13.3039 8.6394L14.1164 8.6592L14.0685 10.5434L13.256 10.5244L13.3039 8.6402V8.6394Z" fill="#C09302"/>
<path d="M10.8371 12.6057L11.0484 11.8409C11.9096 12.0665 12.5718 12.1789 13.0228 12.1789C13.4745 12.1789 14.1367 12.0665 14.9988 11.8409L15.21 12.6057C14.2846 12.8479 13.5598 12.9698 13.0236 12.9698C12.4873 12.9698 11.7618 12.8479 10.8371 12.6057V12.6057ZM9.97914 8.09315C9.92551 7.57065 10.2391 7.21599 10.7713 7.26111C10.9468 7.27615 11.1435 7.32603 11.4051 7.41311L11.5562 7.46457C11.9161 7.58886 12.0136 7.62132 12.034 7.62528C11.9543 7.60786 12.1891 7.19382 12.2436 7.12415C12.2493 7.16849 12.2225 7.16215 12.1575 7.14949L11.4246 7.00699L11.9462 6.48449C12.038 6.39465 12.1477 6.32413 12.2686 6.27728C12.3895 6.23044 12.519 6.20827 12.649 6.21215C12.6775 6.21215 12.7043 6.21057 12.792 6.20582L12.9301 6.19869C13.438 6.18286 13.8011 6.32219 13.8011 6.83044C13.8011 7.01253 13.8255 7.30465 13.8637 7.52632C13.8767 7.60074 13.9019 7.6704 13.8271 7.70128C13.8304 7.67515 14.0083 7.60628 14.2846 7.49386L14.3171 7.4804C15.1198 7.15424 15.2133 7.12415 15.4725 7.27695C15.6447 7.37986 15.8088 7.56194 15.9925 7.83665L15.3124 8.2697C15.1938 8.09315 15.0995 7.98628 15.0548 7.9562C15.1564 8.02586 14.8127 8.13669 14.6307 8.21111L14.5982 8.22457C13.9726 8.47869 13.8913 8.50957 13.7126 8.50957C13.2259 8.50957 13.052 8.02428 13.0041 7.32999C12.8538 7.81053 12.4069 8.41774 12.0372 8.41774C11.8763 8.41774 11.9543 8.44228 11.284 8.21032L11.1443 8.16282C11.0014 8.11015 10.8532 8.07221 10.7023 8.04961C10.7124 8.0384 10.7233 8.02782 10.7348 8.01795L9.97914 8.09315V8.09315Z" fill="#C09302"/>
</g>
</g>
</svg>
