<svg width="26" height="19" viewBox="0 0 26 19" fill="none" xmlns="http://www.w3.org/2000/svg">
<mask id="mask0_136_325" style="mask-type:alpha" maskUnits="userSpaceOnUse" x="0" y="0" width="26" height="19">
<path d="M0 0H26V19H0V0Z" fill="white"/>
</mask>
<g mask="url(#mask0_136_325)">
<path fill-rule="evenodd" clip-rule="evenodd" d="M0 0V19H26V0H0Z" fill="#F7FCFF"/>
<mask id="mask1_136_325" style="mask-type:alpha" maskUnits="userSpaceOnUse" x="0" y="0" width="26" height="19">
<path fill-rule="evenodd" clip-rule="evenodd" d="M0 0V19H26V0H0Z" fill="white"/>
</mask>
<g mask="url(#mask1_136_325)">
<path fill-rule="evenodd" clip-rule="evenodd" d="M11.375 0H14.625V7.91667H26V11.0833H14.625V19H11.375V11.0833H0V7.91667H11.375V0Z" fill="#E31D1C"/>
<path fill-rule="evenodd" clip-rule="evenodd" d="M8.12416 13.6341L9.91247 13.4583V15.0417C9.91247 15.0417 8.12416 14.9324 8.12416 14.9641C8.12416 14.9958 8.28748 16.625 8.28748 16.625H6.66248L6.79248 15.0417H5.03748V13.4583L6.79248 13.6341L6.66248 11.875H8.28748L8.12416 13.6341V13.6341ZM8.12416 4.13408L9.91247 3.95833V5.54167C9.91247 5.54167 8.12416 5.43242 8.12416 5.46408C8.12416 5.49575 8.28748 7.125 8.28748 7.125H6.66248L6.79248 5.54167H5.03748V3.95833L6.79248 4.13408L6.66248 2.375H8.28748L8.12416 4.13408V4.13408ZM19.4992 4.13408L21.2875 3.95833V5.54167C21.2875 5.54167 19.4992 5.43242 19.4992 5.46408C19.4992 5.49575 19.6625 7.125 19.6625 7.125H18.0375L18.1675 5.54167H16.4125V3.95833L18.1675 4.13408L18.0375 2.375H19.6625L19.4992 4.13408V4.13408ZM19.4992 13.6341L21.2875 13.4583V15.0417C21.2875 15.0417 19.4992 14.9324 19.4992 14.9641C19.4992 14.9958 19.6625 16.625 19.6625 16.625H18.0375L18.1675 15.0417H16.4125V13.4583L18.1675 13.6341L18.0375 11.875H19.6625L19.4992 13.6341V13.6341Z" fill="#E31D1C"/>
</g>
</g>
</svg>
