<svg width="26" height="19" viewBox="0 0 26 19" fill="none" xmlns="http://www.w3.org/2000/svg">
<mask id="mask0_133_302" style="mask-type:alpha" maskUnits="userSpaceOnUse" x="0" y="0" width="26" height="19">
<path d="M0 0H26V19H0V0Z" fill="white"/>
</mask>
<g mask="url(#mask0_133_302)">
<path fill-rule="evenodd" clip-rule="evenodd" d="M0 9.5H26V19H0V9.5Z" fill="#C51918"/>
<mask id="mask1_133_302" style="mask-type:alpha" maskUnits="userSpaceOnUse" x="0" y="9" width="26" height="10">
<path fill-rule="evenodd" clip-rule="evenodd" d="M0 9.5H26V19H0V9.5Z" fill="white"/>
</mask>
<g mask="url(#mask1_133_302)">
<path fill-rule="evenodd" clip-rule="evenodd" d="M9.75 15.8334C11.4739 15.8334 13.1272 15.1661 14.3462 13.9784C15.5652 12.7906 16.25 11.1797 16.25 9.50002C16.25 7.82032 15.5652 6.20941 14.3462 5.02168C13.1272 3.83395 11.4739 3.16669 9.75 3.16669C8.02609 3.16669 6.37279 3.83395 5.15381 5.02168C3.93482 6.20941 3.25 7.82032 3.25 9.50002C3.25 11.1797 3.93482 12.7906 5.15381 13.9784C6.37279 15.1661 8.02609 15.8334 9.75 15.8334V15.8334Z" fill="#F7FCFF"/>
</g>
<mask id="mask2_133_302" style="mask-type:alpha" maskUnits="userSpaceOnUse" x="0" y="0" width="26" height="10">
<path fill-rule="evenodd" clip-rule="evenodd" d="M0 0H26V9.5H0V0Z" fill="white"/>
</mask>
<g mask="url(#mask2_133_302)">
<path fill-rule="evenodd" clip-rule="evenodd" d="M9.75 15.8334C11.4739 15.8334 13.1272 15.1661 14.3462 13.9784C15.5652 12.7906 16.25 11.1797 16.25 9.50002C16.25 7.82032 15.5652 6.20941 14.3462 5.02168C13.1272 3.83395 11.4739 3.16669 9.75 3.16669C8.02609 3.16669 6.37279 3.83395 5.15381 5.02168C3.93482 6.20941 3.25 7.82032 3.25 9.50002C3.25 11.1797 3.93482 12.7906 5.15381 13.9784C6.37279 15.1661 8.02609 15.8334 9.75 15.8334V15.8334Z" fill="#C51918"/>
</g>
</g>
</svg>
