<svg width="26" height="19" viewBox="0 0 26 19" fill="none" xmlns="http://www.w3.org/2000/svg">
<mask id="mask0_136_316" style="mask-type:alpha" maskUnits="userSpaceOnUse" x="0" y="0" width="26" height="19">
<path d="M0 0H26V19H0V0Z" fill="white"/>
</mask>
<g mask="url(#mask0_136_316)">
<path fill-rule="evenodd" clip-rule="evenodd" d="M0 0H26V19H0V0Z" fill="#F7FCFF"/>
<path fill-rule="evenodd" clip-rule="evenodd" d="M0 4.35417H26V6.69512H0V4.35417ZM0 8.56187H26V10.9028H0V8.56187ZM26 12.6215H0V14.9625H26V12.6215V12.6215ZM0 0H26V2.375H0V0Z" fill="#4564F9"/>
<path d="M0 16.625H26V19H0V16.625Z" fill="#4564F9"/>
<path fill-rule="evenodd" clip-rule="evenodd" d="M0 0H12.1875V10.925H0V0Z" fill="#4564F9"/>
<path fill-rule="evenodd" clip-rule="evenodd" d="M4.875 0H7.3125V4.35733H12.1875V6.68088H7.3125V11.4792H4.875V6.68088H0V4.35733H4.875V0Z" fill="#F7FCFF"/>
</g>
</svg>
