<svg width="26" height="19" viewBox="0 0 26 19" fill="none" xmlns="http://www.w3.org/2000/svg">
<mask id="mask0_133_270" style="mask-type:alpha" maskUnits="userSpaceOnUse" x="0" y="0" width="26" height="19">
<path d="M0 0H26V19H0V0Z" fill="white"/>
</mask>
<g mask="url(#mask0_133_270)">
<path fill-rule="evenodd" clip-rule="evenodd" d="M17.875 0H26V19H17.875V0ZM0 0H9.75V19H0V0Z" fill="#58A5FF"/>
<path fill-rule="evenodd" clip-rule="evenodd" d="M8.125 0H17.875V19H8.125V0Z" fill="white"/>
<path fill-rule="evenodd" clip-rule="evenodd" d="M9.56152 12.4434L9.98565 12.9841L11.9113 10.4421V9.99164L9.56152 12.4434V12.4434Z" fill="#6C301F"/>
<path d="M10.8907 9.60768L11.0321 9.41847C12.8546 10.754 14.1464 11.7792 14.8687 12.6342L14.4178 12.996C13.7312 12.1838 12.6799 10.9179 10.8916 9.60768H10.8907ZM13.8296 8.49143L13.6199 8.29351L14.7696 7.13768L15.0215 7.37597L16.2142 6.29376L16.4133 6.50197L15.0166 7.76864L14.7753 7.54064L13.8296 8.49064V8.49143Z" fill="#979797"/>
<path fill-rule="evenodd" clip-rule="evenodd" d="M10.1611 6.68564C10.0994 6.42597 10.0311 6.10535 10.0311 6.10535C9.87676 6.44735 9.82801 6.75847 9.88976 7.03635C9.82476 7.12422 9.76545 7.20655 9.71183 7.28335C9.54689 7.0696 9.3397 6.67218 9.3397 6.67218C9.34782 6.78776 9.34376 6.90651 9.34051 7.02051C9.3332 7.29126 9.3267 7.54301 9.4567 7.69976L9.45508 7.70293C9.42961 7.75442 9.40523 7.80642 9.38195 7.85889C9.20157 7.68472 8.9042 7.37043 8.9042 7.37043C8.92776 7.74726 9.0342 8.04335 9.2292 8.25551C9.19441 8.36382 9.16513 8.47373 9.14145 8.58485C8.99114 8.43364 8.84651 8.28401 8.84651 8.28401C8.86764 8.6276 8.92614 8.8548 9.0797 9.0456C9.07658 9.09964 9.07495 9.15376 9.07482 9.20789C8.91639 9.04797 8.7547 8.88172 8.7547 8.88172C8.77664 9.24431 8.92208 9.48339 9.11383 9.68131C9.13251 9.79689 9.15851 9.91089 9.19101 10.0225L9.20889 10.0819C9.05742 10.0105 8.90656 9.93796 8.75633 9.86418C8.89689 10.1808 9.10326 10.3558 9.33726 10.4785C9.38764 10.621 9.44045 10.758 9.4957 10.8902C9.28437 10.8329 9.07366 10.7735 8.86358 10.7121C9.08783 11.0438 9.36326 11.1752 9.65982 11.2512C9.71995 11.3747 9.78333 11.4918 9.84833 11.6043C9.67381 11.5562 9.49966 11.5068 9.32589 11.4562C9.54364 11.7776 9.81014 11.9114 10.0961 11.9882C10.2854 12.2495 10.4878 12.4648 10.699 12.6255C10.4658 12.7284 10.1733 12.8519 10.1733 12.8519C10.504 12.9469 10.7681 12.9113 11.0102 12.8203L11.0378 12.8337C11.1418 12.8828 11.2588 12.9287 11.3905 12.9731C11.1995 13.0554 11.0175 13.1314 11.0175 13.1314C11.2856 13.2151 11.575 13.2064 11.8373 13.1068L11.8633 13.1132C11.9787 13.1448 12.0973 13.1733 12.2533 13.2113L12.6076 13.2968C12.8546 13.3586 12.9951 13.4013 13.0626 13.4386L13.0764 13.4465L13.0805 13.4481L13.2689 13.3143C13.2443 13.2832 13.2129 13.2578 13.1771 13.2398C13.0845 13.1892 12.9342 13.1433 12.6653 13.076L12.3037 12.9889C12.1438 12.9506 11.9846 12.91 11.826 12.867C11.8598 12.5976 11.7985 12.3251 11.6521 12.0943C11.6521 12.0943 11.579 12.5313 11.5286 12.7783C11.3955 12.736 11.2653 12.6858 11.1386 12.6279C11.1004 12.6102 11.063 12.5909 11.0265 12.5701C11.0144 12.2947 10.905 12.0318 10.7169 11.8259C10.7169 11.8259 10.7201 12.1038 10.7193 12.3445C10.552 12.1922 10.4027 12.0223 10.2741 11.8378L10.374 11.8901C10.3846 11.5813 10.3358 11.2781 10.062 10.967C10.062 10.967 10.0661 11.267 10.0645 11.5132C9.97142 11.3545 9.88628 11.1915 9.80932 11.0248C9.89736 10.76 9.88787 10.4736 9.78251 10.2149C9.78251 10.2149 9.71101 10.4128 9.63626 10.6131C9.61387 10.5556 9.5922 10.4978 9.57126 10.4397C9.72482 10.1896 9.82314 9.91168 9.75001 9.5293C9.75001 9.5293 9.57532 9.83172 9.44289 10.0502C9.40227 9.92562 9.37078 9.79837 9.34864 9.66943C9.56639 9.48972 9.74351 9.26489 9.80608 8.89835C9.80608 8.89835 9.51357 9.14218 9.31045 9.30447C9.30749 9.22241 9.30831 9.14026 9.31289 9.05826C9.54851 8.91893 9.75083 8.72893 9.87351 8.39247C9.87351 8.39247 9.58508 8.55872 9.36001 8.68222C9.37626 8.5991 9.39576 8.51597 9.41933 8.43206V8.43997C9.69883 8.29589 9.9442 8.10272 10.0848 7.71639C10.0848 7.71639 9.79551 7.88264 9.57045 8.00693C9.64302 7.83311 9.73282 7.66659 9.83858 7.50976C10.0872 7.43297 10.3196 7.29997 10.517 7.01893C10.517 7.01893 10.318 7.07435 10.1108 7.12818C10.231 6.96905 10.3708 6.79093 10.5333 6.59381L10.3505 6.45131L10.1611 6.68564V6.68564Z" fill="#5AB92D"/>
<path fill-rule="evenodd" clip-rule="evenodd" d="M15.9526 6.68564C16.0136 6.42597 16.0826 6.10535 16.0826 6.10535C16.237 6.44735 16.2857 6.75847 16.2232 7.03635C16.289 7.12422 16.3483 7.20655 16.4019 7.28335C16.5669 7.0696 16.7732 6.67218 16.7732 6.67218C16.7681 6.78824 16.7681 6.90446 16.7732 7.02051C16.7797 7.29126 16.7871 7.54301 16.6571 7.69976L16.6587 7.70293C16.6847 7.75439 16.7091 7.80664 16.7318 7.85889C16.9114 7.68472 17.2096 7.37043 17.2096 7.37043C17.1852 7.74726 17.0796 8.04335 16.8846 8.25551C16.9195 8.36635 16.9487 8.47639 16.9715 8.58485C17.1218 8.43364 17.2672 8.28401 17.2672 8.28401C17.2461 8.6276 17.1868 8.8548 17.0332 9.0456C17.0365 9.10022 17.0381 9.15405 17.0381 9.20789C17.1974 9.04797 17.3591 8.88172 17.3591 8.88172C17.3363 9.24431 17.1909 9.48339 16.9999 9.68131C16.9808 9.79642 16.9547 9.91035 16.9219 10.0225L16.9049 10.0819C17.121 9.98055 17.3574 9.86418 17.3574 9.86418C17.2161 10.1808 17.0105 10.3558 16.7757 10.4785C16.7261 10.621 16.6725 10.758 16.6172 10.8902C16.8716 10.8229 17.2502 10.7121 17.2502 10.7121C17.0251 11.0438 16.7497 11.1752 16.4539 11.2512C16.3953 11.3709 16.3324 11.4887 16.2654 11.6043C16.5059 11.5386 16.7879 11.4562 16.7879 11.4562C16.5693 11.7776 16.3036 11.9114 16.0168 11.9882C15.8283 12.2495 15.626 12.4648 15.4147 12.6255C15.6471 12.7284 15.9404 12.8519 15.9404 12.8519C15.6663 12.9372 15.3701 12.926 15.1036 12.8203C14.9798 12.8786 14.8526 12.9296 14.7225 12.9731C14.9142 13.0554 15.0962 13.1314 15.0962 13.1314C14.8279 13.2153 14.5381 13.2067 14.2756 13.1068L14.2504 13.1132C14.1342 13.1448 14.0164 13.1733 13.8604 13.2113L13.5062 13.2968C13.2592 13.3586 13.1178 13.4013 13.0512 13.4386L13.0366 13.4465L13.0333 13.4481L12.844 13.3143C12.8687 13.2832 12.9 13.2578 12.9358 13.2398C13.0284 13.1892 13.1796 13.1433 13.4477 13.076L13.8101 12.9889C13.9699 12.9506 14.1292 12.91 14.2878 12.867C14.2537 12.5977 14.3147 12.3252 14.4609 12.0943C14.4609 12.0943 14.5348 12.5313 14.5852 12.7783C14.7182 12.7358 14.8484 12.6856 14.9752 12.6279C15.0117 12.6113 15.0491 12.5915 15.0865 12.5701C15.0985 12.2947 15.2079 12.0318 15.3961 11.8259C15.3961 11.8259 15.3928 12.1038 15.3944 12.3445C15.5618 12.1923 15.7111 12.0223 15.8397 11.8378L15.7397 11.8901C15.7284 11.5813 15.7779 11.2781 16.0509 10.967C16.0509 10.967 16.0477 11.267 16.0493 11.5132C16.1387 11.3628 16.2232 11.1989 16.3036 11.0248C16.2158 10.7599 16.2256 10.4735 16.3312 10.2149C16.3312 10.2149 16.4027 10.4128 16.4775 10.6131L16.5425 10.4397C16.3889 10.1896 16.2906 9.91168 16.3637 9.5293C16.3637 9.5293 16.5376 9.83172 16.6709 10.0502L16.6977 9.96076C16.7253 9.86497 16.7481 9.7676 16.7651 9.66943C16.5179 9.47812 16.3544 9.20254 16.3077 8.89835C16.3077 8.89835 16.6002 9.14218 16.8033 9.30447C16.806 9.2224 16.8049 9.14024 16.8001 9.05826C16.5358 8.91094 16.3365 8.67391 16.2402 8.39247C16.2402 8.39247 16.5287 8.55872 16.7529 8.68222C16.7367 8.59808 16.7169 8.51463 16.6936 8.43206V8.43997C16.4141 8.29589 16.1687 8.10272 16.029 7.71639C16.029 7.71639 16.3182 7.88264 16.5433 8.00693C16.4707 7.83314 16.3809 7.66664 16.2752 7.50976C15.9963 7.42951 15.7557 7.25561 15.5959 7.01893C15.5959 7.01893 15.7958 7.07435 16.0022 7.12818C15.8827 6.96905 15.7422 6.79093 15.5805 6.59381L15.7633 6.45131L15.9526 6.68564V6.68564Z" fill="#5AB92D"/>
<path fill-rule="evenodd" clip-rule="evenodd" d="M10.9013 7.3807L11.882 9.91403H11.1613C11.1613 9.91403 10.9013 10.7128 11.3921 10.7128H14.4097C14.4097 10.7128 14.7379 10.5125 14.5738 9.91324C14.4097 9.31474 13.5793 7.66095 13.5793 7.66095C13.5793 7.66095 13.9344 7.38703 13.9344 7.18357C13.9344 6.98011 13.5793 6.95795 13.5793 6.95795H11.3409C11.0549 7.00307 10.9021 7.3807 10.9021 7.3807H10.9013Z" fill="#EFE298"/>
<path d="M11.7358 8.31248L13.2592 8.22064L11.7358 8.31327V8.31248Z" fill="#C5A042"/>
<path d="M11.7358 8.31248L13.2592 8.22064" stroke="#B47D00" stroke-width="0.5"/>
<path d="M12.1063 9.12076L13.6297 9.02893L12.1063 9.12076V9.12076Z" fill="#C5A042"/>
<path d="M12.1063 9.12076L13.6297 9.02893" stroke="#B47D00" stroke-width="0.5"/>
<path d="M12.3963 9.92832L13.9189 9.83649L12.3963 9.92832Z" fill="#C5A042"/>
<path d="M12.3963 9.92832L13.9189 9.83649" stroke="#B47D00" stroke-width="0.5"/>
<path fill-rule="evenodd" clip-rule="evenodd" d="M12.9025 6.00714C12.9025 6.00714 12.6685 6.05306 12.6685 6.19714C12.6685 6.34202 12.6051 6.46552 12.6051 6.46552C12.6051 6.46552 12.6766 7.12418 13.2112 7.27698C13.7467 7.42977 14.0595 7.46697 14.2854 7.77256C14.5104 8.07972 15.201 8.94422 14.924 9.69156C14.6469 10.4381 14.4292 10.8189 14.4292 10.8189C14.4292 10.8189 15.4399 9.89185 15.4399 9.45168C15.4399 9.01231 15.2904 8.58639 14.8427 8.02748C14.3959 7.46935 14.187 7.14318 13.8531 6.89143C13.52 6.64047 13.0422 6.40852 13.0422 6.40852C13.0422 6.40852 13.2129 6.23118 13.1275 6.14727C13.0609 6.08891 12.9848 6.04157 12.9025 6.00714V6.00714Z" fill="#5AB92D"/>
</g>
</svg>
