<svg width="26" height="19" viewBox="0 0 26 19" fill="none" xmlns="http://www.w3.org/2000/svg">
<mask id="mask0_139_370" style="mask-type:alpha" maskUnits="userSpaceOnUse" x="0" y="0" width="26" height="19">
<path d="M0 0H26V19H0V0Z" fill="white"/>
</mask>
<g mask="url(#mask0_139_370)">
<path fill-rule="evenodd" clip-rule="evenodd" d="M0 0V19H26V0H0Z" fill="#F7FCFF"/>
<mask id="mask1_139_370" style="mask-type:alpha" maskUnits="userSpaceOnUse" x="0" y="0" width="26" height="19">
<path fill-rule="evenodd" clip-rule="evenodd" d="M0 0V19H26V0H0Z" fill="white"/>
</mask>
<g mask="url(#mask1_139_370)">
<path fill-rule="evenodd" clip-rule="evenodd" d="M0 0V6.33333H26V0H0Z" fill="#FF8C1A"/>
<path fill-rule="evenodd" clip-rule="evenodd" d="M0 12.6667V19H26V12.6667H0Z" fill="#5EAA22"/>
<path fill-rule="evenodd" clip-rule="evenodd" d="M9.75 9.50004C9.75 10.3399 10.0924 11.1453 10.7019 11.7392C11.3114 12.3331 12.138 12.6667 13 12.6667C13.862 12.6667 14.6886 12.3331 15.2981 11.7392C15.9076 11.1453 16.25 10.3399 16.25 9.50004C16.25 8.66019 15.9076 7.85473 15.2981 7.26087C14.6886 6.667 13.862 6.33337 13 6.33337C12.138 6.33337 11.3114 6.667 10.7019 7.26087C10.0924 7.85473 9.75 8.66019 9.75 9.50004V9.50004ZM15.4375 9.50004C15.4375 10.1299 15.1807 10.734 14.7236 11.1794C14.2665 11.6248 13.6465 11.875 13 11.875C12.3535 11.875 11.7335 11.6248 11.2764 11.1794C10.8193 10.734 10.5625 10.1299 10.5625 9.50004C10.5625 8.87015 10.8193 8.26606 11.2764 7.82066C11.7335 7.37526 12.3535 7.12504 13 7.12504C13.6465 7.12504 14.2665 7.37526 14.7236 7.82066C15.1807 8.26606 15.4375 8.87015 15.4375 9.50004V9.50004Z" fill="#3D58DB"/>
<path fill-rule="evenodd" clip-rule="evenodd" d="M12.996 10.1809L12.532 12.6517L12.801 10.154L11.6415 12.3976L12.6222 10.0748L10.8615 11.9083L12.4735 9.94972L10.2538 11.2259L12.3679 9.78822L9.86864 10.4033L12.3118 9.60455L9.73621 9.50876L12.3118 9.41376L9.86864 8.61418L12.3679 9.2293L10.2538 7.79243L12.4735 9.06859L10.8615 7.10922L12.6222 8.94272L11.6415 6.61997L12.801 8.86355L12.532 6.36584L12.9951 8.83584L13.4591 6.36584L13.1901 8.86355L14.3496 6.61997L13.3689 8.94272L15.1288 7.10922L13.5168 9.06859L15.7365 7.79243L13.6224 9.2293L16.1216 8.61418L13.6776 9.41376L16.2533 9.50876L13.6776 9.60455L16.1216 10.4041L13.6224 9.78822L15.7365 11.2259L13.5168 9.94972L15.1288 11.9083L13.3681 10.0748L14.3488 12.3976L13.1893 10.154L13.4583 12.6517L12.9951 10.1817L12.996 10.1809Z" fill="#3D58DB"/>
</g>
</g>
</svg>
