<svg width="26" height="19" viewBox="0 0 26 19" fill="none" xmlns="http://www.w3.org/2000/svg">
<mask id="mask0_141_426" style="mask-type:alpha" maskUnits="userSpaceOnUse" x="0" y="0" width="26" height="19">
<path d="M0 0H26V19H0V0Z" fill="white"/>
</mask>
<g mask="url(#mask0_141_426)">
<path fill-rule="evenodd" clip-rule="evenodd" d="M0 0V19H26V0H0Z" fill="#F7FCFF"/>
<mask id="mask1_141_426" style="mask-type:alpha" maskUnits="userSpaceOnUse" x="0" y="0" width="26" height="19">
<path fill-rule="evenodd" clip-rule="evenodd" d="M0 0V19H26V0H0Z" fill="white"/>
</mask>
<g mask="url(#mask1_141_426)">
<path fill-rule="evenodd" clip-rule="evenodd" d="M0 0V6.33333H26V0H0Z" fill="#5EAA22"/>
<path fill-rule="evenodd" clip-rule="evenodd" d="M0 12.6667V19H26V12.6667H0Z" fill="#E31D1C"/>
<path fill-rule="evenodd" clip-rule="evenodd" d="M3.73751 12.977V13.4789H1.84439V12.977H3.73751ZM0.460699 14.2373H0.291699V14.0371H0.660574V14.7393H1.13182V14.7448H1.58764V13.2866H1.29676V14.2429H1.25126V13.2106H0.960387V14.2373H0.952261V13.2106H0.660574V13.5351H1.1616e-05V14.7393H0.459887V14.2373H0.460699ZM1.67945 14.5184H1.97195V14.0212H2.29695V14.7448H3.20939V13.5201H2.74057V14.022H2.9177V14.2429H2.5862V13.5193H1.67945V14.5184ZM3.5417 14.2373H3.70989V14.7393H3.25001V13.5351H3.91139V13.2106H4.20307V14.2373H4.2112V13.2106H4.50207V14.2429H4.54676V13.2866H4.83926V14.7448H4.38264V14.7393H3.91139V14.0371H3.5417V14.2373V14.2373ZM6.98751 12.977V13.4789H5.09439V12.977H6.98751ZM4.92864 14.5192H5.22032V14.0212H5.54532V14.7448H6.45939V13.5201H5.99057V14.022H6.16851V14.2429H5.83701V13.5193H4.92864V14.5184V14.5192ZM6.84939 14.2373H7.01757V14.7393H6.55689V13.5351H7.21826V13.2106H7.51076V14.2373H7.51726V13.2106H7.80976V14.2429H7.85445V13.2866H8.14532V14.7448H7.68951V14.7393H7.21826V14.0371H6.84939V14.2373V14.2373ZM10.296 12.977V13.4789H8.40126V12.977H10.2944H10.296ZM8.23632 14.5192H8.52882V14.0212H8.85382V14.7448H9.76789V13.5201H9.29826V14.022H9.4762V14.2429H9.1447V13.5193H8.23632V14.5184V14.5192ZM10.0986 14.2373H10.2668V14.7393H9.80689V13.5351H10.4683V13.2106H10.7599V14.2373H10.7681V13.2106H11.0589V14.2429H11.1036V13.2866H11.3961V14.7448H10.9395V14.7393H10.4683V14.0371H10.0986V14.2373V14.2373ZM13.5452 12.977V13.4789H11.6521V12.977H13.5452ZM11.4863 14.5192H11.778V14.0212H12.103V14.7448H13.0171V13.5201H12.5483V14.022H12.7262V14.2429H12.3947V13.5193H11.4863V14.5184V14.5192ZM13.3486 14.2373H13.5168V14.7393H13.0569V13.5351H13.7183V13.2106H14.0099V14.2373H14.0173V13.2106H14.3089V14.2429H14.3536V13.2866H14.6453V14.7448H14.1887V14.7393H13.7174V14.0371H13.3486V14.2373V14.2373ZM16.7952 12.977V13.4789H14.9021V12.977H16.7952V12.977ZM14.7363 14.5192H15.028V14.0212H15.353V14.7448H16.2671V13.5201H15.7983V14.022H15.9754V14.2429H15.6439V13.5193H14.7363V14.5184V14.5192ZM16.6563 14.2373H16.8244V14.7393H16.3646V13.5351H17.0259V13.2106H17.3176V14.2373H17.3258V13.2106H17.6166V14.2429H17.6613V13.2866H17.953V14.7448H17.4972V14.7393H17.0259V14.0371H16.6563V14.2373V14.2373ZM20.1029 12.977V13.4789H18.2098V12.977H20.1029ZM18.044 14.5192H18.3357V14.0212H18.6607V14.7448H19.5748V13.5201H19.1059V14.022H19.2839V14.2429H18.9524V13.5193H18.044V14.5184V14.5192ZM19.9648 14.2373H20.1329V14.7393H19.6723V13.5351H20.3336V13.2106H20.6253V14.2373H20.6334V13.2106H20.9243V14.2429H20.969V13.2866H21.2615V14.7448H20.8049V14.7393H20.3336V14.0371H19.9648V14.2373V14.2373ZM23.4114 12.977V13.4789H21.5174V12.977H23.4106H23.4114ZM21.3517 14.5192H21.6442V14.0212H21.9692V14.7448H22.8824V13.5201H22.4136V14.022H22.5916V14.2429H22.2601V13.5193H21.3517V14.5184V14.5192ZM23.2724 14.2373H23.4406V14.7393H22.9808V13.5351H23.6413V13.2106H23.9338V14.2373H23.9403V13.2106H24.2328V14.2429H24.2775V13.2866H24.5684V14.7448H24.1126V14.7393H23.6413V14.0371H23.2724V14.2373V14.2373ZM26.7191 12.977V13.4789H24.8251V12.977H26.7183H26.7191ZM24.6594 14.5192H24.9503V14.0212H25.2753V14.7448H26.1901V13.5201H25.7213V14.022H25.8984V14.2429H25.5669V13.5193H24.6594V14.5184V14.5192ZM26.5208 14.2373H26.689V14.7393H26.2299V13.5351H26.8913V13.2106H27.183V14.2373H27.1911V13.2106H27.482V14.2429H27.5267V13.2866H27.8192V14.7448H27.3626V14.7393H26.8913V14.0371H26.5216V14.2373H26.5208ZM29.9674 12.977V13.4789H28.0743V12.977H29.9674ZM27.9094 14.5192H28.2011V14.0212H28.5261V14.7448H29.4401V13.5201H28.9713V14.022H29.1493V14.2429H28.8178V13.5193H27.9094V14.5184V14.5192ZM29.9455 14.2373H30.1137V14.7393H29.6538V13.5351H30.3152V13.2106H30.6069V14.2373H30.615V13.2106H30.9059V14.2429H30.9506V13.2866H31.2431V14.7448H30.7864V14.7393H30.3152V14.0371H29.9455V14.2373V14.2373ZM33.3921 12.977V13.4789H31.499V12.977H33.3921ZM31.3333 14.5192H31.6258V14.0212H31.9508V14.7448H32.8648V13.5201H32.3952V14.022H32.5731V14.2429H32.2416V13.5193H31.3333V14.5184V14.5192ZM0.394074 4.26868V4.77059H-1.49986V4.26868H0.393262H0.394074ZM-2.88436 5.52901H-3.05255V5.32872H-2.68368V6.03093H-2.21243V6.03647H-1.75661V4.57822H-2.04749V5.53455H-2.09299V4.50222H-2.38468V5.52901H-2.39199V4.50222H-2.68368V4.8268H-3.34424V6.03093H-2.88436V5.52901ZM-1.66561 5.81005H-1.37311V5.31289H-1.04811V6.03647H-0.134051V4.81176H-0.603676V5.31368H-0.425738V5.53455H-0.757238V4.81097H-1.66561V5.81084V5.81005ZM0.196637 5.52901H0.365636V6.03093H-0.095051V4.8268H0.566324V4.50222H0.858011V5.52901H0.866137V4.50222H1.15701V5.53455H1.2017V4.57822H1.49339V6.03647H1.03757V6.03093H0.566324V5.32872H0.196637V5.52901ZM3.64326 4.26868V4.77059H1.75014V4.26868H3.64326ZM1.58439 5.81005H1.87607V5.31289H2.20107V6.03647H3.11514V4.81176H2.64632V5.31368H2.82426V5.53455H2.49276V4.81097H1.58439V5.81084V5.81005ZM3.50514 5.52901H3.67332V6.03093H3.21264V4.8268H3.87401V4.50222H4.1657V5.52901H4.17382V4.50222H4.4647V5.53455H4.50939V4.57822H4.80189V6.03647H4.34526V6.03093H3.87401V5.32872H3.50514V5.52901V5.52901ZM6.95176 4.26868V4.77059H5.05782V4.26868H6.95095H6.95176ZM4.89126 5.81005H5.18376V5.31289H5.50876V6.03647H6.42282V4.81176H5.9532V5.31368H6.13114V5.53455H5.79964V4.81097H4.89126V5.81084V5.81005ZM6.75351 5.52901H6.9217V6.03093H6.46264V4.8268H7.12401V4.50222H7.4157V5.52901H7.42382V4.50222H7.7147V5.53455H7.75939V4.57822H8.05107V6.03647H7.59526V6.03093H7.12401V5.32872H6.75432V5.52901H6.75351ZM10.2001 4.26868V4.77059H8.30701V4.26868H10.2001ZM8.14126 5.81005H8.43295V5.31289H8.75795V6.03647H9.67201V4.81176H9.2032V5.31368H9.38114V5.53455H9.04964V4.81097H8.14126V5.81084V5.81005ZM10.0035 5.52901H10.1717V6.03093H9.71264V4.8268H10.374V4.50222H10.6649V5.52901H10.673V4.50222H10.9647V5.53455H11.0094V4.57822H11.3011V6.03647H10.8444V6.03093H10.3732V5.32872H10.0043V5.52901H10.0035ZM13.4501 4.26868V4.77059H11.557V4.26868H13.4501ZM11.3913 5.81005H11.6829V5.31289H12.0079V6.03647H12.922V4.81176H12.4532V5.31368H12.6303V5.53455H12.2988V4.81097H11.3913V5.81084V5.81005ZM13.3112 5.52901H13.4794V6.03093H13.0203V4.8268H13.6817V4.50222H13.9734V5.52901H13.9815V4.50222H14.2724V5.53455H14.3171V4.57822H14.6088V6.03647H14.1529V6.03093H13.6817V5.32872H13.312V5.52901H13.3112ZM16.7578 4.26868V4.77059H14.8647V4.26868H16.7578ZM14.6989 5.81005H14.9906V5.31289H15.3156V6.03647H16.2297V4.81176H15.7625V5.31368H15.9396V5.53455H15.6081V4.81097H14.7006V5.81084L14.6989 5.81005ZM16.6197 5.52901H16.7871V6.03093H16.328V4.8268H16.9894V4.50222H17.2811V5.52901H17.2892V4.50222H17.5801V5.53455H17.6248V4.57822H17.9173V6.03647H17.4606V6.03093H16.9894V5.32872H16.6205V5.52901H16.6197ZM20.0655 4.26868V4.77059H18.1724V4.26868H20.0655V4.26868ZM18.0066 5.81005H18.2983V5.31289H18.6233V6.03647H19.5374V4.81176H19.0686V5.31368H19.2465V5.53455H18.915V4.81097H18.0066V5.81084V5.81005ZM19.9274 5.52901H20.0956V6.03093H19.6349V4.8268H20.2963V4.50222H20.5888V5.52901H20.5953V4.50222H20.8878V5.53455H20.9324V4.57822H21.2233V6.03647H20.7675V6.03093H20.2963V5.32872H19.9274V5.52901ZM23.374 4.26868V4.77059H21.4801V4.26868H23.3732H23.374ZM21.3151 5.81005H21.606V5.31289H21.931V6.03647H22.8459V4.81176H22.3763V5.31368H22.5542V5.53455H22.2227V4.81097H21.3151V5.81084V5.81005ZM23.1766 5.52901H23.3448V6.03093H22.8857V4.8268H23.5471V4.50222H23.8388V5.52901H23.8469V4.50222H24.1378V5.53455H24.1824V4.57822H24.4749V6.03647H24.0183V6.03093H23.5471V5.32872H23.1774V5.52901H23.1766ZM26.6232 4.26868V4.77059H24.7301V4.26868H26.6232ZM24.5643 5.81005H24.856V5.31289H25.181V6.03647H26.0951V4.81176H25.6263V5.31368H25.8042V5.53455H25.4727V4.81097H24.5643V5.81084V5.81005ZM26.6004 5.52901H26.7686V6.03093H26.3096V4.8268H26.9709V4.50222H27.2626V5.52901H27.2708V4.50222H27.5616V5.53455H27.6063V4.57822H27.8988V6.03647H27.4422V6.03093H26.9709V5.32872H26.6013V5.52901H26.6004ZM30.0471 4.26868V4.77059H28.1539V4.26868H30.0471ZM27.9882 5.81005H28.2799V5.31289H28.6049V6.03647H29.5189V4.81176H29.0501V5.31368H29.2281V5.53455H28.8966V4.81097H27.9882V5.81084V5.81005Z" fill="#F7FCFF"/>
<path fill-rule="evenodd" clip-rule="evenodd" d="M11.8674 6.53125C11.8674 6.53125 12.2151 6.70938 12.5702 6.70938C12.9252 6.70938 13.2835 6.53125 13.2835 6.53125V6.76875C13.2835 6.76875 12.8927 6.94687 12.5474 6.94687C12.2013 6.94687 11.8674 6.76875 11.8674 6.76875V6.53125ZM9.30798 9.33375C9.30798 7.92696 11.2921 7.00625 11.2921 7.00625C11.2921 7.00625 10.1457 7.60475 10.1457 9.27517C10.1457 10.9456 10.7412 11.6692 10.7412 11.6692C10.7412 11.6692 9.30798 10.7421 9.30798 9.33375V9.33375ZM16.0014 9.25696C16.0014 7.84858 14.0189 7.00625 14.0189 7.00625C14.0189 7.00625 15.1661 7.60475 15.1661 9.27517C15.1661 10.9456 14.5705 11.6692 14.5705 11.6692C14.5705 11.6692 16.0014 10.6637 16.0014 9.25696V9.25696ZM10.6632 9.64092C10.5869 8.23492 11.7869 6.97537 11.7869 6.97537C11.7869 6.97537 11.3506 7.55329 11.44 9.22212C11.4709 9.7945 11.7024 10.6471 11.9941 11.149V7.06563H13.2129V11.1847C13.5054 10.7152 13.7304 9.91563 13.7613 9.33454C13.8507 7.6665 13.4355 6.97537 13.4355 6.97537C13.4355 6.97537 14.6355 8.23492 14.56 9.64092C14.5145 10.4777 13.8531 11.3628 13.3266 11.9423C13.5825 11.9977 13.9262 12.0658 14.3983 12.156C14.408 12.2075 14.3032 12.2051 14.0936 12.2004C13.7409 12.188 13.3877 12.2028 13.0374 12.2447C12.822 12.46 12.6717 12.5875 12.6717 12.5875L12.6116 12.5131L12.5507 12.5875C12.5507 12.5875 12.4012 12.4608 12.185 12.2447C11.8347 12.2028 11.4815 12.188 11.1288 12.2004C10.92 12.2051 10.8144 12.2083 10.8241 12.1568C11.297 12.0658 11.6399 11.9985 11.8966 11.9431C11.3685 11.3628 10.7079 10.4785 10.6632 9.64092V9.64092Z" fill="#E31D1C"/>
</g>
</g>
</svg>
