<svg width="26" height="19" viewBox="0 0 26 19" fill="none" xmlns="http://www.w3.org/2000/svg">
<mask id="mask0_141_415" style="mask-type:alpha" maskUnits="userSpaceOnUse" x="0" y="0" width="26" height="19">
<path d="M0 0H26V19H0V0Z" fill="white"/>
</mask>
<g mask="url(#mask0_141_415)">
<path fill-rule="evenodd" clip-rule="evenodd" d="M0 0V19H26V0H0Z" fill="#F7FCFF"/>
<mask id="mask1_141_415" style="mask-type:alpha" maskUnits="userSpaceOnUse" x="0" y="0" width="26" height="19">
<path fill-rule="evenodd" clip-rule="evenodd" d="M0 0V19H26V0H0Z" fill="white"/>
</mask>
<g mask="url(#mask1_141_415)">
<path fill-rule="evenodd" clip-rule="evenodd" d="M0 0V6.33333H26V0H0Z" fill="#BF2714"/>
<path fill-rule="evenodd" clip-rule="evenodd" d="M0 12.6667V19H26V12.6667H0Z" fill="#272727"/>
<path fill-rule="evenodd" clip-rule="evenodd" d="M4.33631 10.142C5.07569 11.176 4.0625 11.875 4.0625 11.875C4.0625 11.875 4.94812 11.875 5.28694 11.1831H12.532V9.65833C12.532 9.65833 12.3809 8.92604 11.7358 8.92604C11.0898 8.92604 10.9452 9.65833 10.9452 9.65833H8.39637L10.8623 7.53667L10.3829 7.125L7.644 9.481V9.97975H11.5318V9.68683C11.5318 9.68683 11.5537 9.51583 11.7349 9.51583C11.9169 9.51583 11.8731 9.68604 11.8731 9.68604V10.3138H6.97369V9.45567L6.44312 9.68604V10.3138C6.44312 10.3138 5.79312 10.142 5.38281 10.142C4.97169 10.142 4.94731 9.68604 4.94731 9.68604L4.33631 10.142V10.142ZM14.1757 10.2006L14.573 11.1649H12.9919V7.29442L13.6581 7.50263V10.2006H14.1757ZM21.5402 10.2006L21.9375 11.1649H20.3564V7.29442L21.0226 7.50263V10.2006H21.5402ZM19.5821 7.33479L19.1709 7.60633V10.1983H18.7509V8.11933L18.0603 8.50725V10.1983H17.5955V9.025L17.0698 9.35433V9.67258C17.0698 9.67258 16.0591 9.74067 16.0591 11.1332H19.578L19.5829 7.33479H19.5821ZM6.08644 11.8473C6.214 11.8473 6.31719 11.7594 6.31719 11.6494C6.31719 11.5409 6.214 11.4515 6.08725 11.4515C5.95969 11.4515 5.85731 11.5409 5.85731 11.6494C5.85731 11.7594 5.95969 11.8473 6.08725 11.8473H6.08644ZM17.8059 7.63325C17.6272 7.86283 17.0844 7.63325 17.0844 7.63325L18.6225 7.45908C18.4633 7.7615 17.8051 7.63325 17.8051 7.63325H17.8059Z" fill="#009C4E"/>
</g>
</g>
</svg>
