<svg width="26" height="19" viewBox="0 0 26 19" fill="none" xmlns="http://www.w3.org/2000/svg">
<mask id="mask0_139_360" style="mask-type:alpha" maskUnits="userSpaceOnUse" x="0" y="0" width="26" height="19">
<path d="M0 0H26V19H0V0Z" fill="white"/>
</mask>
<g mask="url(#mask0_139_360)">
<path fill-rule="evenodd" clip-rule="evenodd" d="M0 0V19H26V0H0Z" fill="#F7FCFF"/>
<mask id="mask1_139_360" style="mask-type:alpha" maskUnits="userSpaceOnUse" x="0" y="0" width="26" height="19">
<path fill-rule="evenodd" clip-rule="evenodd" d="M0 0V19H26V0H0Z" fill="white"/>
</mask>
<g mask="url(#mask1_139_360)">
<path fill-rule="evenodd" clip-rule="evenodd" d="M0 2.375V4.75H26V2.375H0ZM0 14.25V16.625H26V14.25H0ZM9.24706 11.8267H16.8659L13.0942 5.24083L9.24625 11.8275L9.24706 11.8267ZM15.5618 11.0271H10.5796L13.0869 6.69671L15.5618 11.0271V11.0271Z" fill="#3D58DB"/>
<path fill-rule="evenodd" clip-rule="evenodd" d="M9.15198 7.18518H16.8033L13.1105 13.5858L9.15198 7.18518V7.18518ZM15.474 7.95626H10.6039L13.0885 12.2954L15.474 7.95626Z" fill="#3D58DB"/>
</g>
</g>
</svg>
