<svg width="26" height="19" viewBox="0 0 26 19" fill="none" xmlns="http://www.w3.org/2000/svg">
<mask id="mask0_145_515" style="mask-type:alpha" maskUnits="userSpaceOnUse" x="0" y="0" width="26" height="19">
<path d="M0 0H26V19H0V0Z" fill="white"/>
</mask>
<g mask="url(#mask0_145_515)">
<path fill-rule="evenodd" clip-rule="evenodd" d="M0 0V19H26V0H0Z" fill="#4EC7EE"/>
<mask id="mask1_145_515" style="mask-type:alpha" maskUnits="userSpaceOnUse" x="0" y="0" width="26" height="19">
<path fill-rule="evenodd" clip-rule="evenodd" d="M0 0V19H26V0H0Z" fill="white"/>
</mask>
<g mask="url(#mask1_145_515)">
<path d="M3.32315 18.3959C3.27196 18.7679 3.51652 19.0332 3.92684 19.2034C4.47771 19.4329 5.03509 19.2184 5.54696 18.665L4.88315 18.0816C4.65565 18.327 4.49152 18.422 4.36477 18.4204C4.61259 18.2478 4.93109 18.0341 5.31865 17.7807L5.50552 17.5179C5.65421 16.8925 5.18946 16.5544 4.48177 16.5544C4.06334 16.5544 3.73021 16.6352 3.51815 16.8078C3.1704 17.0928 3.22971 17.5456 3.59615 17.7815C3.62459 17.8005 3.65465 17.8179 3.6839 17.833C3.47915 18.0016 3.35321 18.1758 3.32315 18.3959V18.3959Z" fill="#FFE402"/>
<path d="M3.70905 17.8085C3.70905 17.8085 3.81061 17.59 3.75942 17.476" stroke="#FFE402" stroke-width="1.1"/>
<path d="M6.96313 18.3959C7.01432 18.7679 6.76976 19.0332 6.35944 19.2034C5.80694 19.4329 5.25119 19.2184 4.73932 18.665L5.40232 18.0816C5.62982 18.327 5.79394 18.422 5.92151 18.4204C5.60635 18.2029 5.28809 17.9896 4.96682 17.7807L4.78076 17.5179C4.63126 16.8925 5.09601 16.5544 5.80451 16.5544C6.22213 16.5544 6.55607 16.6352 6.76732 16.8078C7.11588 17.0928 7.05576 17.5456 6.69013 17.7815C6.66135 17.8003 6.63151 17.8175 6.60076 17.833C6.80713 18.0016 6.93226 18.1758 6.96232 18.3959H6.96313Z" fill="#FFE402"/>
<path d="M6.98427 17.6304L6.16934 17.9882C6.05559 17.7412 6.02065 17.5164 6.11571 17.3026L6.93634 17.6494C6.96396 17.5868 6.96315 17.5844 6.98427 17.6296V17.6304ZM3.32315 0.603983C3.27196 0.2319 3.51652 -0.0333086 3.92684 -0.203517C4.47771 -0.4331 5.03509 -0.218559 5.54696 0.334816L4.88315 0.918275C4.65565 0.672858 4.49152 0.577858 4.36477 0.579441C4.61259 0.752025 4.93109 0.965775 5.31865 1.21911L5.50552 1.48194C5.65421 2.10736 5.18946 2.4454 4.48177 2.4454C4.06334 2.4454 3.73021 2.36465 3.51815 2.19207C3.1704 1.90707 3.22971 1.45344 3.59615 1.21832C3.62459 1.19932 3.65465 1.1819 3.6839 1.16686C3.47915 0.998233 3.35321 0.824066 3.32315 0.603983V0.603983Z" fill="#FFE402"/>
<path d="M6.96313 0.603983C7.01432 0.2319 6.76976 -0.0333085 6.35944 -0.203517C5.80694 -0.4331 5.25119 -0.218559 4.73932 0.334816L5.40232 0.918275C5.62982 0.672858 5.79394 0.577858 5.92151 0.579441C5.67288 0.752025 5.35438 0.965775 4.96682 1.21911L4.78076 1.48194C4.63126 2.10736 5.09601 2.4454 5.80451 2.4454C6.22213 2.4454 6.55607 2.36465 6.76732 2.19207C7.11588 1.90707 7.05576 1.45344 6.69013 1.21832C6.66133 1.19958 6.63149 1.1824 6.60076 1.16686C6.80713 0.998233 6.93226 0.824066 6.96232 0.603983H6.96313Z" fill="#FFE402"/>
<path fill-rule="evenodd" clip-rule="evenodd" d="M4.13888 15.8831C3.62619 15.8974 3.30688 16.0003 3.30688 16.4824C3.30688 17.0128 3.83663 17.1791 4.39969 17.1791C4.90994 17.1791 5.48519 16.8703 5.48519 16.3177C5.48519 15.9821 5.04644 15.3036 3.94144 13.8327C3.90326 13.7979 3.88213 13.7804 3.86507 13.7804C3.97025 13.7267 4.08757 13.6995 4.20632 13.7013C4.25994 13.7013 4.32982 13.7282 4.39969 13.7622V14.3386H5.56969V13.9032C5.56969 13.4115 4.82301 12.8304 4.20551 12.8304C3.66682 12.8304 3.23457 13.0806 3.01519 13.44C2.79826 13.7947 2.96401 14.1359 3.27519 14.4067C3.63698 14.8901 3.98646 15.3821 4.32332 15.8823C4.26184 15.8813 4.20035 15.8816 4.13888 15.8831V15.8831ZM4.19332 16.2845C4.17777 16.2812 4.16233 16.2775 4.14701 16.2734C4.15838 16.2845 4.20063 16.3336 4.20063 16.4824C4.20063 16.5632 4.19657 16.6194 4.19169 16.6597C4.11654 16.5948 4.06711 16.5063 4.05197 16.4095C4.03683 16.3128 4.05694 16.2139 4.10882 16.1301L4.11126 16.1254L4.09501 16.0937L4.10151 16.0897C4.12751 16.0771 4.14863 16.066 4.11126 16.1254L4.19332 16.2845V16.2845ZM4.14701 16.2734L4.13157 16.2687L4.13807 16.2718L4.14701 16.2734ZM4.59144 16.3177C4.59144 16.3035 4.58576 16.294 4.57682 16.2892L4.58251 16.2948C4.5865 16.3022 4.58925 16.3102 4.59063 16.3185L4.59144 16.3177Z" fill="#FFE402"/>
<path fill-rule="evenodd" clip-rule="evenodd" d="M6.14738 15.8831C6.65926 15.8974 6.97857 16.0003 6.97857 16.4824C6.97857 17.0128 6.44963 17.1791 5.88576 17.1791C5.37551 17.1791 4.80107 16.8703 4.80107 16.3177C4.80107 15.9821 5.23982 15.3036 6.34482 13.8327C6.3822 13.7979 6.40332 13.7804 6.42038 13.7804C6.31521 13.7267 6.19789 13.6995 6.07913 13.7013C6.01098 13.7081 5.94508 13.7288 5.88576 13.7622V14.3386H4.71576V13.9032C4.71576 13.4115 5.46326 12.8304 6.07995 12.8304C6.61863 12.8304 7.0517 13.0806 7.27107 13.44C7.4872 13.7947 7.32145 14.1359 7.01107 14.4067C6.64929 14.8901 6.2998 15.3821 5.96295 15.8823C6.04582 15.8815 6.09132 15.8815 6.14738 15.8831V15.8831ZM6.09213 16.2845L6.13845 16.2734C6.12788 16.2845 6.08482 16.3336 6.08482 16.4824C6.08482 16.5632 6.08888 16.6194 6.09457 16.6597C6.16959 16.5947 6.21887 16.5061 6.23386 16.4094C6.24885 16.3126 6.22861 16.2138 6.17663 16.1301L6.1742 16.1254L6.19045 16.0937L6.18395 16.0897C6.15795 16.0771 6.13682 16.066 6.1742 16.1254L6.09213 16.2845V16.2845ZM6.13845 16.2734L6.1547 16.2687C6.15211 16.2693 6.14965 16.2704 6.14738 16.2718L6.13845 16.2734V16.2734ZM5.69482 16.3177C5.69482 16.3035 5.6997 16.294 5.70863 16.2892L5.70376 16.2948C5.69948 16.3022 5.69646 16.3102 5.69482 16.3185V16.3177Z" fill="#FFE402"/>
<path fill-rule="evenodd" clip-rule="evenodd" d="M4.13888 10.5727C3.62619 10.5584 3.30688 10.4547 3.30688 9.9734C3.30688 9.44298 3.83663 9.27673 4.39969 9.27673C4.90994 9.27673 5.48519 9.58548 5.48519 10.1373C5.48519 10.4737 5.04644 11.1522 3.94144 12.6231C3.90326 12.6579 3.88213 12.6754 3.86507 12.6754C3.93251 12.7118 4.05032 12.7545 4.20632 12.7545C4.27447 12.7477 4.34038 12.727 4.39969 12.6936V12.1164H5.56969V12.5519C5.56969 13.0443 4.82301 13.6254 4.20551 13.6254C3.66682 13.6254 3.23457 13.3752 3.01519 13.0158C2.79826 12.6611 2.96401 12.3191 3.27519 12.0484C3.63697 11.5652 3.98645 11.0734 4.32332 10.5735L4.13888 10.5727V10.5727ZM4.19332 10.1705C4.17776 10.174 4.16232 10.178 4.14701 10.1824C4.15838 10.1713 4.20063 10.1214 4.20063 9.9734C4.2015 9.91416 4.19852 9.85493 4.19169 9.79607C4.11654 9.861 4.06711 9.94953 4.05197 10.0463C4.03683 10.143 4.05694 10.2419 4.10882 10.3257L4.11126 10.3296L4.09501 10.3621L4.10151 10.3661C4.12751 10.3787 4.14863 10.3898 4.11126 10.3296L4.19332 10.1713V10.1705ZM4.14701 10.1824L4.13157 10.1871C4.13385 10.1863 4.13603 10.1853 4.13807 10.184L4.14701 10.1824ZM4.59144 10.1373C4.59144 10.1531 4.58576 10.161 4.57682 10.1658L4.58251 10.1602C4.58641 10.153 4.58915 10.1453 4.59063 10.1373H4.59144Z" fill="#FFE402"/>
<path fill-rule="evenodd" clip-rule="evenodd" d="M6.14738 10.5727C6.65926 10.5584 6.97857 10.4547 6.97857 9.9734C6.97857 9.44298 6.44963 9.27673 5.88576 9.27673C5.37551 9.27673 4.80107 9.58548 4.80107 10.1373C4.80107 10.4737 5.23982 11.1522 6.34482 12.6231C6.3822 12.6579 6.40332 12.6754 6.42038 12.6754C6.31521 12.7291 6.19789 12.7563 6.07913 12.7545C6.01098 12.7477 5.94508 12.727 5.88576 12.6936V12.1164H4.71576V12.5519C4.71576 13.0443 5.46326 13.6254 6.07995 13.6254C6.61863 13.6254 7.0517 13.3752 7.27107 13.0158C7.4872 12.6611 7.32145 12.3191 7.01107 12.0484C6.6493 11.5652 6.29982 11.0734 5.96295 10.5735L6.14738 10.5727V10.5727ZM6.09213 10.1705L6.13845 10.1824C6.12788 10.1713 6.08482 10.1214 6.08482 9.9734C6.08482 9.89265 6.08888 9.83565 6.09457 9.79607C6.16945 9.86119 6.21864 9.94976 6.23362 10.0465C6.24861 10.1432 6.22845 10.2419 6.17663 10.3257L6.1742 10.3296L6.19045 10.3621L6.18395 10.3661C6.15795 10.3787 6.13682 10.3898 6.1742 10.3296L6.09213 10.1713V10.1705ZM6.13845 10.1824L6.1547 10.1871C6.15213 10.1864 6.14967 10.1853 6.14738 10.184L6.13845 10.1824V10.1824ZM5.69482 10.1373C5.69482 10.1531 5.6997 10.161 5.70863 10.1658L5.70376 10.1602C5.69957 10.1531 5.69656 10.1453 5.69482 10.1373V10.1373Z" fill="#FFE402"/>
<path fill-rule="evenodd" clip-rule="evenodd" d="M4.13888 8.42718C3.62619 8.44143 3.30688 8.54514 3.30688 9.02647C3.30688 9.55689 3.83663 9.72314 4.39969 9.72314C4.90994 9.72314 5.48519 9.41439 5.48519 8.86259C5.48519 8.52614 5.04644 7.84768 3.94144 6.37676C3.90326 6.34193 3.88213 6.32451 3.86507 6.32451C3.97025 6.27076 4.08757 6.24355 4.20632 6.24534C4.25994 6.24534 4.32982 6.27226 4.39969 6.3063V6.88343H5.56969V6.44801C5.56969 5.9556 4.82301 5.37451 4.20551 5.37451C3.66682 5.37451 3.23457 5.62468 3.01519 5.98409C2.79826 6.33876 2.96401 6.68076 3.27519 6.95151C3.73832 7.57297 4.09744 8.08834 4.32332 8.42639L4.13888 8.42718V8.42718ZM4.19332 8.82934C4.17776 8.82584 4.16232 8.82188 4.14701 8.81747C4.15838 8.82855 4.20063 8.87843 4.20063 9.02647C4.20063 9.10722 4.19657 9.16422 4.19169 9.2038C4.11654 9.13887 4.06711 9.05034 4.05197 8.95359C4.03683 8.85684 4.05694 8.75798 4.10882 8.67418L4.11126 8.67022L4.09501 8.63776L4.10151 8.6338C4.12751 8.62114 4.14863 8.61005 4.11126 8.67022L4.19332 8.82855V8.82934ZM4.14701 8.81747L4.13157 8.81272L4.13807 8.81589L4.14701 8.81747ZM4.59144 8.86259C4.59144 8.84676 4.58576 8.83884 4.57682 8.83409L4.58251 8.83964C4.58641 8.84684 4.58915 8.85458 4.59063 8.86259H4.59144Z" fill="#FFE402"/>
<path fill-rule="evenodd" clip-rule="evenodd" d="M6.14738 8.42718C6.65926 8.44143 6.97857 8.54514 6.97857 9.02647C6.97857 9.55689 6.44963 9.72314 5.88576 9.72314C5.37551 9.72314 4.80107 9.41439 4.80107 8.86259C4.80107 8.52614 5.23982 7.84768 6.34482 6.37676C6.3822 6.34193 6.40332 6.32451 6.42038 6.32451C6.31521 6.27076 6.19789 6.24355 6.07913 6.24534C6.01098 6.25213 5.94508 6.27291 5.88576 6.3063V6.88343H4.71576V6.44801C4.71576 5.9556 5.46326 5.37451 6.07995 5.37451C6.61863 5.37451 7.0517 5.62468 7.27107 5.98409C7.4872 6.33876 7.32145 6.68076 7.01107 6.95151C6.6493 7.43466 6.29982 7.92644 5.96295 8.42639L6.14738 8.42718V8.42718ZM6.09213 8.82934L6.13845 8.81747C6.12788 8.82855 6.08482 8.87843 6.08482 9.02647C6.08482 9.10722 6.08888 9.16422 6.09457 9.2038C6.16959 9.13877 6.21887 9.05019 6.23386 8.95344C6.24885 8.8567 6.22861 8.75789 6.17663 8.67418L6.1742 8.67022L6.19045 8.63776L6.18395 8.6338C6.15795 8.62114 6.13682 8.61005 6.1742 8.67022L6.09213 8.82855V8.82934ZM6.13845 8.81747L6.1547 8.81272C6.15213 8.81347 6.14967 8.81453 6.14738 8.81589L6.13845 8.81747V8.81747ZM5.69482 8.86259C5.69482 8.84676 5.6997 8.83884 5.70863 8.83409L5.70376 8.83964C5.69957 8.84679 5.69656 8.85454 5.69482 8.86259V8.86259Z" fill="#FFE402"/>
<path fill-rule="evenodd" clip-rule="evenodd" d="M4.13888 3.11676C3.62619 3.10251 3.30688 2.99959 3.30688 2.51747C3.30688 1.98705 3.83663 1.8208 4.39969 1.8208C4.90994 1.8208 5.48519 2.12955 5.48519 2.68213C5.48519 3.0178 5.04644 3.69626 3.94144 5.16718C3.90326 5.20201 3.88213 5.21943 3.86507 5.21943C3.93251 5.25584 4.05032 5.29859 4.20632 5.29859C4.27447 5.29181 4.34038 5.27103 4.39969 5.23763V4.6613H5.56969V5.09672C5.56969 5.58834 4.82301 6.16943 4.20551 6.16943C3.66682 6.16943 3.23457 5.91926 3.01519 5.55984C2.79826 5.20518 2.96401 4.86397 3.27519 4.59322C3.63698 4.10981 3.98646 3.61777 4.32332 3.11755C4.26184 3.11855 4.20035 3.11829 4.13888 3.11676V3.11676ZM4.19332 2.71538C4.17776 2.7186 4.16232 2.7223 4.14701 2.72647C4.15838 2.71538 4.20063 2.6663 4.20063 2.51747C4.2015 2.45823 4.19852 2.399 4.19169 2.34013C4.11654 2.40507 4.06711 2.4936 4.05197 2.59035C4.03683 2.68709 4.05694 2.78595 4.10882 2.86976L4.11126 2.87451L4.09501 2.90618L4.10151 2.91013C4.12751 2.9228 4.14863 2.93388 4.11126 2.87451L4.19332 2.71538V2.71538ZM4.14701 2.72647L4.13157 2.73122C4.13386 2.73044 4.13605 2.72937 4.13807 2.72805L4.14701 2.72647ZM4.59144 2.68213C4.59144 2.69638 4.58576 2.70588 4.57682 2.71063L4.58251 2.70509C4.58652 2.69766 4.58926 2.68964 4.59063 2.68134L4.59144 2.68213Z" fill="#FFE402"/>
<path fill-rule="evenodd" clip-rule="evenodd" d="M6.14738 3.11676C6.65926 3.10251 6.97857 2.99959 6.97857 2.51747C6.97857 1.98705 6.44963 1.8208 5.88576 1.8208C5.37551 1.8208 4.80107 2.12955 4.80107 2.68213C4.80107 3.0178 5.23982 3.69626 6.34482 5.16718C6.3822 5.20201 6.40332 5.21943 6.42038 5.21943C6.31521 5.27317 6.19789 5.30039 6.07913 5.29859C6.01098 5.29181 5.94508 5.27103 5.88576 5.23763V4.6613H4.71576V5.09672C4.71576 5.58834 5.46326 6.16943 6.07995 6.16943C6.61863 6.16943 7.0517 5.91926 7.27107 5.55984C7.4872 5.20518 7.32145 4.86397 7.01107 4.59322C6.64928 4.10981 6.2998 3.61777 5.96295 3.11755C6.04582 3.11834 6.09132 3.11834 6.14738 3.11676V3.11676ZM6.09213 2.71538L6.13845 2.72647C6.12788 2.71538 6.08482 2.6663 6.08482 2.51747C6.08482 2.43672 6.08888 2.38051 6.09457 2.34013C6.16946 2.40526 6.21864 2.49382 6.23362 2.59053C6.24861 2.68723 6.22845 2.786 6.17663 2.86976L6.1742 2.87451L6.19045 2.90618L6.18395 2.91013C6.15795 2.9228 6.13682 2.93388 6.1742 2.87451L6.09213 2.71538V2.71538ZM6.13845 2.72647L6.1547 2.73122C6.15212 2.7305 6.14966 2.72944 6.14738 2.72805L6.13845 2.72647V2.72647ZM5.69482 2.68213C5.69482 2.69638 5.6997 2.70588 5.70863 2.71063L5.70376 2.70509C5.69947 2.69771 5.69645 2.68968 5.69482 2.68134V2.68213ZM15.4269 2.20476L15.7601 3.41443C15.7601 3.41443 15.7633 3.68913 15.4448 3.68913C15.1263 3.68913 15.1101 3.41443 15.1101 3.41443L15.4269 2.20476V2.20476ZM18.2406 6.82413C18.2406 8.39797 17.0081 9.67413 15.4863 9.67413C13.9653 9.67413 12.7319 8.39797 12.7319 6.82413C12.7319 5.2503 13.9653 3.97413 15.4863 3.97413C17.0081 3.97413 18.2406 5.2503 18.2406 6.82413ZM16.7221 3.65747L16.7668 2.40663L16.1005 3.47301C16.1005 3.47301 16.0339 3.74059 16.3386 3.83084C16.6433 3.92188 16.7221 3.65826 16.7221 3.65826V3.65747ZM17.9896 2.9988L17.5711 4.18313C17.5711 4.18313 17.4168 4.41272 17.1527 4.23934C16.8878 4.06518 17.0324 3.82926 17.0324 3.82926L17.9896 2.9988V2.9988ZM18.2301 4.94313L18.9857 3.9298L17.8214 4.45151C17.8214 4.45151 17.6118 4.63597 17.8133 4.87743C18.0131 5.11888 18.2301 4.94313 18.2301 4.94313ZM19.6714 5.12838L18.6314 5.86463C18.6314 5.86463 18.3698 5.96597 18.2561 5.67622C18.1423 5.38647 18.3991 5.27326 18.3991 5.27326L19.6714 5.12838V5.12838ZM18.759 6.87322L19.9737 6.46551L18.7135 6.24226C18.7135 6.24226 18.4332 6.27709 18.4559 6.58663C18.4779 6.89618 18.759 6.87322 18.759 6.87322V6.87322ZM19.8738 7.8343L18.59 7.87784C18.59 7.87784 18.3138 7.82005 18.3861 7.51763C18.4576 7.21522 18.7354 7.26193 18.7354 7.26193L19.8738 7.8343V7.8343ZM18.1399 8.78747L19.3806 9.11205L18.4641 8.23963C18.4641 8.23963 18.2122 8.11613 18.0529 8.38451C18.0293 8.41589 18.0127 8.45177 18.0043 8.48981C17.9959 8.52785 17.9957 8.5672 18.0039 8.60529C18.0121 8.64338 18.0285 8.67936 18.0519 8.71089C18.0753 8.74241 18.1053 8.76878 18.1399 8.78826V8.78747ZM18.538 10.1863L17.4484 9.52293C17.4484 9.52293 17.2534 9.32422 17.4858 9.11284C17.719 8.90068 17.9229 9.09147 17.9229 9.09147L18.538 10.1863V10.1863ZM16.5774 10.0169L17.4208 10.9614L17.1608 9.73905C17.1608 9.73905 17.0227 9.49918 16.7367 9.63534C16.4499 9.77151 16.5774 10.0169 16.5774 10.0169V10.0169ZM16.1265 11.3699L15.6041 10.2259C15.6041 10.2259 15.5553 9.95518 15.8706 9.90688C15.91 9.8973 15.951 9.89539 15.9912 9.90127C16.0314 9.90716 16.0699 9.92071 16.1047 9.94115C16.1395 9.9616 16.1699 9.98854 16.194 10.0204C16.218 10.0523 16.2354 10.0885 16.2451 10.127L16.1265 11.3699V11.3699ZM14.6234 10.127L14.7583 11.3723L15.2653 10.2259C15.2653 10.2259 15.2937 9.95201 14.9793 9.90372C14.6648 9.85463 14.6242 10.127 14.6242 10.127H14.6234ZM13.4631 10.9685L13.7085 9.73905C13.7085 9.73905 13.8288 9.49047 14.1148 9.62663C14.4016 9.7628 14.2919 10.0169 14.2919 10.0169L13.4631 10.9685V10.9685ZM12.9464 9.09147L12.3427 10.1966L13.4209 9.52293C13.4209 9.52293 13.6021 9.31076 13.3689 9.09938C13.1357 8.88722 12.9464 9.09147 12.9464 9.09147V9.09147ZM11.4961 9.12551L12.4053 8.23963C12.4053 8.23963 12.6474 8.09872 12.8066 8.36788C12.9659 8.63705 12.7294 8.78747 12.7294 8.78747L11.4961 9.12551V9.12551ZM12.1339 7.26113L10.9988 7.84855L12.2793 7.87705C12.2793 7.87705 12.5507 7.80026 12.4792 7.49705C12.4077 7.19543 12.1339 7.26113 12.1339 7.26113ZM10.8948 6.48055L12.1558 6.24147C12.1558 6.24147 12.4378 6.2573 12.4158 6.56605C12.3931 6.87638 12.1103 6.87243 12.1103 6.87243L10.8948 6.48055V6.48055ZM12.4711 5.27247L11.1922 5.14184L12.2379 5.86305C12.2379 5.86305 12.506 5.94697 12.6206 5.65722C12.6387 5.62268 12.6493 5.58481 12.6514 5.54605C12.6536 5.5073 12.6474 5.46853 12.6333 5.43226C12.6191 5.39598 12.5973 5.36301 12.5692 5.33549C12.5411 5.30796 12.5074 5.28649 12.4703 5.27247H12.4711ZM11.8739 3.94088L13.0479 4.45072C13.0479 4.45072 13.2698 4.62013 13.0691 4.86159C12.8684 5.10305 12.6393 4.94234 12.6393 4.94234L11.8739 3.94088V3.94088ZM13.8369 3.82847L12.8668 3.0083L13.2982 4.18393C13.2982 4.18393 13.4688 4.40322 13.7337 4.22905C13.9978 4.05568 13.8369 3.83005 13.8369 3.83005V3.82847ZM14.0871 2.41059L14.768 3.47143C14.768 3.47143 14.8541 3.73347 14.5494 3.82451C14.2448 3.91555 14.1473 3.65747 14.1473 3.65747L14.0871 2.41059V2.41059Z" fill="#FFE402"/>
<path fill-rule="evenodd" clip-rule="evenodd" d="M9.92876 8.44862C9.91813 8.40813 9.90811 8.36749 9.8987 8.32671L9.95558 8.43833L9.92957 8.44862H9.92876ZM10.0076 8.70987C9.97924 8.62347 9.95324 8.53635 9.92957 8.44862L9.58101 8.584L9.63301 8.70987H9.59564L9.58101 8.717C9.56067 8.62007 9.55006 8.52143 9.54933 8.4225V7.64112L9.8987 8.32671C9.85755 8.1615 9.8352 7.99239 9.83208 7.82242V6.84867L10.2367 7.83587L9.8532 7.95304L10.0035 8.4225H9.9962L9.95558 8.43833L10.0994 8.71937L10.2375 9.14925C10.1075 8.91808 10.0425 8.7645 10.0425 8.70987H10.0076V8.70987ZM10.452 9.80792C10.2586 9.38992 10.1108 9.02496 10.0076 8.70987H9.63301L10.0133 9.6385L9.8727 9.49204C9.74031 9.24722 9.64195 8.98632 9.5802 8.71621L9.27145 8.86662L9.2097 8.80329V8.89671L9.19508 8.90383L9.2097 8.93154V9.03762C9.17223 8.93207 9.15167 8.82153 9.14876 8.70987V6.85421L9.54933 7.64112V6.15754L9.83208 6.84867V4.974L10.9623 8.49137L10.8826 8.51671C10.7778 8.21192 10.7258 7.97837 10.7258 7.82242H10.279L10.2367 7.83587L10.5585 8.61962L10.4813 8.64417C10.4584 8.57228 10.4456 8.49772 10.4431 8.4225H10.0043L10.0994 8.71937L10.5983 9.69787L10.5771 9.70579C10.4366 9.49046 10.3228 9.30204 10.2375 9.14925L10.4325 9.75883L10.5771 9.70579L10.5975 9.73667L10.452 9.80792V9.80792ZM10.6064 9.75092L10.452 9.80792L10.2643 9.89975L10.0133 9.6385L10.1327 9.92983C10.1234 9.92228 10.1145 9.91436 10.1059 9.90608C10.0231 9.77082 9.94535 9.63271 9.8727 9.49204L9.27145 8.86662L9.2097 8.89671V8.93154L9.70532 9.90371H9.65658L9.65251 9.90687C9.43233 9.55221 9.28526 9.268 9.20889 9.03762V9.67333L7.43439 8.4415L9.69476 11.0627C10.4163 11.8996 11.329 12.56 12.3598 12.9912L10.3131 12.9492L12.3939 13.5216L11.3173 14.2935L13.1763 13.737L13.6833 13.8763C14.3658 14.0639 14.7453 14.2515 14.7705 14.3093L14.8663 14.5294L15.1085 14.569C15.6398 14.6553 16.6197 14.5215 17.8823 14.2484C18.282 14.1623 18.6796 14.0678 19.0751 13.965C19.1792 13.9382 19.2827 13.9092 19.3855 13.8779C19.4115 13.87 19.4115 13.87 19.4431 13.8573C19.4643 13.8494 19.4643 13.8494 19.5122 13.824C19.5528 13.8185 19.5829 13.8145 19.6032 13.7987C19.6585 13.7544 19.6381 13.619 19.5618 13.11C19.2091 13.0181 19.1604 13.0055 19.1474 13.0213C19.1452 13.0242 19.1436 13.0274 19.1425 13.0308C19.0215 13.0545 18.8338 13.0522 18.5819 13.0205C20.683 12.0143 22.0635 11.0057 22.7248 9.96783L23.9338 8.06942L23.201 8.59033L23.465 7.76383L22.421 8.41696C22.5471 8.25744 22.652 8.08292 22.733 7.89762L23.5195 6.04512L22.278 7.17404L22.9515 5.01121L21.3541 7.09646L14.8135 11.7863L14.712 11.7633C13.1016 11.3992 11.9714 10.2908 11.2986 8.38529L10.9623 8.49137L10.9671 8.50483L10.8875 8.53017L10.8835 8.51671L10.5585 8.61962L10.5641 8.63308L10.4845 8.65842L10.4805 8.64417L10.448 8.65446C10.5568 8.99883 10.6755 9.32104 10.8046 9.62187L10.5983 9.69787L10.6137 9.72875L10.5975 9.73667L10.6072 9.75092H10.6064ZM10.6226 9.74537L10.6064 9.75092L10.6389 9.79842L10.3188 9.95596L10.2643 9.89896L10.1587 9.95042C10.1499 9.94371 10.1412 9.93684 10.1327 9.92983L10.1441 9.95833L10.1595 9.95042C10.1774 9.96387 10.2009 9.9805 10.2302 9.99871L10.1782 10.024L10.1051 9.90687L10.1035 9.90371H9.70532L9.7947 10.0802L9.7362 10.0399L9.65251 9.90687L9.6062 9.94962L9.20889 9.67333V9.90371C9.20889 10.3154 9.50708 10.6273 10.0181 10.8838L9.77764 11.1371L12.4516 12.9936L12.3606 12.9912C12.4483 13.0284 12.5369 13.0648 12.6263 13.0989L12.8586 13.1883L12.3939 13.5208L13.1763 13.737L13.8003 13.5501L16.0217 14.402L15.3051 13.9048C15.3928 13.9048 15.4773 13.9032 15.5602 13.9016C15.5234 13.8372 15.4784 13.7776 15.4261 13.7243C15.369 13.7233 15.312 13.7186 15.2555 13.71L15.2311 13.8533L14.4828 13.334C14.7688 13.2374 15.0475 13.1369 15.3173 13.0316C16.4255 13.0197 17.0893 12.9619 17.1885 12.8907L17.3591 12.7672L17.5655 12.8186C17.7645 12.8685 17.9473 12.9097 18.1139 12.9429L18.2553 13.1749C18.3666 13.1234 18.4746 13.072 18.5819 13.0205C18.5548 13.0173 18.5277 13.0139 18.5006 13.0102L22.6086 10.0897L22.2641 9.77942C22.6996 9.56092 22.9832 9.27433 23.101 8.90621L23.201 8.59033L22.759 8.90542L22.6736 8.77637L22.2471 8.64733C22.2073 8.77083 22.0789 8.89433 21.8514 9.00833C22.0797 8.80962 22.2698 8.6125 22.421 8.41775L21.7758 8.8215L22.6249 8.04962L22.0951 7.69179C22.1415 7.59046 22.1796 7.48992 22.2105 7.39096L22.278 7.17404L21.979 7.44558L21.5345 7.22629L21.7401 6.82017L21.3541 7.09725L20.4401 8.29029L20.1281 8.03696C19.2936 9.68758 17.7905 10.9978 15.6049 11.9652L14.8135 11.7863L14.5876 11.9486L14.6104 11.7522C13.1203 11.7522 12.0218 10.6756 11.3027 8.39875L10.9671 8.50483L11.2856 9.49996L10.9663 9.61871L10.9468 9.56962L11.2661 9.45087C11.1247 9.15031 10.998 8.84332 10.8867 8.53096L10.5633 8.63387L10.946 9.56962L10.9192 9.57992L10.9395 9.56962C10.7015 9.192 10.552 8.88404 10.4845 8.65921L10.452 8.66871C10.5698 9.00121 10.7006 9.31392 10.8453 9.60683L10.8038 9.62267L10.8087 9.63375L10.6129 9.72875L10.621 9.74617L10.6226 9.74537ZM10.8258 9.67017L10.6226 9.74537L10.647 9.79525L10.6389 9.79921L10.6698 9.84512L10.3716 10.0114L10.3188 9.95596L10.2294 9.99871C10.2555 10.0152 10.2821 10.031 10.309 10.0462L9.9962 10.2204L9.7947 10.0802L9.89545 10.2766L9.9962 10.2204L10.0433 10.2528L9.92145 10.3209C9.8587 10.2279 9.79695 10.1342 9.7362 10.0399L9.6062 9.94962L9.32995 10.2014L9.90358 10.7975L10.2294 10.4998L10.2749 10.4127L11.7317 11.4245L12.2696 11.9842C11.5458 11.616 10.9034 11.1127 10.3789 10.503L10.0181 10.883L10.0263 10.8877L12.3061 12.0214L12.2696 11.9842C12.489 12.0966 12.7165 12.198 12.9537 12.289L12.5605 12.996L12.4516 12.9936L12.5312 13.049L12.5605 12.996L13.1113 13.007L12.8586 13.1883L13.8011 13.5501L13.8336 13.5398C14.0546 13.4741 14.2708 13.4052 14.4828 13.334L14.3203 13.2216L14.5836 13.0324C14.846 13.034 15.0906 13.034 15.3173 13.0316C15.6471 12.9025 15.9648 12.7664 16.2703 12.6231H17.9181L18.1131 12.9429L18.2236 12.9643L18.3268 13.1329L18.5006 13.0102C18.408 12.9968 18.3156 12.9815 18.2236 12.9643L18.0156 12.6231H18.5169L17.9351 12.4917L17.8718 12.3887C19.6008 11.5884 20.8228 10.8022 21.5378 10.047C21.814 9.97258 22.0561 9.88312 22.265 9.77942L22.1155 9.64404L22.9158 9.14292L22.7581 8.90542L21.4094 9.86333L21.2412 9.48017C21.4687 9.32183 21.6718 9.1635 21.8514 9.00833C21.7238 9.07167 21.5654 9.13183 21.3736 9.18725L21.7758 8.8215L20.553 9.58704C21.3151 8.90146 21.8311 8.27446 22.0951 7.69179L22.0415 7.65537L22.1406 7.52554L21.979 7.44637L20.9511 8.38054L21.5345 7.22629L21.3558 7.13921C21.2461 7.48992 20.9739 7.90317 20.5384 8.37025L20.4401 8.29029L19.8884 9.00992L20.0265 9.13025L15.96 12.0452L15.6049 11.9652C15.2653 12.1156 14.9086 12.2581 14.5356 12.3911L14.5876 11.9478L13.9035 12.4386C12.5921 11.9818 11.583 11.0556 10.8835 9.67967L10.9745 9.63533L10.9671 9.61712L10.8696 9.65354L10.8501 9.61396L10.92 9.57912L10.8469 9.60604L10.8501 9.61396L10.8095 9.63296L10.8258 9.67017V9.67017ZM10.8388 9.70183L10.647 9.79446L10.6958 9.88946L10.409 10.0494L10.3716 10.0114L10.3082 10.0462L10.3618 10.0755L10.0433 10.2528L10.2749 10.4135L10.4325 10.1127C10.4087 10.1007 10.3852 10.0883 10.3618 10.0755L10.409 10.0494L11.7317 11.4245L13.5541 12.6896L13.1113 13.007L13.7329 13.0197L13.9677 13.4741L14.3203 13.2208L14.0384 13.026C14.2277 13.0292 14.4097 13.0316 14.5836 13.0324L15.1548 12.6231H16.2703C16.51 12.5107 16.7424 12.3935 16.9666 12.2732L17.8222 12.4663L17.9181 12.6231H18.0156L17.9343 12.4917L17.8222 12.4663L17.8003 12.4299L20.9528 10.1887L21.3501 10.0945C21.4143 10.0795 21.4768 10.0636 21.5378 10.047C21.5685 10.0148 21.5985 9.98212 21.628 9.94883L22.1155 9.64404L21.9651 9.50867C21.8725 9.65433 21.7604 9.80158 21.628 9.94883L21.4858 10.0383L21.4094 9.86412L20.9528 10.1887L19.3343 10.5719C19.5155 10.3961 19.6869 10.2148 19.8486 10.028L20.367 9.70342L20.5433 9.92983C20.7968 9.77862 21.0291 9.629 21.2412 9.48017L21.1868 9.35667L21.3736 9.18725C21.3005 9.20862 21.2217 9.22921 21.1388 9.24821L21.1868 9.35667L20.614 9.87758L20.4417 9.65592L20.549 9.58942L20.553 9.58704L20.549 9.58942L20.3377 9.40417L20.3848 9.33687L20.6042 9.53083L22.0415 7.65537L21.9066 7.56512C21.762 7.90712 21.3785 8.30692 20.7553 8.74787C20.8163 8.64021 20.874 8.53175 20.93 8.42092L20.9511 8.38054L20.761 8.55233L20.5384 8.37025C20.3661 8.5555 20.1679 8.74867 19.9436 8.94975L20.094 9.08196L20.0257 9.12946L20.0769 9.17458L20.0046 9.24029L20.2394 9.54112C20.1159 9.70737 19.9859 9.86967 19.8486 10.028L18.7663 10.7057L19.3343 10.5711C18.6745 11.2107 17.8848 11.7776 16.9666 12.2732L15.96 12.0452L15.1556 12.6231H14.6112C14.4 12.6231 14.1952 12.6072 13.9969 12.5756L14.1603 12.521C14.274 12.555 14.391 12.5843 14.5096 12.612L14.5356 12.3911C14.4121 12.4355 14.287 12.4782 14.1603 12.521C14.074 12.4956 13.9884 12.4682 13.9035 12.4386L13.7735 12.532C12.5158 12.2455 11.5359 11.2875 10.8388 9.70104V9.70183ZM10.8388 9.70183L10.8835 9.67967L10.8696 9.65354L10.825 9.66937L10.8388 9.70104V9.70183ZM13.5769 12.7054L13.5541 12.6896L13.7735 12.5312C13.8466 12.5487 13.9214 12.5629 13.9969 12.5748C13.8588 12.6199 13.7191 12.6635 13.5777 12.7054H13.5769ZM20.293 9.46671L20.3377 9.40417L20.0858 9.1825L20.1581 9.13817L20.3848 9.33687C20.5173 9.14608 20.6408 8.94896 20.7553 8.74787C20.5766 8.87454 20.3767 9.00517 20.1581 9.13817L20.137 9.11996L20.4994 8.79142L20.7943 8.57925L20.7618 8.55233L20.4994 8.79142L20.0931 9.08196L20.137 9.11996L20.0769 9.17537L20.085 9.18171L20.0753 9.18804L20.293 9.46671V9.46671ZM20.293 9.46671L20.4417 9.65671L20.367 9.70421L20.2394 9.54112L20.293 9.46671V9.46671ZM13.5777 12.7054L14.0384 13.026L13.8141 13.0213L13.7329 13.0197L13.5712 12.7078L13.5777 12.7054V12.7054ZM15.2311 13.8533L15.2222 13.9056H15.3051L15.2311 13.8533ZM17.7206 13.5897L17.5906 13.4195L17.3965 13.4591L17.3436 13.6617L17.498 13.6997C17.5773 13.6738 17.6523 13.6367 17.7206 13.5897V13.5897Z" fill="#FFE402"/>
</g>
</g>
</svg>
