<svg width="26" height="19" viewBox="0 0 26 19" fill="none" xmlns="http://www.w3.org/2000/svg">
<mask id="mask0_149_612" style="mask-type:alpha" maskUnits="userSpaceOnUse" x="0" y="0" width="26" height="19">
<path d="M0 0H26V19H0V0Z" fill="white"/>
</mask>
<g mask="url(#mask0_149_612)">
<path fill-rule="evenodd" clip-rule="evenodd" d="M17.875 0H26V19H17.875V0Z" fill="#D9071E"/>
<path fill-rule="evenodd" clip-rule="evenodd" d="M0 0H9.75V19H0V0Z" fill="#006923"/>
<path fill-rule="evenodd" clip-rule="evenodd" d="M8.125 0H17.875V19H8.125V0Z" fill="white"/>
<path fill-rule="evenodd" clip-rule="evenodd" d="M10.608 6.60408C10.521 6.96429 10.5771 7.049 10.9947 7.049C11.0167 7.049 11.0516 7.10917 11.0882 7.17408C11.1288 7.24533 11.1743 7.32292 11.21 7.33479C11.1946 7.35458 11.0362 7.63404 11.0354 8.12646C11.0354 8.22779 11.0833 8.39563 11.1296 8.55554C11.1808 8.72971 11.2287 8.89675 11.21 8.96246C11.1792 9.07013 11.041 8.95296 10.9338 8.86271C10.8729 8.81046 10.8217 8.76771 10.807 8.77958C10.7307 8.84292 10.6909 8.34654 10.6673 8.04729C10.6567 7.9135 10.6494 7.81929 10.6429 7.83038C10.6178 7.76706 10.6014 7.70077 10.5942 7.63325C10.5714 7.48204 10.5487 7.33479 10.365 7.33479H9.8938V7.67283C9.8938 7.67283 10.1668 7.67283 10.1668 8.30221C10.1709 8.39563 10.2984 9.22292 10.608 9.22767C10.4268 9.23163 10.4276 9.26725 10.4292 9.28704V9.291C10.4292 9.79767 10.8631 9.8515 11.2685 9.709C11.5123 9.62271 11.7707 9.45567 11.9649 9.24904C12.2379 8.95692 12.272 8.58008 11.9129 8.37267C11.7853 8.29904 11.6464 8.27054 11.4522 8.26025C11.4904 8.14942 11.4546 8.05046 11.4262 7.97288C11.4018 7.90796 11.3839 7.85888 11.4197 7.83038C11.8267 7.50896 11.8633 7.21288 11.5667 6.94688C11.5253 6.90697 11.4872 6.86381 11.453 6.81783C11.3815 6.72679 11.3051 6.631 11.2092 6.60408C11.2539 6.517 11.3132 6.4125 11.388 6.29138L10.6917 5.88367C10.5649 6.08871 10.586 6.24863 10.6047 6.38875C10.6145 6.46554 10.6242 6.536 10.608 6.60408V6.60408ZM11.3652 8.71467L11.3522 8.72813L11.3604 8.72021C11.3618 8.71821 11.3634 8.71636 11.3652 8.71467V8.71467ZM10.9964 8.96246H10.998L11.0061 8.96088L10.998 8.96246H10.9964ZM10.6429 9.22688C10.6337 9.22679 10.6245 9.22679 10.6153 9.22688H10.6429Z" fill="#A8AC71"/>
<path fill-rule="evenodd" clip-rule="evenodd" d="M11.687 6.26447C11.687 6.26447 11.1288 6.68642 11.2336 7.1353C11.3376 7.58576 12.4378 7.1353 12.3045 6.69988C12.1713 6.26447 11.687 6.26447 11.687 6.26447V6.26447Z" fill="#FCCA3D"/>
<path fill-rule="evenodd" clip-rule="evenodd" d="M15.6536 9.81905C15.6536 9.81905 16.4052 7.64909 15.2108 6.52571C14.0165 5.40155 12.6352 5.47676 12.6352 5.47676C12.6352 5.47676 12.2379 5.76492 12.6352 5.98421C13.0333 6.20351 12.8668 6.41409 12.8668 6.41409C12.8668 6.41409 12.2005 5.75542 11.7585 6.14017C11.3173 6.52571 12.1713 6.46713 12.0811 6.75688C11.9909 7.04663 11.6074 8.3323 12.1672 8.98226C12.7278 9.63142 11.6375 9.4913 11.8593 9.4913C12.0811 9.4913 12.8668 9.64171 12.8668 9.4913C12.8668 9.3393 13.1398 10.0787 13.3738 10.0787C13.607 10.0787 13.7881 9.81905 13.7881 9.81905C13.7881 9.81905 14.1156 10.0787 14.3155 10.0787C14.5145 10.0787 15.2108 9.90851 15.2108 9.90851L13.8946 8.82867C13.8946 8.82867 13.9742 8.35209 13.7881 8.24917C13.6013 8.14626 15.284 9.16276 15.4164 9.4913C15.548 9.81905 15.6536 9.81905 15.6536 9.81905V9.81905Z" fill="#8F4620"/>
<path d="M8.99115 9.2839C8.99115 9.2839 9.11302 8.90469 9.24384 8.87856C9.35759 8.85561 9.59484 9.06065 9.59484 9.06065C10.0173 11.3478 11.0403 12.2416 12.736 12.2416C14.452 12.2416 15.492 11.5623 16.0989 9.45252C16.0989 9.45252 16.4215 9.1311 16.5352 9.16752C16.6587 9.20552 16.8139 9.63065 16.8139 9.63065C16.1176 12.0516 14.8021 13.129 12.7351 13.129C10.6495 13.129 9.47702 11.9099 8.99115 9.2839V9.2839Z" fill="#9FAB2F"/>
<path fill-rule="evenodd" clip-rule="evenodd" d="M10.8339 10.811C10.8339 10.811 13.2755 11.3161 14.2383 11.3161C15.2019 11.3161 13.3933 12.0824 12.6872 12.0824C12.3785 12.0824 12.0063 11.9003 11.5708 11.5346C11.4928 11.4696 11.5684 11.3232 11.3303 11.3208C10.9988 11.3184 10.5869 11.2424 10.6267 11.1965C10.6641 11.153 11.1467 11.1395 11.1004 11.0912C11.0232 11.0121 10.8339 10.811 10.8339 10.811V10.811Z" fill="#2FC2DC"/>
<path d="M13.4062 11.1625H12.0526C11.9777 11.1625 11.9169 11.2217 11.9169 11.2947V11.8781C11.9169 11.9512 11.9777 12.0103 12.0526 12.0103H13.4062C13.4812 12.0103 13.5419 11.9512 13.5419 11.8781V11.2947C13.5419 11.2217 13.4812 11.1625 13.4062 11.1625Z" fill="#F9AA51"/>
<path d="M9.89221 9.60768C9.89221 9.60768 9.89221 9.31081 10.0986 9.15327C10.335 8.97198 10.5576 9.15327 10.5576 9.15327C11.4238 10.355 12.7181 10.7509 14.5283 10.3376C14.5283 10.3376 15.0695 10.5102 15.0971 10.6234C15.1312 10.7675 14.7136 11.1087 14.7136 11.1087C12.597 11.5916 10.9606 11.0913 9.89221 9.60768V9.60768Z" fill="#259485"/>
<path fill-rule="evenodd" clip-rule="evenodd" d="M13.4802 9.77711C13.4802 9.77711 12.4947 10.2838 12.8229 10.2838C13.152 10.2838 14.4382 10.5363 14.1879 10.2838C13.9377 10.0304 13.481 9.77711 13.481 9.77711H13.4802ZM12.3143 9.17386C12.3143 9.17386 12.1274 8.64661 11.7374 8.64661C11.3474 8.64661 11.4571 9.07965 11.2702 9.07965C11.0825 9.07965 11.4449 9.38365 11.6058 9.38365C11.7675 9.38365 12.3143 9.17386 12.3143 9.17386V9.17386Z" fill="#FCCA3D"/>
</g>
</svg>
