<svg width="26" height="19" viewBox="0 0 26 19" fill="none" xmlns="http://www.w3.org/2000/svg">
<g clip-path="url(#clip0_145_575)">
<path fill-rule="evenodd" clip-rule="evenodd" d="M0 0V19H26V0H0Z" fill="#3D58DB"/>
<path d="M0 3.95831H-0.8125V15.0416H26.8125V3.95831H0Z" fill="#C51918" stroke="#F7FCFF" stroke-width="2"/>
<path fill-rule="evenodd" clip-rule="evenodd" d="M8.125 13.4584C9.20244 13.4584 10.2358 13.0413 10.9976 12.299C11.7595 11.5567 12.1875 10.5498 12.1875 9.50002C12.1875 8.4502 11.7595 7.44339 10.9976 6.70106C10.2358 5.95872 9.20244 5.54169 8.125 5.54169C7.04756 5.54169 6.01425 5.95872 5.25238 6.70106C4.49051 7.44339 4.0625 8.4502 4.0625 9.50002C4.0625 10.5498 4.49051 11.5567 5.25238 12.299C6.01425 13.0413 7.04756 13.4584 8.125 13.4584V13.4584Z" fill="#F7FCFF"/>
<path fill-rule="evenodd" clip-rule="evenodd" d="M8.12093 10.9804L5.91499 12.4767L6.69336 9.96867L4.54999 8.38613L7.23855 8.33309L8.12093 5.85834L9.00411 8.33309L11.6919 8.38613L9.5493 9.96946L10.3277 12.4767L8.12093 10.9804V10.9804Z" fill="#C51918"/>
</g>
<defs>
<clipPath id="clip0_145_575">
<rect width="26" height="19" fill="white"/>
</clipPath>
</defs>
</svg>
