<svg width="26" height="19" viewBox="0 0 26 19" fill="none" xmlns="http://www.w3.org/2000/svg">
<mask id="mask0_156_288" style="mask-type:alpha" maskUnits="userSpaceOnUse" x="0" y="0" width="26" height="19">
<path d="M0 0H26V19H0V0Z" fill="white"/>
</mask>
<g mask="url(#mask0_156_288)">
<path fill-rule="evenodd" clip-rule="evenodd" d="M6.5 0H20.3125V19H6.5V0Z" fill="#F7FCFF"/>
<path fill-rule="evenodd" clip-rule="evenodd" d="M19.5 0H26V19H19.5V0ZM0 0H6.5V19H0V0Z" fill="#F50101"/>
<path d="M12.7896 6.92311L12.8172 7.20969C12.0055 7.28965 11.5676 6.90332 11.5676 6.10136C11.5676 5.30653 11.9966 4.88378 12.8026 4.87903L12.8042 5.1664C12.1509 5.17036 11.8503 5.46724 11.8503 6.10215C11.8503 6.72994 12.1412 6.98724 12.7896 6.92311V6.92311ZM13.1487 6.92311L13.1219 7.20969C13.9328 7.28965 14.3715 6.90332 14.3715 6.10136C14.3715 5.30653 13.9425 4.88378 13.1365 4.87903L13.1349 5.1664C13.7881 5.17036 14.0888 5.46724 14.0888 6.10215C14.0888 6.72994 13.7971 6.98724 13.1487 6.92311V6.92311Z" fill="#A2BB6A"/>
<path fill-rule="evenodd" clip-rule="evenodd" d="M12.3013 13.5557C12.0673 13.6373 10.4861 13.5557 10.4861 13.5557V13.9848H11.5343C11.8845 13.9848 12.0169 14.0458 12.138 14.102C12.2411 14.1495 12.3362 14.193 12.5491 14.193C12.9635 14.193 12.9553 13.8922 12.9496 13.642L12.948 13.555C12.948 13.4497 12.9651 13.3903 12.9781 13.3436C12.9976 13.2771 13.009 13.2375 12.948 13.1219C12.8456 12.9272 11.8682 12.9533 11.8682 13.1219C11.8682 13.2011 12.0169 13.2842 12.1485 13.3586C12.2964 13.441 12.4248 13.513 12.3013 13.5557V13.5557ZM13.7231 13.5557C13.9555 13.6373 15.5375 13.5557 15.5375 13.5557V13.9848H14.4893C14.1391 13.9848 14.0067 14.0458 13.8856 14.102C13.7592 14.1671 13.6174 14.1985 13.4745 14.193C13.0601 14.193 13.0683 13.8922 13.074 13.642L13.0756 13.555C13.0768 13.4834 13.0663 13.412 13.0447 13.3436C13.026 13.2771 13.0146 13.2375 13.0756 13.1219C13.178 12.9272 14.1546 12.9533 14.1546 13.1219C14.1546 13.2011 14.0067 13.2842 13.8743 13.3586C13.7272 13.441 13.5988 13.513 13.7223 13.5557H13.7231Z" fill="#E31D1C"/>
<path fill-rule="evenodd" clip-rule="evenodd" d="M13.3307 13.5968C13.3307 13.5968 14.5649 13.4773 14.8444 13.0435C15.1231 12.6096 15.5878 11.8694 15.7519 11.6897C15.9144 11.5108 15.9258 11.9462 15.9258 11.9462C15.9258 11.9462 16.1956 12.3183 16.1956 11.8425C16.1956 11.3659 16.0038 11.6984 15.7519 10.982C15.5001 10.2647 15.3579 9.56093 15.4286 9.45405C15.4993 9.34797 15.6674 9.56093 15.6674 9.45405V9.13976L15.9258 9.45485L16.1956 9.3551C16.1956 9.3551 16.4174 9.81822 16.5539 9.96151C16.6912 10.1048 16.7708 9.76993 16.731 9.45485C16.6904 9.13976 16.1947 9.13976 16.1947 9.13976C16.1947 9.13976 15.561 8.80726 15.561 8.66714C15.561 8.5278 15.8356 8.56976 15.8356 8.56976L15.7519 8.13751C15.7519 8.13751 15.9778 8.40035 16.0867 8.26893C16.1956 8.13751 15.9258 7.90714 15.9258 7.90714H16.3556V7.70526L16.5539 7.81372L16.3556 7.37197C16.3556 7.37197 15.7731 7.45747 15.6674 7.37197C15.5618 7.28647 15.2287 6.95318 15.2287 6.95318V6.79485H15.0361L15.2279 6.47818V5.9731L15.9258 6.10847V5.7356C15.9258 5.7356 16.9073 6.20189 16.7302 6.57793C16.5539 6.95318 16.5539 7.37197 16.5539 7.37197V7.70447C16.5539 7.70447 16.5831 7.60314 16.731 7.60314C16.8781 7.60314 17.0454 7.67755 17.0454 7.90714C17.0454 8.13751 17.3461 7.81372 17.3461 7.81372V8.77164C17.3461 8.77164 17.4167 8.87455 17.5703 8.77164C17.7247 8.66714 17.6572 8.74789 17.1941 9.3551C16.731 9.96151 16.8976 9.9631 17.0454 9.81426C17.1941 9.66622 17.7954 9.24347 17.5703 9.45485C17.3461 9.66622 17.3306 10.1088 17.5703 9.96151C17.81 9.81505 17.7637 9.70976 17.7637 9.96151C17.7637 10.2133 17.342 11.0698 17.1941 11.2044C17.0454 11.3382 16.9073 11.4206 16.731 11.5551C16.5539 11.6897 16.3556 11.8496 16.3556 11.9462C16.3556 12.0428 16.731 11.8425 16.731 11.8425L16.5539 12.4568H16.8976C16.8976 12.4568 16.6237 13.2738 16.0867 13.2738H15.0361C14.9281 13.2738 14.4398 13.4979 14.4398 13.4979L14.0823 13.5968C14.0823 13.5968 14.6518 13.6499 14.8444 13.8161C15.0361 13.9824 14.8444 14.0988 14.8444 14.0988C14.8444 14.0988 14.3171 14.0481 13.9238 13.9325C13.5306 13.8161 13.3307 14.0354 13.3307 13.8161V13.5968V13.5968Z" fill="#00A854"/>
<path fill-rule="evenodd" clip-rule="evenodd" d="M16.8862 7.05381C16.8862 7.13298 16.8228 7.19631 16.7448 7.19631C16.7067 7.19548 16.6705 7.18005 16.644 7.15337C16.6176 7.12669 16.603 7.09091 16.6034 7.05381C16.6034 6.97385 16.6668 6.90894 16.7448 6.90894C16.8228 6.90894 16.8862 6.97385 16.8862 7.05302V7.05381ZM16.1793 7.62856C16.1793 7.70773 16.1159 7.77264 16.0379 7.77264C16.0189 7.77223 16.0002 7.76818 15.9828 7.76071C15.9654 7.75325 15.9497 7.74252 15.9366 7.72914C15.9235 7.71576 15.9132 7.69999 15.9063 7.68273C15.8994 7.66547 15.8961 7.64707 15.8965 7.62856C15.8965 7.54939 15.9599 7.48527 16.0379 7.48527C16.1159 7.48527 16.1793 7.5486 16.1793 7.62856ZM16.8862 7.48527C16.9244 7.48423 16.9606 7.46849 16.987 7.44149C17.0133 7.41449 17.0276 7.37843 17.0267 7.34119C17.0267 7.26202 16.9642 7.1971 16.8862 7.1971C16.8672 7.19751 16.8484 7.20157 16.8311 7.20903C16.8137 7.2165 16.798 7.22722 16.7848 7.2406C16.7717 7.25398 16.7614 7.26975 16.7545 7.28701C16.7477 7.30427 16.7444 7.32268 16.7448 7.34119C16.7448 7.42035 16.8082 7.48527 16.8862 7.48527ZM16.6034 9.64414C16.6034 9.72331 16.54 9.78823 16.462 9.78823C16.443 9.78782 16.4243 9.78376 16.4069 9.7763C16.3895 9.76883 16.3738 9.7581 16.3607 9.74472C16.3476 9.73134 16.3373 9.71557 16.3304 9.69832C16.3235 9.68106 16.3202 9.66265 16.3207 9.64414C16.3207 9.56498 16.384 9.50006 16.462 9.50006C16.54 9.50006 16.6034 9.56418 16.6034 9.64414ZM15.8965 11.5149C15.9348 11.514 15.9711 11.4985 15.9976 11.4716C16.0241 11.4448 16.0386 11.4088 16.0379 11.3716C16.0379 11.2924 15.9745 11.2275 15.8965 11.2275C15.8775 11.2279 15.8588 11.2319 15.8414 11.2394C15.824 11.2469 15.8083 11.2576 15.7952 11.271C15.7821 11.2844 15.7718 11.3001 15.7649 11.3174C15.758 11.3346 15.7547 11.3531 15.7552 11.3716C15.7552 11.4507 15.8185 11.5149 15.8965 11.5149ZM17.0267 11.803C17.0267 11.8822 16.9642 11.9471 16.8862 11.9471C16.8672 11.9467 16.8484 11.9426 16.8311 11.9352C16.8137 11.9277 16.798 11.917 16.7848 11.9036C16.7717 11.8902 16.7614 11.8744 16.7545 11.8572C16.7477 11.8399 16.7444 11.8215 16.7448 11.803C16.7448 11.7239 16.8082 11.6589 16.8862 11.6589C16.9642 11.6589 17.0267 11.7239 17.0267 11.803ZM17.1681 11.6589C17.1871 11.6585 17.2058 11.6545 17.2232 11.647C17.2406 11.6395 17.2563 11.6288 17.2694 11.6154C17.2826 11.6021 17.2928 11.5863 17.2997 11.569C17.3066 11.5518 17.3099 11.5334 17.3095 11.5149C17.3095 11.4357 17.2469 11.3716 17.1681 11.3716C17.1299 11.3724 17.0936 11.3879 17.0671 11.4148C17.0406 11.4416 17.0261 11.4776 17.0267 11.5149C17.0267 11.594 17.0901 11.6589 17.1681 11.6589ZM17.1681 9.50006C17.1681 9.57923 17.1055 9.64414 17.0267 9.64414C16.9885 9.64311 16.9523 9.62737 16.9259 9.60037C16.8996 9.57337 16.8853 9.5373 16.8862 9.50006C16.8862 9.42089 16.9487 9.35598 17.0267 9.35598C17.1055 9.35598 17.1681 9.42089 17.1681 9.50006Z" fill="#C51918"/>
<path fill-rule="evenodd" clip-rule="evenodd" d="M12.7441 13.3435C12.7441 13.3435 10.4991 12.9105 10.3764 12.0737C10.2537 11.2369 10.2546 10.3463 10.2546 10.3463L10.0466 10.8901C10.0466 10.8901 10.036 10.1491 10.4634 9.62031C10.8907 9.09147 9.92955 9.97101 9.92955 9.97101C9.92955 9.97101 10.4162 9.22289 10.6186 9.15164C10.8217 9.08039 9.80443 9.62031 9.80443 9.62031C9.80443 9.62031 10.0961 8.99331 10.322 8.81597C10.5495 8.63785 9.80524 9.15164 9.80524 9.15164C9.80524 9.15164 9.97343 8.53018 10.1741 8.38135C10.3756 8.23331 9.51599 9.15164 9.51599 9.15164C9.51599 9.15164 9.97018 7.7306 10.2253 7.5976C10.4804 7.46539 9.80443 7.85885 9.80443 7.85885C9.80443 7.85885 10.2188 7.25006 10.5893 6.94843C10.9606 6.64602 9.9198 7.07668 10.0466 7.07668C10.0466 7.07668 10.4236 6.66264 10.6397 6.54626C10.8558 6.4291 9.80524 6.94843 9.80524 6.94843C9.80524 6.94843 10.5592 6.13697 10.7851 6.01743C11.0118 5.89868 9.67524 6.66185 9.67524 6.66185C9.67524 6.66185 9.75324 6.30797 9.78736 6.05543C9.81986 5.8021 9.16743 6.74814 9.2568 7.5976C9.34536 8.44785 8.90093 6.94843 8.90093 6.94843C8.90093 6.94843 8.72218 7.27302 9.15686 8.12643L8.68561 7.48439C8.68561 7.48439 8.75061 8.06706 8.90093 8.38135C9.05205 8.69564 8.47355 7.85885 8.47355 7.85885C8.47355 7.85885 8.36305 8.38135 8.47355 8.38135C8.47355 8.38135 9.13411 9.2411 9.15849 9.49126C9.18286 9.74222 8.41668 8.59668 8.3143 8.59668C8.21193 8.59668 8.15505 8.96481 8.3143 8.96481C8.47355 8.96481 8.77499 9.49126 8.77499 9.49126C8.77499 9.49126 8.38336 9.21576 8.29886 9.19914C8.21518 9.18331 8.36549 9.36301 8.47355 9.49206C8.47355 9.49206 8.16724 9.7351 8.18999 9.91956C8.21355 10.1048 9.02686 10.1436 9.3803 11.02C9.3803 11.02 8.64824 10.6431 8.47355 10.6431C8.29886 10.6431 8.75468 11.0366 8.90093 11.1672C9.04718 11.2971 8.67505 11.0366 8.5743 11.1672C8.47355 11.2971 9.13249 11.8528 9.2568 11.8528H8.77499C8.77499 11.8528 8.93586 12.0745 9.15849 12.0745C9.3803 12.0745 10.1741 12.4212 10.1741 12.5336C10.1741 12.6468 9.50461 12.3896 9.3803 12.3896C9.2568 12.3896 10.2546 13.3079 10.7859 13.3435C11.3157 13.3783 11.6512 13.5177 11.8796 13.5177H12.2696L11.1889 14.0536H11.5481C12.0177 14.0536 12.376 14.1803 12.5604 13.9183C12.7441 13.6554 12.7441 13.3435 12.7441 13.3435V13.3435Z" fill="#00A854"/>
<mask id="mask1_156_288" style="mask-type:alpha" maskUnits="userSpaceOnUse" x="9" y="5" width="8" height="10">
<path d="M9.0813 5.44751H16.3938V14.1558H9.0813V5.44751Z" fill="white"/>
<path fill-rule="evenodd" clip-rule="evenodd" d="M13.0707 7.04982L13.104 7.03162V7.06882C13.2608 7.15274 13.654 7.34987 13.9108 7.34987C14.2358 7.34987 14.6786 7.03162 14.6786 7.03162L15.4188 8.0497C15.4188 8.0497 14.9199 9.06857 15.3018 10.3123C15.6837 11.5568 15.2815 12.5163 13.585 12.6232C13.585 12.6232 13.2502 12.6849 13.104 12.7839V12.8749C13.104 12.8519 13.0918 12.8306 13.0707 12.81C13.0495 12.8306 13.0365 12.8519 13.0365 12.8749V12.7831C12.8903 12.6849 12.5555 12.6232 12.5555 12.6232C10.859 12.5163 10.4577 11.5568 10.8387 10.3123C11.2206 9.06778 10.7217 8.0497 10.7217 8.0497L11.4627 7.03162C11.4627 7.03162 11.9047 7.34987 12.2305 7.34987C12.4865 7.34987 12.8805 7.15195 13.0365 7.06882V7.03162L13.0707 7.04982V7.04982Z" fill="black"/>
</mask>
<g mask="url(#mask1_156_288)">
<path fill-rule="evenodd" clip-rule="evenodd" d="M13.0707 7.04982L13.104 7.03162V7.06882C13.2608 7.15274 13.654 7.34987 13.9108 7.34987C14.2358 7.34987 14.6786 7.03162 14.6786 7.03162L15.4188 8.0497C15.4188 8.0497 14.9199 9.06857 15.3018 10.3123C15.6837 11.5568 15.2815 12.5163 13.585 12.6232C13.585 12.6232 13.2502 12.6849 13.104 12.7839V12.8749C13.104 12.8519 13.0918 12.8306 13.0707 12.81C13.0495 12.8306 13.0365 12.8519 13.0365 12.8749V12.7831C12.8903 12.6849 12.5555 12.6232 12.5555 12.6232C10.859 12.5163 10.4577 11.5568 10.8387 10.3123C11.2206 9.06778 10.7217 8.0497 10.7217 8.0497L11.4627 7.03162C11.4627 7.03162 11.9047 7.34987 12.2305 7.34987C12.4865 7.34987 12.8805 7.15195 13.0365 7.06882V7.03162L13.0707 7.04982V7.04982Z" fill="#E8AA00"/>
<path d="M13.104 7.03164H13.9165V5.63831L12.688 6.35081L13.104 7.03164ZM13.0707 7.04985L12.6701 7.7386L13.0707 7.96026L13.4713 7.7386L13.0707 7.04985ZM13.104 7.06885H12.2915V7.53593L12.7116 7.76156L13.104 7.06885ZM14.6786 7.03164L15.3416 6.57406L14.8623 5.9146L14.196 6.39435L14.6786 7.03164ZM15.4188 8.04972L16.1525 8.39014L16.3581 7.97135L16.0818 7.59214L15.4188 8.04972ZM15.3018 10.3123L14.5235 10.5395L15.3018 10.3123ZM13.585 12.6232L13.533 11.8331L13.4826 11.8363L13.4339 11.845L13.585 12.6232ZM13.104 12.7839L12.6425 12.1323L12.2915 12.3683V12.7839H13.104ZM13.0707 12.81L13.6395 12.2448L13.0707 11.7009L12.502 12.2448L13.0707 12.81ZM13.0366 12.7831H13.8491V12.3683L13.4989 12.1323L13.0366 12.7839V12.7831ZM12.5556 12.6232L12.7075 11.845L12.6588 11.8363L12.6084 11.8331L12.5556 12.6232ZM10.7218 8.04972L10.0588 7.59214L9.78333 7.97214L9.98889 8.39093L10.7218 8.05051V8.04972ZM11.4628 7.03164L11.9454 6.39435L11.2783 5.9146L10.799 6.57406L11.462 7.03164H11.4628ZM13.0366 7.06885L13.429 7.76156L13.8491 7.53593V7.06885H13.0366ZM13.0366 7.03164L13.4526 6.35081L12.2241 5.63831V7.03164H13.0366ZM13.104 7.03164L12.688 6.35081H12.6888L12.6864 6.35239L12.6701 6.3611L13.4713 7.7386L13.5038 7.72039L13.5143 7.71485L13.5184 7.71247H13.5192C13.5195 7.71219 13.5197 7.71193 13.52 7.71168L13.104 7.03085V7.03164ZM13.9165 7.06885V7.03164H12.2915V7.06885H13.9165ZM12.7116 7.76156C12.8042 7.81143 12.9716 7.89772 13.1625 7.97372C13.3275 8.03943 13.6143 8.14156 13.91 8.14156V6.55822C13.945 6.55822 13.9482 6.56297 13.91 6.55347C13.865 6.54077 13.8207 6.52543 13.7776 6.50756C13.6814 6.46855 13.5876 6.42442 13.4965 6.37535L12.7116 7.76156V7.76156ZM13.9108 8.14156C14.2911 8.14156 14.6372 7.97451 14.803 7.88743C14.9223 7.82408 15.0376 7.75376 15.1483 7.67685L15.1564 7.6713L15.1588 7.66972L15.1605 7.66893C15.1605 7.66814 15.1613 7.66814 14.6786 7.03164C14.5173 6.81952 14.3565 6.60709 14.196 6.39435L14.1976 6.39356C14.1979 6.39328 14.1982 6.39302 14.1985 6.39276C14.1854 6.40245 14.1719 6.41144 14.1578 6.41968C14.1253 6.44026 14.0806 6.46718 14.0303 6.4941C13.9791 6.52101 13.9336 6.5416 13.8986 6.55268C13.858 6.56693 13.8661 6.55822 13.9108 6.55822V8.14156V8.14156ZM14.0156 7.48843L14.7558 8.50731L16.0818 7.59214L15.3416 6.57406L14.0156 7.48843ZM15.4188 8.05051C14.6859 7.7093 14.6859 7.70931 14.6851 7.7101V7.71168L14.6835 7.71406C14.6792 7.72201 14.6754 7.7302 14.6721 7.7386L14.6478 7.79243C14.545 8.04436 14.468 8.30556 14.4178 8.57222C14.2932 9.22692 14.3294 9.90105 14.5235 10.5395L16.0802 10.0859C15.9115 9.52626 15.9381 8.92793 16.1558 8.3846C16.1558 8.3838 16.1558 8.3846 16.1558 8.3846L16.1541 8.38697L16.1533 8.38855V8.39014L15.4188 8.04972V8.05051ZM14.5235 10.5395C14.6843 11.062 14.6201 11.3423 14.5356 11.4721C14.4658 11.5798 14.2472 11.7888 13.533 11.8331L13.637 13.4133C14.6201 13.3515 15.4505 13.0261 15.9096 12.3168C16.3556 11.6296 16.3012 10.8071 16.0802 10.0859L14.5235 10.5395V10.5395ZM13.585 12.6232L13.4331 11.845H13.4315L13.4298 11.8458L13.4241 11.8473C13.4193 11.8473 13.4136 11.8489 13.4071 11.8505C13.3309 11.8658 13.2553 11.8835 13.1804 11.9036C13.0788 11.9321 12.8391 12.0001 12.6425 12.1323L13.5663 13.4346C13.5273 13.4608 13.5095 13.4647 13.5355 13.4544C13.555 13.4473 13.5842 13.4386 13.6183 13.4283C13.6581 13.4177 13.6982 13.4085 13.7386 13.4006H13.7369L13.585 12.6232V12.6232ZM13.9165 12.8749V12.7831H12.2915V12.8749H13.9165ZM12.5011 13.3753C12.434 13.3095 12.3809 13.2314 12.3449 13.1455C12.309 13.0597 12.2908 12.9677 12.2915 12.8749H13.9165C13.9165 12.5527 13.7386 12.3398 13.6395 12.2448L12.502 13.3753H12.5011ZM12.5011 12.2448C12.402 12.3398 12.2249 12.5527 12.2249 12.8749H13.8499C13.8499 13.152 13.6955 13.3206 13.6395 13.3753L12.502 12.2448H12.5011ZM13.8499 12.8749V12.7831H12.2249V12.8749H13.8499ZM12.5564 12.6232L12.4045 13.4006H12.4028H12.4069C12.4458 13.4081 12.4843 13.4174 12.5223 13.4283C12.5572 13.4378 12.5865 13.4473 12.6051 13.4544C12.632 13.4647 12.6133 13.4608 12.5751 13.4346L13.4989 12.1323C13.3329 12.0287 13.1511 11.9515 12.9602 11.9036C12.8781 11.8813 12.7952 11.862 12.7116 11.8458H12.7083L12.5556 12.6232H12.5564ZM10.0604 10.0859C9.83939 10.8063 9.78576 11.6296 10.231 12.3168C10.6909 13.0261 11.5213 13.3515 12.5036 13.4133L12.6084 11.8331C11.8934 11.788 11.6756 11.5798 11.605 11.4721C11.5213 11.3423 11.4571 11.0628 11.6179 10.5395L10.0604 10.0859V10.0859ZM10.7218 8.04972L9.98808 8.39014V8.38855L9.98645 8.38697V8.38539L9.98564 8.3846L9.99214 8.39964C10.0509 8.5478 10.0952 8.701 10.1246 8.85722C10.1847 9.17785 10.2058 9.61247 10.0604 10.0859L11.6179 10.5395C11.8976 9.61667 11.8451 8.62841 11.4693 7.7386C11.4656 7.73063 11.4618 7.72272 11.4579 7.71485L11.4563 7.71089V7.70931C11.4555 7.70851 11.4555 7.70851 10.7218 8.04972V8.04972ZM10.799 6.57406L10.0596 7.59214L11.3848 8.50731L12.1258 7.48843L10.799 6.57406V6.57406ZM12.2306 6.55822C12.2753 6.55822 12.2826 6.56614 12.242 6.55268C12.1966 6.53638 12.1526 6.5168 12.1103 6.4941C12.0532 6.46363 11.9979 6.43006 11.9446 6.39356L11.462 7.03164L10.9801 7.66814L10.9818 7.66972L10.985 7.6713L10.9923 7.67685C11.024 7.69983 11.0566 7.72175 11.0898 7.74256C11.1508 7.78135 11.2369 7.8336 11.3384 7.88743C11.5042 7.97451 11.8503 8.14076 12.2306 8.14076V6.55743V6.55822ZM12.6449 6.37535C12.5537 6.42427 12.4599 6.46841 12.3638 6.50756C12.3207 6.52543 12.2764 6.54077 12.2314 6.55347C12.1932 6.56297 12.1965 6.55822 12.2306 6.55822V8.14156C12.5263 8.14156 12.8139 8.03864 12.9781 7.97372C13.1324 7.91133 13.2829 7.84049 13.429 7.76156L12.6441 6.37535H12.6449ZM13.8491 7.06885V7.03164H12.2241V7.06885H13.8491ZM13.0366 7.03164L12.6206 7.71089L12.6214 7.71168L12.623 7.71247L12.6263 7.71485L12.6368 7.72039L12.6693 7.7386L13.4713 6.3611C13.4658 6.35824 13.4604 6.35533 13.455 6.35239L13.4518 6.35081H13.4526L13.0366 7.03164V7.03164Z" fill="#E8AA00"/>
</g>
<mask id="mask2_156_288" style="mask-type:alpha" maskUnits="userSpaceOnUse" x="9" y="5" width="8" height="9">
<mask id="mask3_156_288" style="mask-type:alpha" maskUnits="userSpaceOnUse" x="9" y="5" width="8" height="10">
<path d="M9.0813 5.44751H16.3938V14.1558H9.0813V5.44751Z" fill="white"/>
<path fill-rule="evenodd" clip-rule="evenodd" d="M13.0707 7.04982L13.104 7.03162V7.06882C13.2608 7.15274 13.654 7.34987 13.9108 7.34987C14.2358 7.34987 14.6786 7.03162 14.6786 7.03162L15.4188 8.0497C15.4188 8.0497 14.9199 9.06857 15.3018 10.3123C15.6837 11.5568 15.2815 12.5163 13.585 12.6232C13.585 12.6232 13.2502 12.6849 13.104 12.7839V12.8749C13.104 12.8519 13.0918 12.8306 13.0707 12.81C13.0495 12.8306 13.0365 12.8519 13.0365 12.8749V12.7831C12.8903 12.6849 12.5555 12.6232 12.5555 12.6232C10.859 12.5163 10.4577 11.5568 10.8387 10.3123C11.2206 9.06778 10.7217 8.0497 10.7217 8.0497L11.4627 7.03162C11.4627 7.03162 11.9047 7.34987 12.2305 7.34987C12.4865 7.34987 12.8805 7.15195 13.0365 7.06882V7.03162L13.0707 7.04982V7.04982Z" fill="black"/>
</mask>
<g mask="url(#mask3_156_288)">
<path fill-rule="evenodd" clip-rule="evenodd" d="M13.0707 7.04982L13.104 7.03162V7.06882C13.2608 7.15274 13.654 7.34987 13.9108 7.34987C14.2358 7.34987 14.6786 7.03162 14.6786 7.03162L15.4188 8.0497C15.4188 8.0497 14.9199 9.06857 15.3018 10.3123C15.6837 11.5568 15.2815 12.5163 13.585 12.6232C13.585 12.6232 13.2502 12.6849 13.104 12.7839V12.8749C13.104 12.8519 13.0918 12.8306 13.0707 12.81C13.0495 12.8306 13.0365 12.8519 13.0365 12.8749V12.7831C12.8903 12.6849 12.5555 12.6232 12.5555 12.6232C10.859 12.5163 10.4577 11.5568 10.8387 10.3123C11.2206 9.06778 10.7217 8.0497 10.7217 8.0497L11.4627 7.03162C11.4627 7.03162 11.9047 7.34987 12.2305 7.34987C12.4865 7.34987 12.8805 7.15195 13.0365 7.06882V7.03162L13.0707 7.04982V7.04982Z" fill="white"/>
<path d="M13.104 7.03164H13.9165V5.63831L12.688 6.35081L13.104 7.03164ZM13.0707 7.04985L12.6701 7.7386L13.0707 7.96026L13.4713 7.7386L13.0707 7.04985ZM13.104 7.06885H12.2915V7.53593L12.7116 7.76156L13.104 7.06885ZM14.6786 7.03164L15.3416 6.57406L14.8623 5.9146L14.196 6.39435L14.6786 7.03164ZM15.4188 8.04972L16.1525 8.39014L16.3581 7.97135L16.0818 7.59214L15.4188 8.04972ZM15.3018 10.3123L14.5235 10.5395L15.3018 10.3123ZM13.585 12.6232L13.533 11.8331L13.4826 11.8363L13.4339 11.845L13.585 12.6232ZM13.104 12.7839L12.6425 12.1323L12.2915 12.3683V12.7839H13.104ZM13.0707 12.81L13.6395 12.2448L13.0707 11.7009L12.502 12.2448L13.0707 12.81ZM13.0366 12.7831H13.8491V12.3683L13.4989 12.1323L13.0366 12.7839V12.7831ZM12.5556 12.6232L12.7075 11.845L12.6588 11.8363L12.6084 11.8331L12.5556 12.6232ZM10.7218 8.04972L10.0588 7.59214L9.78333 7.97214L9.98889 8.39093L10.7218 8.05051V8.04972ZM11.4628 7.03164L11.9454 6.39435L11.2783 5.9146L10.799 6.57406L11.462 7.03164H11.4628ZM13.0366 7.06885L13.429 7.76156L13.8491 7.53593V7.06885H13.0366ZM13.0366 7.03164L13.4526 6.35081L12.2241 5.63831V7.03164H13.0366ZM13.104 7.03164L12.688 6.35081H12.6888L12.6864 6.35239L12.6701 6.3611L13.4713 7.7386L13.5038 7.72039L13.5143 7.71485L13.5184 7.71247H13.5192C13.5195 7.71219 13.5197 7.71193 13.52 7.71168L13.104 7.03085V7.03164ZM13.9165 7.06885V7.03164H12.2915V7.06885H13.9165ZM12.7116 7.76156C12.8042 7.81143 12.9716 7.89772 13.1625 7.97372C13.3275 8.03943 13.6143 8.14156 13.91 8.14156V6.55822C13.945 6.55822 13.9482 6.56297 13.91 6.55347C13.865 6.54077 13.8207 6.52543 13.7776 6.50756C13.6814 6.46855 13.5876 6.42442 13.4965 6.37535L12.7116 7.76156V7.76156ZM13.9108 8.14156C14.2911 8.14156 14.6372 7.97451 14.803 7.88743C14.9223 7.82408 15.0376 7.75376 15.1483 7.67685L15.1564 7.6713L15.1588 7.66972L15.1605 7.66893C15.1605 7.66814 15.1613 7.66814 14.6786 7.03164C14.5173 6.81952 14.3565 6.60709 14.196 6.39435L14.1976 6.39356C14.1979 6.39328 14.1982 6.39302 14.1985 6.39276C14.1854 6.40245 14.1719 6.41144 14.1578 6.41968C14.1253 6.44026 14.0806 6.46718 14.0303 6.4941C13.9791 6.52101 13.9336 6.5416 13.8986 6.55268C13.858 6.56693 13.8661 6.55822 13.9108 6.55822V8.14156V8.14156ZM14.0156 7.48843L14.7558 8.50731L16.0818 7.59214L15.3416 6.57406L14.0156 7.48843ZM15.4188 8.05051C14.6859 7.7093 14.6859 7.70931 14.6851 7.7101V7.71168L14.6835 7.71406C14.6792 7.72201 14.6754 7.7302 14.6721 7.7386L14.6478 7.79243C14.545 8.04436 14.468 8.30556 14.4178 8.57222C14.2932 9.22692 14.3294 9.90105 14.5235 10.5395L16.0802 10.0859C15.9115 9.52626 15.9381 8.92793 16.1558 8.3846C16.1558 8.3838 16.1558 8.3846 16.1558 8.3846L16.1541 8.38697L16.1533 8.38855V8.39014L15.4188 8.04972V8.05051ZM14.5235 10.5395C14.6843 11.062 14.6201 11.3423 14.5356 11.4721C14.4658 11.5798 14.2472 11.7888 13.533 11.8331L13.637 13.4133C14.6201 13.3515 15.4505 13.0261 15.9096 12.3168C16.3556 11.6296 16.3012 10.8071 16.0802 10.0859L14.5235 10.5395V10.5395ZM13.585 12.6232L13.4331 11.845H13.4315L13.4298 11.8458L13.4241 11.8473C13.4193 11.8473 13.4136 11.8489 13.4071 11.8505C13.3309 11.8658 13.2553 11.8835 13.1804 11.9036C13.0788 11.9321 12.8391 12.0001 12.6425 12.1323L13.5663 13.4346C13.5273 13.4608 13.5095 13.4647 13.5355 13.4544C13.555 13.4473 13.5842 13.4386 13.6183 13.4283C13.6581 13.4177 13.6982 13.4085 13.7386 13.4006H13.7369L13.585 12.6232V12.6232ZM13.9165 12.8749V12.7831H12.2915V12.8749H13.9165ZM12.5011 13.3753C12.434 13.3095 12.3809 13.2314 12.3449 13.1455C12.309 13.0597 12.2908 12.9677 12.2915 12.8749H13.9165C13.9165 12.5527 13.7386 12.3398 13.6395 12.2448L12.502 13.3753H12.5011ZM12.5011 12.2448C12.402 12.3398 12.2249 12.5527 12.2249 12.8749H13.8499C13.8499 13.152 13.6955 13.3206 13.6395 13.3753L12.502 12.2448H12.5011ZM13.8499 12.8749V12.7831H12.2249V12.8749H13.8499ZM12.5564 12.6232L12.4045 13.4006H12.4028H12.4069C12.4458 13.4081 12.4843 13.4174 12.5223 13.4283C12.5572 13.4378 12.5865 13.4473 12.6051 13.4544C12.632 13.4647 12.6133 13.4608 12.5751 13.4346L13.4989 12.1323C13.3329 12.0287 13.1511 11.9515 12.9602 11.9036C12.8781 11.8813 12.7952 11.862 12.7116 11.8458H12.7083L12.5556 12.6232H12.5564ZM10.0604 10.0859C9.83939 10.8063 9.78576 11.6296 10.231 12.3168C10.6909 13.0261 11.5213 13.3515 12.5036 13.4133L12.6084 11.8331C11.8934 11.788 11.6756 11.5798 11.605 11.4721C11.5213 11.3423 11.4571 11.0628 11.6179 10.5395L10.0604 10.0859V10.0859ZM10.7218 8.04972L9.98808 8.39014V8.38855L9.98645 8.38697V8.38539L9.98564 8.3846L9.99214 8.39964C10.0509 8.5478 10.0952 8.701 10.1246 8.85722C10.1847 9.17785 10.2058 9.61247 10.0604 10.0859L11.6179 10.5395C11.8976 9.61667 11.8451 8.62841 11.4693 7.7386C11.4656 7.73063 11.4618 7.72272 11.4579 7.71485L11.4563 7.71089V7.70931C11.4555 7.70851 11.4555 7.70851 10.7218 8.04972V8.04972ZM10.799 6.57406L10.0596 7.59214L11.3848 8.50731L12.1258 7.48843L10.799 6.57406V6.57406ZM12.2306 6.55822C12.2753 6.55822 12.2826 6.56614 12.242 6.55268C12.1966 6.53638 12.1526 6.5168 12.1103 6.4941C12.0532 6.46363 11.9979 6.43006 11.9446 6.39356L11.462 7.03164L10.9801 7.66814L10.9818 7.66972L10.985 7.6713L10.9923 7.67685C11.024 7.69983 11.0566 7.72175 11.0898 7.74256C11.1508 7.78135 11.2369 7.8336 11.3384 7.88743C11.5042 7.97451 11.8503 8.14076 12.2306 8.14076V6.55743V6.55822ZM12.6449 6.37535C12.5537 6.42427 12.4599 6.46841 12.3638 6.50756C12.3207 6.52543 12.2764 6.54077 12.2314 6.55347C12.1932 6.56297 12.1965 6.55822 12.2306 6.55822V8.14156C12.5263 8.14156 12.8139 8.03864 12.9781 7.97372C13.1324 7.91133 13.2829 7.84049 13.429 7.76156L12.6441 6.37535H12.6449ZM13.8491 7.06885V7.03164H12.2241V7.06885H13.8491ZM13.0366 7.03164L12.6206 7.71089L12.6214 7.71168L12.623 7.71247L12.6263 7.71485L12.6368 7.72039L12.6693 7.7386L13.4713 6.3611C13.4658 6.35824 13.4604 6.35533 13.455 6.35239L13.4518 6.35081H13.4526L13.0366 7.03164V7.03164Z" fill="white"/>
</g>
</mask>
<g mask="url(#mask2_156_288)">
<path d="M10.8095 6.90894H13.0707V9.93152H10.8095V6.90894Z" fill="#67BAFF"/>
<path d="M13.0707 6.90894H15.3319V9.93152H13.0707V6.90894Z" fill="white"/>
<path d="M10.5276 10.2197H16.1802V13.6746H10.5276V10.2197Z" fill="#C51918"/>
<path d="M14.166 9.71779H13.8832V7.64758H14.166V9.71779Z" fill="#C9A951"/>
<path d="M14.0514 8.77648L13.9133 9.01635L13.4258 8.75115L13.5639 8.51048L14.0514 8.77648ZM14.0514 8.20014L13.9133 8.44081L13.4258 8.1756L13.5639 7.93494L14.0514 8.20014Z" fill="#C9A951"/>
<path d="M13.9913 8.77648L14.1294 9.01635L14.6169 8.75115L14.4788 8.51048L13.9913 8.77648ZM13.9913 8.20014L14.1294 8.44081L14.6169 8.1756L14.4788 7.93494L13.9913 8.20014Z" fill="#C9A951"/>
<path fill-rule="evenodd" clip-rule="evenodd" d="M14.4057 10.8498C14.4057 10.8498 14.6015 10.6305 14.6015 10.7405C14.6015 10.8498 14.6015 11.0335 14.504 11.0335C14.4049 11.0335 13.9474 10.9464 13.7727 10.7405C13.598 10.5347 13.2284 10.1753 12.7539 10.26C12.2794 10.3447 11.7155 10.9448 11.5765 10.9448C11.4384 10.9448 11.1337 11.4071 11.3547 11.7681C11.5766 12.1291 11.9535 12.0175 11.9535 12.122C11.9535 12.2273 12.0478 12.2392 12.4004 12.2392C12.7539 12.2392 12.883 12.3603 13.1885 12.3603C13.4949 12.3603 13.0878 12.3556 13.5802 12.2392C14.0725 12.122 14.4455 11.7681 14.1587 11.7681H13.5802C13.3811 11.7681 12.9391 11.9075 12.9391 11.7681C12.9391 11.6288 13.0366 11.3295 13.3088 11.4792C13.5802 11.6288 14.3342 11.7428 14.6015 11.4792C14.8688 11.2163 14.9622 11.0572 14.9159 10.7405C14.8688 10.4239 14.5032 10.5141 14.5032 10.5141L14.4057 10.8498V10.8498Z" fill="#FBCD17"/>
<path fill-rule="evenodd" clip-rule="evenodd" d="M12.493 7.57629C12.3224 7.72117 12.4329 8.25238 12.1534 8.25238C11.8747 8.25238 11.4814 7.85496 11.3823 8.117C11.284 8.37825 11.3823 8.29117 11.3823 8.51442C11.3823 8.73767 11.1459 9.35754 11.2645 9.46284C11.3823 9.56734 11.5042 9.84442 11.4831 9.71459C11.4619 9.58554 11.3726 9.39554 11.4099 9.18892C11.3734 8.97517 11.609 8.77092 11.609 8.77092C11.609 8.77092 11.5838 8.99259 11.5651 9.07413C11.5651 9.07413 11.4871 9.24038 11.5188 9.35121C11.5188 9.35121 11.5984 9.66392 11.6318 9.68529C11.6318 9.68529 11.6529 8.94667 11.6773 8.82475C11.7016 8.70363 11.8747 8.9625 11.9324 8.93321C11.9324 8.93321 11.9527 9.4375 11.9226 9.49767C11.9226 9.49767 11.8617 9.61721 11.8844 9.656C11.8844 9.656 11.9413 9.79375 11.9884 9.75338C11.9884 9.75338 11.9901 9.751 12.0144 9.61642C12.0144 9.61642 11.986 9.53488 12.0307 9.34963C12.0307 9.34963 12.077 8.94271 12.0965 9.03138C12.0965 9.03138 12.0884 9.22296 12.1103 9.32271C12.1103 9.32271 12.1461 9.56813 12.1534 9.59584C12.1534 9.59584 12.324 9.83254 12.3281 9.732C12.3281 9.732 12.1648 9.542 12.1997 9.39792C12.1997 9.39792 12.1063 8.98863 12.2371 8.89679C12.2371 8.89679 12.5832 8.74084 12.6043 8.47325C12.6043 8.47325 12.6547 8.16846 12.6636 8.02913C12.6636 8.02913 12.5873 7.98796 12.7449 7.91592C12.7449 7.91592 12.9976 7.82092 12.8399 7.6895" fill="#D18219"/>
</g>
</g>
</svg>
