<svg width="26" height="19" viewBox="0 0 26 19" fill="none" xmlns="http://www.w3.org/2000/svg">
<mask id="mask0_158_270" style="mask-type:alpha" maskUnits="userSpaceOnUse" x="0" y="0" width="26" height="19">
<path d="M0 0H26V19H0V0Z" fill="white"/>
</mask>
<g mask="url(#mask0_158_270)">
<path fill-rule="evenodd" clip-rule="evenodd" d="M6.5 0H26V19H6.5V0Z" fill="#EF0000"/>
<path fill-rule="evenodd" clip-rule="evenodd" d="M0 0H9.75V19H0V0Z" fill="#2F8D00"/>
<mask id="mask1_158_270" style="mask-type:alpha" maskUnits="userSpaceOnUse" x="3" y="3" width="13" height="13">
<path fill-rule="evenodd" clip-rule="evenodd" d="M9.6728 15.6805C6.21155 15.6805 3.40436 12.9137 3.40436 9.5C3.40436 6.08633 6.21073 3.31946 9.6728 3.31946C13.134 3.31946 15.9404 6.08633 15.9404 9.5C15.9404 12.9137 13.134 15.6805 9.6728 15.6805Z" fill="white"/>
</mask>
<g mask="url(#mask1_158_270)">
<path fill-rule="evenodd" clip-rule="evenodd" d="M9.28528 3.16663H10.0978V5.30333H9.28528V3.16663ZM9.28528 13.8494H10.0978V15.8333H9.28528V13.8494Z" fill="#FFE017"/>
<path d="M3.50515 9.81975L3.27765 9.25213C5.78502 8.27679 7.67815 7.64742 8.96109 7.36479C10.8453 6.94838 12.9147 6.64121 15.1702 6.44092L15.2255 7.04892C12.996 7.24683 10.9525 7.55004 9.09677 7.96013C7.85121 8.23483 5.9849 8.85471 3.50677 9.81975H3.50515Z" fill="#FFE017"/>
<path d="M15.5513 6.06733L15.3676 6.65C13.4729 6.06733 11.9299 5.81637 10.7437 5.89395L10.7031 5.28516C11.9763 5.20204 13.5907 5.46408 15.5521 6.06733H15.5513ZM16.2078 9.32583L15.8576 9.82933C14.8907 9.17541 13.7012 8.84766 12.2793 8.84766V8.23729C13.8214 8.23729 15.1328 8.59908 16.2078 9.32583V9.32583Z" fill="#FFE017"/>
<path d="M15.6829 9.50793L15.8429 10.0977C13.7605 10.6479 11.8056 10.9591 9.97831 11.0327C8.138 11.1071 5.993 10.7936 3.54169 10.0961L3.71312 9.51031C6.10512 10.1904 8.18594 10.4936 9.95312 10.4231C11.7325 10.3519 13.6427 10.0471 15.6829 9.50873V9.50793Z" fill="#FFE017"/>
<path d="M15.4473 12.3785L14.4682 13.3562C12.6092 11.5457 10.972 10.2513 9.5672 9.47387C8.13882 8.68221 6.27576 7.87946 3.98126 7.06721L4.4517 5.77441C6.81364 6.61041 8.74495 7.44325 10.2489 8.27608C11.7764 9.12158 13.5062 10.4888 15.4473 12.3785V12.3785ZM4.43464 12.9319L4.06414 12.4426C4.37076 12.2288 4.69342 12.0378 5.02939 11.871C5.72001 11.5306 6.41307 11.3169 7.07445 11.2971L7.17114 11.2955V11.9059C7.14514 11.9059 7.11914 11.9059 7.09314 11.9075C6.53576 11.9233 5.92395 12.1117 5.30726 12.4173C5.00381 12.5677 4.71214 12.7397 4.43464 12.9319V12.9319Z" fill="#FFE017"/>
<path d="M4.72228 13.1441L4.87828 12.5527C6.94203 13.0831 8.53291 13.3467 9.64359 13.3467C10.7502 13.3467 12.3963 13.0348 14.573 12.4102L14.7461 12.996C12.5182 13.6357 10.8217 13.9571 9.64359 13.9571C8.47034 13.9571 6.83234 13.6856 4.72228 13.1441V13.1441ZM3.91791 7.67443L4.89941 6.6991L6.33591 8.10351L5.35522 9.07885L3.91872 7.67443H3.91791Z" fill="#FFE017"/>
<path d="M12.0543 12.5463L12.7839 11.3762L15.0613 12.7569L14.3325 13.927L12.0543 12.5463V12.5463Z" fill="#FFE017"/>
<path fill-rule="evenodd" clip-rule="evenodd" d="M3.40436 9.5C3.40436 12.9137 6.21073 15.6805 9.6728 15.6805C13.134 15.6805 15.9404 12.9137 15.9404 9.5C15.9404 6.08633 13.134 3.31946 9.6728 3.31946C6.21155 3.31946 3.40436 6.08633 3.40436 9.5ZM15.1669 9.576C15.1669 12.5265 12.7416 14.9174 9.74998 14.9174C6.75836 14.9174 4.33305 12.5265 4.33305 9.576C4.33305 6.62625 6.75836 4.23542 9.74998 4.23542C12.7416 4.23542 15.1669 6.62704 15.1669 9.57679V9.576Z" fill="#F9E813"/>
<path d="M6.22131 5.68811V10.6447C6.55606 12.6065 7.68381 13.5874 9.60538 13.5874C11.5269 13.5874 12.6547 12.6065 12.9894 10.6447V5.6889H6.22131V5.68811Z" fill="white"/>
<path d="M5.75659 5.23059H13.4542V10.6828L13.4477 10.7208C13.0756 12.8995 11.7577 14.0458 9.6054 14.0458C7.45309 14.0458 6.13522 12.8995 5.76309 10.7208L5.75659 10.6828V5.23059V5.23059Z" fill="#C51918"/>
<path d="M7.51727 6.89539H11.6935V10.412C11.6935 10.412 11.384 12.2273 9.6054 12.2273C7.82765 12.2273 7.51727 10.412 7.51727 10.412V6.89539V6.89539Z" fill="#F7FCFF"/>
<path fill-rule="evenodd" clip-rule="evenodd" d="M6.5 5.60815H7.08744V5.98974H6.5V5.60815Z" fill="#F9E813"/>
<path fill-rule="evenodd" clip-rule="evenodd" d="M6.19043 5.76099H7.27349V5.95178H6.19124V5.76178L6.19043 5.76099Z" fill="#060101"/>
<path fill-rule="evenodd" clip-rule="evenodd" d="M6.19043 5.9137H6.77787V6.1037H6.19043V5.9137V5.9137ZM6.80955 5.9137H7.39699V6.1037H6.80874V5.9137H6.80955ZM6.19043 6.37128H6.58205V6.94366H6.19043V6.37128V6.37128ZM6.96393 6.37128H7.35556V6.94366H6.96393V6.37128ZM6.65437 6.37128H6.85018V6.94366H6.65518V6.37128H6.65437Z" fill="#F9E813"/>
<path fill-rule="evenodd" clip-rule="evenodd" d="M6.19043 6.21851H7.27349V6.4093H6.19124V6.2193L6.19043 6.21851ZM6.19043 6.67688H7.27349V6.86688H6.19124V6.67688H6.19043Z" fill="#060101"/>
<path fill-rule="evenodd" clip-rule="evenodd" d="M6.34564 6.06653H6.54064V6.25653H6.34564V6.06653V6.06653ZM6.96395 6.06653H7.15977V6.25653H6.96477V6.06653H6.96395ZM6.65439 5.91374H6.8502V6.29532H6.6552V5.91374H6.65439ZM9.44045 5.60815H10.0279V5.98974H9.44045V5.60815Z" fill="#F9E813"/>
<path fill-rule="evenodd" clip-rule="evenodd" d="M9.13086 5.76099H10.2139V5.95178H9.13086V5.76178V5.76099Z" fill="#060101"/>
<path fill-rule="evenodd" clip-rule="evenodd" d="M9.13086 5.9137H9.7183V6.1037H9.13086V5.9137ZM9.74998 5.9137H10.3374V6.1037H9.74998V5.9137ZM9.13086 6.37128H9.52248V6.94366H9.13086V6.37128ZM9.90436 6.37128H10.296V6.94366H9.90436V6.37128ZM9.59561 6.37128H9.79061V6.94366H9.59561V6.37128Z" fill="#F9E813"/>
<path fill-rule="evenodd" clip-rule="evenodd" d="M9.13086 6.21851H10.2139V6.4093H9.13086V6.2193V6.21851ZM9.13086 6.67688H10.2139V6.86688H9.13086V6.67688Z" fill="#060101"/>
<path fill-rule="evenodd" clip-rule="evenodd" d="M9.28528 6.06653H9.48109V6.25653H9.28609V6.06653H9.28528ZM9.9044 6.06653H10.1002V6.25653H9.90522V6.06653H9.9044ZM9.59565 5.91374H9.79065V6.29532H9.59565V5.91374V5.91374ZM12.2265 5.60815H12.814V5.98974H12.2265V5.60815Z" fill="#F9E813"/>
<path fill-rule="evenodd" clip-rule="evenodd" d="M11.9169 5.76099H13V5.95178H11.9169V5.76178V5.76099Z" fill="#060101"/>
<path fill-rule="evenodd" clip-rule="evenodd" d="M11.9169 5.9137H12.5044V6.1037H11.9169V5.9137ZM12.5361 5.9137H13.1227V6.1037H12.5361V5.9137ZM11.9169 6.37128H12.3086V6.94366H11.9169V6.37128ZM12.6904 6.37128H13.0821V6.94366H12.6904V6.37128ZM12.3809 6.37128H12.5767V6.94366H12.3809V6.37128Z" fill="#F9E813"/>
<path fill-rule="evenodd" clip-rule="evenodd" d="M11.9169 6.21851H13V6.4093H11.9169V6.2193V6.21851ZM11.9169 6.67688H13V6.86688H11.9169V6.67688Z" fill="#060101"/>
<path fill-rule="evenodd" clip-rule="evenodd" d="M12.0713 6.06649H12.2671V6.25649H12.0721V6.06649H12.0713ZM12.6904 6.06649H12.8862V6.25649H12.6904V6.06649ZM12.3809 5.9137H12.5767V6.29528H12.3809V5.9137V5.9137ZM12.2265 8.3552H12.8139V8.73678H12.2265V8.3552Z" fill="#F9E813"/>
<path fill-rule="evenodd" clip-rule="evenodd" d="M11.9169 8.50806H13V8.69885H11.9169V8.50806Z" fill="#060101"/>
<path fill-rule="evenodd" clip-rule="evenodd" d="M11.9169 8.66089H12.5044V8.85089H11.9169V8.66089ZM12.5361 8.66089H13.1227V8.85089H12.5361V8.66089ZM11.9169 9.11847H12.3086V9.69085H11.9169V9.11847ZM12.6904 9.11847H13.0821V9.69085H12.6904V9.11847ZM12.3809 9.11847H12.5767V9.69085H12.3809V9.11847Z" fill="#F9E813"/>
<path fill-rule="evenodd" clip-rule="evenodd" d="M11.9169 8.96558H13V9.15637H11.9169V8.96637V8.96558ZM11.9169 9.42395H13V9.61395H11.9169V9.42395Z" fill="#060101"/>
<path fill-rule="evenodd" clip-rule="evenodd" d="M12.0713 8.8136H12.2671V9.0036H12.0721V8.8136H12.0713ZM12.6904 8.8136H12.8862V9.0036H12.6904V8.8136ZM12.3809 8.66081H12.5767V9.04239H12.3809V8.66081ZM6.5 8.35522H7.08744V8.73681H6.5V8.35522Z" fill="#F9E813"/>
<path fill-rule="evenodd" clip-rule="evenodd" d="M6.19043 8.50806H7.27349V8.69885H6.19124V8.50806H6.19043Z" fill="#060101"/>
<path fill-rule="evenodd" clip-rule="evenodd" d="M6.19043 8.66089H6.77787V8.85089H6.19043V8.66089V8.66089ZM6.80955 8.66089H7.39699V8.85089H6.80874V8.66089H6.80955ZM6.19043 9.11847H6.58205V9.69085H6.19043V9.11847V9.11847ZM6.96393 9.11847H7.35556V9.69085H6.96393V9.11847ZM6.65437 9.11847H6.85018V9.69085H6.65518V9.11847H6.65437Z" fill="#F9E813"/>
<path fill-rule="evenodd" clip-rule="evenodd" d="M6.19043 8.96558H7.27349V9.15637H6.19124V8.96637L6.19043 8.96558ZM6.19043 9.42395H7.27349V9.61395H6.19124V9.42395H6.19043Z" fill="#060101"/>
<path fill-rule="evenodd" clip-rule="evenodd" d="M6.34564 8.81368H6.54064V9.00368H6.34564V8.81368V8.81368ZM6.96395 8.81368H7.15977V9.00368H6.96477V8.81368H6.96395ZM6.65439 8.66089H6.8502V9.04247H6.6552V8.66089H6.65439ZM6.87702 11.7991L7.25402 11.3605L7.55464 11.6059L7.17683 12.0445L6.8762 11.7991H6.87702Z" fill="#F9E813"/>
<path fill-rule="evenodd" clip-rule="evenodd" d="M6.79822 12.1283L7.49453 11.3192L7.64403 11.4419L6.94772 12.251L6.79822 12.1283Z" fill="#060101"/>
<path fill-rule="evenodd" clip-rule="evenodd" d="M6.9176 12.2265L7.29542 11.7879L7.44492 11.9106L7.06792 12.3484L6.9176 12.2265V12.2265ZM7.31573 11.7641L7.69354 11.3256L7.84304 11.4483L7.46523 11.8869L7.31573 11.7641ZM7.27754 12.5202L7.52942 12.2281L7.97954 12.5962L7.72766 12.8883L7.27754 12.5202ZM7.7756 11.9431L8.02748 11.6501L8.47679 12.0183L8.22492 12.3112L7.77479 11.9431H7.7756ZM7.57654 12.1742L7.70167 12.0278L8.15179 12.3959L8.02585 12.5416L7.57654 12.1742V12.1742Z" fill="#F9E813"/>
<path fill-rule="evenodd" clip-rule="evenodd" d="M7.15814 12.4221L7.85445 11.6138L8.00395 11.7365L7.30764 12.5448L7.15814 12.4221ZM7.51808 12.7166L8.21439 11.9083L8.36389 12.031L7.66758 12.8393L7.51808 12.7166V12.7166Z" fill="#060101"/>
<path fill-rule="evenodd" clip-rule="evenodd" d="M7.13702 12.2091L7.26296 12.0626L7.41327 12.1854L7.28734 12.331L7.13702 12.2091V12.2091ZM7.53515 11.7468L7.66109 11.6003L7.8114 11.723L7.68546 11.8695L7.53515 11.7468ZM7.21584 11.8798L7.34177 11.7333L7.6424 11.9787L7.51646 12.1252L7.21584 11.8798ZM12.1696 11.4523L12.5475 11.8909L12.2468 12.1363L11.8698 11.6977L12.1705 11.4523H12.1696Z" fill="#F9E813"/>
<path fill-rule="evenodd" clip-rule="evenodd" d="M11.8511 11.3192L12.5474 12.1283L12.3971 12.251L11.7008 11.4419L11.8511 11.3192Z" fill="#060101"/>
<path fill-rule="evenodd" clip-rule="evenodd" d="M11.7309 11.4174L12.1087 11.8559L11.9584 11.9787L11.5814 11.5401L11.7309 11.4174V11.4174ZM12.129 11.8797L12.5068 12.3183L12.3565 12.4402L11.9787 12.0024L12.129 11.8797ZM11.371 11.7119L11.6228 12.0048L11.1727 12.3721L10.9208 12.0792L11.371 11.7119ZM11.8682 12.2898L12.1201 12.5819L11.67 12.9492L11.4181 12.6571L11.8682 12.2898V12.2898ZM11.6692 12.0586L11.7951 12.2043L11.3458 12.5724L11.2198 12.4259L11.6692 12.0586V12.0586Z" fill="#F9E813"/>
<path fill-rule="evenodd" clip-rule="evenodd" d="M11.4912 11.6138L12.1875 12.4221L12.0372 12.5448L11.3409 11.7365L11.4912 11.6138ZM11.1313 11.9083L11.8276 12.7166L11.6773 12.8393L10.981 12.031L11.1313 11.9083Z" fill="#060101"/>
<path fill-rule="evenodd" clip-rule="evenodd" d="M11.7106 11.6312L11.8365 11.7777L11.6862 11.8996L11.5602 11.7539L11.7106 11.6312V11.6312ZM12.1087 12.0936L12.2346 12.2392L12.0843 12.3619L11.9584 12.2163L12.1087 12.0936ZM12.0299 11.7642L12.155 11.9099L11.8552 12.1553L11.7292 12.0096L12.0299 11.7642Z" fill="#F9E813"/>
<path fill-rule="evenodd" clip-rule="evenodd" d="M10.2033 7.28723H9.13084V8.04802C9.13084 8.04802 9.21047 8.44148 9.66709 8.44148C10.1237 8.44148 10.2033 8.04802 10.2033 8.04802V7.28723ZM9.5956 7.59202C9.5957 7.61198 9.59177 7.63177 9.58403 7.65025C9.57629 7.66873 9.56489 7.68555 9.55048 7.69974C9.53607 7.71392 9.51893 7.72521 9.50004 7.73294C9.48116 7.74068 9.46089 7.74471 9.44041 7.74481C9.39918 7.7444 9.35979 7.72809 9.33086 7.69946C9.30193 7.67083 9.28582 7.6322 9.28603 7.59202C9.28603 7.50811 9.3551 7.44002 9.44041 7.44002C9.52572 7.44002 9.59478 7.50811 9.59478 7.59202H9.5956ZM9.44041 8.35519C9.52572 8.35519 9.59478 8.28711 9.59478 8.2024C9.59478 8.16236 9.57857 8.12393 9.54967 8.09547C9.52076 8.06701 9.4815 8.05082 9.44041 8.0504C9.39932 8.05082 9.36005 8.06701 9.33115 8.09547C9.30224 8.12393 9.28603 8.16236 9.28603 8.2024C9.28603 8.28711 9.3551 8.35519 9.44041 8.35519ZM10.0595 8.2024C10.0597 8.24258 10.0436 8.2812 10.0147 8.30983C9.98578 8.33846 9.94639 8.35477 9.90516 8.35519C9.88467 8.35509 9.86441 8.35105 9.84552 8.34332C9.82663 8.33558 9.8095 8.3243 9.79509 8.31011C9.78068 8.29592 9.76927 8.27911 9.76153 8.26063C9.75379 8.24215 9.74986 8.22236 9.74997 8.2024C9.74997 8.11848 9.81903 8.0504 9.90434 8.0504C9.92475 8.0504 9.94496 8.05434 9.9638 8.062C9.98264 8.06966 9.99973 8.08088 10.0141 8.09501C10.0284 8.10915 10.0398 8.12592 10.0474 8.14435C10.0551 8.16278 10.0589 8.18251 10.0587 8.2024H10.0595ZM9.67278 8.0504C9.75809 8.0504 9.82716 7.98152 9.82716 7.89761C9.82737 7.85743 9.81126 7.8188 9.78233 7.79017C9.7534 7.76154 9.71401 7.74523 9.67278 7.74481C9.63155 7.74523 9.59216 7.76154 9.56324 7.79017C9.53431 7.8188 9.51819 7.85743 9.51841 7.89761C9.51841 7.98152 9.58747 8.0504 9.67278 8.0504ZM10.0595 7.59202C10.0597 7.6322 10.0436 7.67083 10.0147 7.69946C9.98578 7.72809 9.94639 7.7444 9.90516 7.74481C9.88467 7.74471 9.86441 7.74068 9.84552 7.73294C9.82663 7.72521 9.8095 7.71392 9.79509 7.69974C9.78068 7.68555 9.76927 7.66873 9.76153 7.65025C9.75379 7.63177 9.74986 7.61198 9.74997 7.59202C9.74997 7.50811 9.81903 7.44002 9.90434 7.44002C9.92475 7.44002 9.94496 7.44396 9.9638 7.45162C9.98264 7.45928 9.99973 7.4705 10.0141 7.48464C10.0284 7.49877 10.0398 7.51554 10.0474 7.53397C10.0551 7.55241 10.0589 7.57214 10.0587 7.59202H10.0595ZM10.2033 8.96556H9.13084V9.72715C9.13084 9.72715 9.21047 10.1198 9.66709 10.1198C10.1237 10.1198 10.2033 9.72715 10.2033 9.72715V8.96556ZM9.5956 9.27115C9.5957 9.29111 9.59177 9.3109 9.58403 9.32938C9.57629 9.34786 9.56489 9.36467 9.55048 9.37886C9.53607 9.39305 9.51893 9.40433 9.50004 9.41207C9.48116 9.4198 9.46089 9.42384 9.44041 9.42394C9.39918 9.42352 9.35979 9.40721 9.33086 9.37858C9.30193 9.34995 9.28582 9.31133 9.28603 9.27115C9.28603 9.18644 9.3551 9.11836 9.44041 9.11836C9.52572 9.11836 9.59478 9.18644 9.59478 9.27115H9.5956ZM9.44041 10.0343C9.52572 10.0343 9.59478 9.96544 9.59478 9.88152C9.595 9.84135 9.57888 9.80272 9.54995 9.77409C9.52103 9.74546 9.48164 9.72915 9.44041 9.72873C9.39918 9.72915 9.35979 9.74546 9.33086 9.77409C9.30193 9.80272 9.28582 9.84135 9.28603 9.88152C9.28603 9.96544 9.3551 10.0343 9.44041 10.0343ZM10.0595 9.88152C10.0597 9.9217 10.0436 9.96033 10.0147 9.98896C9.98578 10.0176 9.94639 10.0339 9.90516 10.0343C9.88467 10.0342 9.86441 10.0302 9.84552 10.0224C9.82663 10.0147 9.8095 10.0034 9.79509 9.98924C9.78068 9.97505 9.76927 9.95823 9.76153 9.93975C9.75379 9.92127 9.74986 9.90148 9.74997 9.88152C9.74997 9.79761 9.81903 9.72873 9.90434 9.72873C9.99047 9.72873 10.0587 9.79761 10.0587 9.88152H10.0595ZM9.67278 9.72873C9.75809 9.72873 9.82716 9.66065 9.82716 9.57594C9.82716 9.5359 9.81095 9.49748 9.78204 9.46902C9.75314 9.44055 9.71387 9.42436 9.67278 9.42394C9.63169 9.42436 9.59243 9.44055 9.56352 9.46902C9.53462 9.49748 9.51841 9.5359 9.51841 9.57594C9.51841 9.66065 9.58747 9.72873 9.67278 9.72873ZM10.0595 9.27115C10.0597 9.31133 10.0436 9.34995 10.0147 9.37858C9.98578 9.40721 9.94639 9.42352 9.90516 9.42394C9.88467 9.42384 9.86441 9.4198 9.84552 9.41207C9.82663 9.40433 9.8095 9.39305 9.79509 9.37886C9.78068 9.36467 9.76927 9.34786 9.76153 9.32938C9.75379 9.3109 9.74986 9.29111 9.74997 9.27115C9.74997 9.18644 9.81903 9.11836 9.90434 9.11836C9.92482 9.11835 9.9451 9.12232 9.96399 9.13003C9.98288 9.13774 10 9.14903 10.0144 9.16325C10.0287 9.17747 10.0401 9.19433 10.0477 9.21286C10.0553 9.23138 10.059 9.2512 10.0587 9.27115H10.0595ZM11.5968 8.96556H10.5243V9.72715C10.5243 9.72715 10.6031 10.1198 11.0605 10.1198C11.5172 10.1198 11.5968 9.72715 11.5968 9.72715V8.96556ZM10.9874 9.27115C10.9876 9.31133 10.9715 9.34995 10.9426 9.37858C10.9137 9.40721 10.8743 9.42352 10.833 9.42394C10.7918 9.42352 10.7524 9.40721 10.7235 9.37858C10.6946 9.34995 10.6784 9.31133 10.6787 9.27115C10.6787 9.18644 10.7477 9.11836 10.833 9.11836C10.9183 9.11836 10.9874 9.18644 10.9874 9.27115ZM10.833 10.0343C10.9183 10.0343 10.9874 9.96544 10.9874 9.88152C10.9876 9.84135 10.9715 9.80272 10.9426 9.77409C10.9137 9.74546 10.8743 9.72915 10.833 9.72873C10.7918 9.72915 10.7524 9.74546 10.7235 9.77409C10.6946 9.80272 10.6784 9.84135 10.6787 9.88152C10.6787 9.96544 10.7477 10.0343 10.833 10.0343ZM11.4522 9.88152C11.4524 9.9217 11.4363 9.96033 11.4073 9.98896C11.3784 10.0176 11.339 10.0339 11.2978 10.0343C11.2565 10.0339 11.2172 10.0176 11.1882 9.98896C11.1593 9.96033 11.1432 9.9217 11.1434 9.88152C11.1434 9.79761 11.2125 9.72873 11.2978 9.72873C11.3831 9.72873 11.4522 9.79761 11.4522 9.88152ZM11.0654 9.72873C11.1507 9.72873 11.2198 9.66065 11.2198 9.57594C11.2198 9.5359 11.2036 9.49748 11.1747 9.46902C11.1458 9.44055 11.1065 9.42436 11.0654 9.42394C11.0243 9.42436 10.9851 9.44055 10.9561 9.46902C10.9272 9.49748 10.911 9.5359 10.911 9.57594C10.911 9.66065 10.9801 9.72873 11.0654 9.72873ZM11.4522 9.27115C11.4524 9.31133 11.4363 9.34995 11.4073 9.37858C11.3784 9.40721 11.339 9.42352 11.2978 9.42394C11.2565 9.42352 11.2172 9.40721 11.1882 9.37858C11.1593 9.34995 11.1432 9.31133 11.1434 9.27115C11.1434 9.18644 11.2125 9.11836 11.2978 9.11836C11.3831 9.11836 11.4522 9.18644 11.4522 9.27115ZM8.81072 8.96556H7.73822V9.72715C7.73822 9.72715 7.81785 10.1198 8.27447 10.1198C8.73109 10.1198 8.81072 9.72715 8.81072 9.72715V8.96556ZM8.20216 9.27115C8.20237 9.31133 8.18626 9.34995 8.15733 9.37858C8.1284 9.40721 8.08901 9.42352 8.04778 9.42394C8.00655 9.42352 7.96716 9.40721 7.93824 9.37858C7.90931 9.34995 7.89319 9.31133 7.89341 9.27115C7.89341 9.18644 7.96247 9.11836 8.04778 9.11836C8.13309 9.11836 8.20216 9.18644 8.20216 9.27115ZM8.04778 10.0343C8.13309 10.0343 8.20216 9.96544 8.20216 9.88152C8.20237 9.84135 8.18626 9.80272 8.15733 9.77409C8.1284 9.74546 8.08901 9.72915 8.04778 9.72873C8.00655 9.72915 7.96716 9.74546 7.93824 9.77409C7.90931 9.80272 7.89319 9.84135 7.89341 9.88152C7.89341 9.96544 7.96247 10.0343 8.04778 10.0343ZM8.66691 9.88152C8.66712 9.9217 8.65101 9.96033 8.62208 9.98896C8.59315 10.0176 8.55377 10.0339 8.51253 10.0343C8.49205 10.0342 8.47178 10.0302 8.4529 10.0224C8.43401 10.0147 8.41687 10.0034 8.40246 9.98924C8.38805 9.97505 8.37665 9.95823 8.36891 9.93975C8.36117 9.92127 8.35724 9.90148 8.35735 9.88152C8.35735 9.79761 8.42641 9.72873 8.51172 9.72873C8.59703 9.72873 8.6661 9.79761 8.6661 9.88152H8.66691ZM8.28016 9.72873C8.36547 9.72873 8.43453 9.66065 8.43453 9.57594C8.43453 9.5359 8.41832 9.49748 8.38942 9.46902C8.36051 9.44055 8.32125 9.42436 8.28016 9.42394C8.23892 9.42415 8.19945 9.44026 8.17037 9.46874C8.14129 9.49722 8.12497 9.53576 8.12497 9.57594C8.12497 9.66065 8.19403 9.72873 8.27934 9.72873H8.28016ZM8.66691 9.27115C8.66712 9.31133 8.65101 9.34995 8.62208 9.37858C8.59315 9.40721 8.55377 9.42352 8.51253 9.42394C8.49205 9.42384 8.47178 9.4198 8.4529 9.41207C8.43401 9.40433 8.41687 9.39305 8.40246 9.37886C8.38805 9.36467 8.37665 9.34786 8.36891 9.32938C8.36117 9.3109 8.35724 9.29111 8.35735 9.27115C8.35735 9.18644 8.42641 9.11836 8.51172 9.11836C8.59703 9.11836 8.6661 9.18644 8.6661 9.27115H8.66691ZM10.2033 10.6447H9.13084V11.4055C9.13084 11.4055 9.21047 11.7989 9.66709 11.7989C10.1237 11.7989 10.2033 11.4055 10.2033 11.4055V10.6447ZM9.5956 10.9495C9.5957 10.9694 9.59177 10.9892 9.58403 11.0077C9.57629 11.0262 9.56489 11.043 9.55048 11.0572C9.53607 11.0714 9.51893 11.0827 9.50004 11.0904C9.48116 11.0981 9.46089 11.1022 9.44041 11.1023C9.39918 11.1019 9.35979 11.0855 9.33086 11.0569C9.30193 11.0283 9.28582 10.9897 9.28603 10.9495C9.28603 10.8656 9.3551 10.7975 9.44041 10.7975C9.52572 10.7975 9.59478 10.8656 9.59478 10.9495H9.5956ZM9.44041 11.7126C9.52572 11.7126 9.59478 11.6446 9.59478 11.5599C9.59478 11.5198 9.57857 11.4814 9.54967 11.4529C9.52076 11.4245 9.4815 11.4083 9.44041 11.4079C9.39932 11.4083 9.36005 11.4245 9.33115 11.4529C9.30224 11.4814 9.28603 11.5198 9.28603 11.5599C9.28603 11.6446 9.3551 11.7126 9.44041 11.7126ZM10.0595 11.5599C10.0597 11.6 10.0436 11.6387 10.0147 11.6673C9.98578 11.6959 9.94639 11.7122 9.90516 11.7126C9.88467 11.7125 9.86441 11.7085 9.84552 11.7008C9.82663 11.693 9.8095 11.6818 9.79509 11.6676C9.78068 11.6534 9.76927 11.6366 9.76153 11.6181C9.75379 11.5996 9.74986 11.5798 9.74997 11.5599C9.74997 11.4759 9.81903 11.4079 9.90434 11.4079C9.92475 11.4079 9.94496 11.4118 9.9638 11.4195C9.98264 11.4271 9.99973 11.4383 10.0141 11.4525C10.0284 11.4666 10.0398 11.4834 10.0474 11.5018C10.0551 11.5202 10.0589 11.54 10.0587 11.5599H10.0595ZM9.67278 11.4079C9.75809 11.4079 9.82716 11.339 9.82716 11.2551C9.82737 11.2149 9.81126 11.1763 9.78233 11.1476C9.7534 11.119 9.71401 11.1027 9.67278 11.1023C9.63155 11.1027 9.59216 11.119 9.56324 11.1476C9.53431 11.1763 9.51819 11.2149 9.51841 11.2551C9.51841 11.339 9.58747 11.4079 9.67278 11.4079ZM10.0595 10.9495C10.0597 10.9897 10.0436 11.0283 10.0147 11.0569C9.98578 11.0855 9.94639 11.1019 9.90516 11.1023C9.88467 11.1022 9.86441 11.0981 9.84552 11.0904C9.82663 11.0827 9.8095 11.0714 9.79509 11.0572C9.78068 11.043 9.76927 11.0262 9.76153 11.0077C9.75379 10.9892 9.74986 10.9694 9.74997 10.9495C9.74997 10.8656 9.81903 10.7975 9.90434 10.7975C9.92475 10.7975 9.94496 10.8014 9.9638 10.8091C9.98264 10.8167 9.99973 10.828 10.0141 10.8421C10.0284 10.8562 10.0398 10.873 10.0474 10.8914C10.0551 10.9099 10.0589 10.9296 10.0587 10.9495H10.0595Z" fill="#013399"/>
</g>
</g>
</svg>
