<svg width="26" height="19" viewBox="0 0 26 19" fill="none" xmlns="http://www.w3.org/2000/svg">
<mask id="mask0_145_543" style="mask-type:alpha" maskUnits="userSpaceOnUse" x="0" y="0" width="26" height="19">
<path d="M0 0H26V19H0V0Z" fill="white"/>
</mask>
<g mask="url(#mask0_145_543)">
<path fill-rule="evenodd" clip-rule="evenodd" d="M0 0H26V19H0V0Z" fill="#E31D1C"/>
<path fill-rule="evenodd" clip-rule="evenodd" d="M12.2005 3.60046L11.3799 4.08337L11.5668 3.14129L10.8834 2.43671L11.8089 2.39792L12.2005 1.51917L12.5921 2.39792H13.5159L12.8334 3.14208L13.039 4.08416L12.2005 3.60125V3.60046ZM5.70213 7.6055L3.36132 8.83337L3.89513 6.43779L1.94513 4.64466L4.58575 4.54729L5.70213 2.31004L6.8185 4.54729H9.45344L7.5075 6.43779L8.0925 8.83337L5.70132 7.60629L5.70213 7.6055ZM13.8255 6.76712L13.0049 7.25004L13.1918 6.30796L12.5084 5.60337L13.4339 5.56458L13.8255 4.68583L14.2171 5.56458H15.1409L14.4584 6.30875L14.664 7.25083L13.8255 6.76791V6.76712ZM13.013 9.93379L12.1924 10.4167L12.3793 9.47462L11.6959 8.77004L12.6214 8.73125L13.013 7.8525L13.4046 8.73125H14.3284L13.6459 9.47541L13.8515 10.4175L13.013 9.93458V9.93379ZM10.5755 12.3088L9.75488 12.7917L9.94175 11.8496L9.25844 11.145L10.1839 11.1062L10.5755 10.2275L10.9671 11.1062H11.8909L11.2084 11.8504L11.414 12.7925L10.5755 12.3096V12.3088Z" fill="#FECA00"/>
</g>
</svg>
