<svg width="26" height="19" viewBox="0 0 26 19" fill="none" xmlns="http://www.w3.org/2000/svg">
<mask id="mask0_163_330" style="mask-type:alpha" maskUnits="userSpaceOnUse" x="0" y="0" width="26" height="19">
<path d="M0 0H26V19H0V0Z" fill="white"/>
</mask>
<g mask="url(#mask0_163_330)">
<path fill-rule="evenodd" clip-rule="evenodd" d="M0 0V19H26V0H0Z" fill="#2E42A5"/>
<mask id="mask1_163_330" style="mask-type:alpha" maskUnits="userSpaceOnUse" x="0" y="0" width="26" height="19">
<path fill-rule="evenodd" clip-rule="evenodd" d="M0 0V19H26V0H0Z" fill="white"/>
</mask>
<g mask="url(#mask1_163_330)">
<path fill-rule="evenodd" clip-rule="evenodd" d="M0 0V6.33333H26V0H0Z" fill="#F7FCFF"/>
<path fill-rule="evenodd" clip-rule="evenodd" d="M0 12.6667V19H26V12.6667H0Z" fill="#C51918"/>
<path fill-rule="evenodd" clip-rule="evenodd" d="M11.1637 3.98681C11.1637 3.98681 9.45425 3.19989 7.32712 3.19989C5.2 3.19989 3.48969 3.98681 3.48969 3.98681C3.48969 3.98681 3.67981 7.14952 3.98125 8.82468C4.10962 9.54035 4.72631 10.5838 5.28531 11.077C5.92231 11.6398 7.32712 12.3072 7.32712 12.3072C7.73337 12.0341 8.49306 11.9114 9.464 11.077C10.4357 10.2433 10.6771 8.82468 10.6771 8.82468L11.1646 3.9876L11.1637 3.98681Z" fill="#2E42A5"/>
<path d="M10.9379 3.88391L11.6505 4.22987L11.1613 8.99808C10.9907 10.0075 10.5617 10.8031 9.87595 11.3913C9.53493 11.6873 9.1578 11.9412 8.75308 12.1473C8.5337 12.259 7.61558 12.7197 7.6237 12.7165C7.53108 12.7593 7.4612 12.7973 7.40433 12.8353L7.31495 12.8947L7.21989 12.8495C6.26927 12.3983 5.3812 11.7903 4.94002 11.4008C4.33795 10.868 3.70339 9.77945 3.5677 9.02579C3.36539 7.89924 3.1842 6.34679 3.05664 4.22987L3.69608 3.9037C3.82283 6.00479 3.97558 7.67837 4.17383 8.78512C4.29164 9.44062 4.87664 10.4445 5.41127 10.9163C5.80533 11.2646 6.44152 11.651 7.31577 12.0721C7.37309 12.0394 7.43192 12.0093 7.49208 11.9819C7.4937 11.9803 8.08845 11.7238 8.29483 11.6177C8.67202 11.4259 9.02351 11.1895 9.34133 10.9139C9.94908 10.3914 10.3293 9.68841 10.4829 8.79462L10.9379 3.88391V3.88391Z" fill="#C51918"/>
<path fill-rule="evenodd" clip-rule="evenodd" d="M4.50287 8.72731C4.50287 8.72731 4.65724 9.18965 4.94487 9.70898C5.36574 9.81665 5.62249 9.81111 5.70456 9.72244C5.94018 9.46515 6.77706 9.3559 6.93387 9.57519C7.03056 9.70977 7.36937 9.80398 7.73987 9.67969L7.69843 9.68761C7.76343 9.66386 7.91374 9.60606 8.00718 9.57044C8.04537 9.55461 8.07381 9.54431 8.08193 9.54115C8.19263 9.49617 8.30953 9.46736 8.42887 9.45565C8.56351 9.4464 8.69823 9.47265 8.81887 9.53165C9.11137 9.66702 9.47131 9.73036 9.71749 9.68919C10.0181 9.17936 10.2318 8.72731 10.2318 8.72731L8.80587 7.39415L8.23874 7.99344L7.29624 6.68481L6.50812 7.99344L5.90362 7.39415L4.50287 8.72731V8.72731ZM5.32756 10.3027C5.2619 10.2166 5.19957 10.1282 5.14068 10.0375C5.50631 10.1016 5.75412 10.0676 5.89143 9.91719C5.95643 9.84594 6.14981 9.77786 6.36999 9.74856C6.47237 9.73511 6.57068 9.73273 6.64624 9.73906C6.68118 9.74223 6.70881 9.74698 6.72749 9.75411C6.73318 9.75569 6.73318 9.75569 6.72749 9.74619L6.72587 9.7454C6.89406 9.97973 7.35068 10.1048 7.78131 9.95202L7.73987 9.95994C7.87503 9.91534 8.00888 9.86703 8.14124 9.81506L8.16806 9.80556C8.25693 9.76882 8.3508 9.74482 8.44674 9.73431C8.53914 9.72799 8.63156 9.74633 8.71406 9.78736C8.97243 9.90769 9.27387 9.97894 9.53874 9.98131C9.48187 10.07 9.42418 10.1586 9.36406 10.2449C9.15849 10.2916 8.83918 10.2299 8.58162 10.0929C8.47426 10.032 8.35041 10.0044 8.22656 10.0138C8.13231 10.0217 8.03968 10.0502 7.91618 10.1024L7.84874 10.1317C7.76749 10.1674 7.63749 10.2251 7.58143 10.2481L7.62856 10.2386C7.30599 10.3597 7.02406 10.2703 6.94362 10.1412C6.79981 9.91006 6.04743 10.0225 5.83537 10.2877C5.77849 10.3589 5.60787 10.3716 5.32756 10.3035V10.3027ZM5.60787 10.6273L5.65581 10.674C6.38949 11.3707 7.29706 11.7127 7.29706 11.7127C7.29706 11.7127 8.37768 11.3944 8.99031 10.7231C9.04312 10.6661 9.09593 10.6044 9.14793 10.5386C8.90822 10.523 8.67496 10.4562 8.46462 10.3431C8.39906 10.305 8.323 10.2875 8.24687 10.2932C8.1653 10.3037 8.08601 10.327 8.01206 10.3621L7.99337 10.37C7.93081 10.3977 7.74149 10.4809 7.62774 10.5181L7.67487 10.5094C7.29543 10.6637 6.89243 10.541 6.73481 10.3106C6.71429 10.3039 6.69301 10.2997 6.67143 10.298C6.5936 10.2917 6.51527 10.2949 6.43824 10.3075C6.25137 10.3352 6.08887 10.4025 6.03524 10.469C5.94424 10.5822 5.80206 10.6329 5.60787 10.6273V10.6273Z" fill="white"/>
<path fill-rule="evenodd" clip-rule="evenodd" d="M5.80697 4.65978H5.23578L5.67859 4.25603L5.23578 3.82853H5.80697L6.04828 3.4129L6.2904 3.82774H6.86078L6.4399 4.2299L6.81365 4.65978H6.2904L6.04828 5.09757L5.80697 4.65978V4.65978ZM8.49878 4.65978H7.92759L8.37122 4.25603L7.92759 3.82853H8.49959L8.74009 3.4129L8.98303 3.82774H9.55259L9.13172 4.2299L9.50547 4.65978H8.98303L8.74009 5.09757L8.49959 4.65978H8.49878ZM6.98753 5.99057H6.41634L6.85915 5.58682L6.41634 5.15932H6.98753L7.22884 4.74449L7.47097 5.15932H8.04134L7.62047 5.56069L7.99422 5.99057H7.47097L7.22884 6.42836L6.98753 5.99136V5.99057Z" fill="#FECA00"/>
</g>
</g>
</svg>
