<svg width="26" height="19" viewBox="0 0 26 19" fill="none" xmlns="http://www.w3.org/2000/svg">
<path fill-rule="evenodd" clip-rule="evenodd" d="M0 0V19H26V0H0Z" fill="#F7FCFF"/>
<path fill-rule="evenodd" clip-rule="evenodd" d="M13 14.4242C15.6024 14.4242 17.7117 12.2408 17.7117 9.5483C17.7117 6.85584 15.6024 4.67242 13 4.67242C10.3975 4.67242 8.28748 6.85584 8.28748 9.5483C8.28748 12.2408 10.3975 14.4242 13 14.4242Z" fill="#3D58DB"/>
<path fill-rule="evenodd" clip-rule="evenodd" d="M17.8766 9.92193C17.8766 9.92193 17.6117 7.62293 15.6536 7.49784C13.6955 7.37276 13.1674 9.1841 13.0536 9.66385C12.9399 10.1436 12.6547 11.4229 10.5917 11.4229C8.53042 11.4229 8.34436 8.16918 8.34436 8.16918V4.33197H17.8766V9.92114V9.92193Z" fill="#E31D1C"/>
<path fill-rule="evenodd" clip-rule="evenodd" d="M5.93123 1.6245L6.67385 2.28L3.22885 6.20033L2.48541 5.54483L5.93123 1.6245ZM7.15647 2.68533L7.89991 3.34004L4.57841 7.20338L3.83497 6.54788L7.15647 2.68454V2.68533ZM9.12029 4.41354L8.37685 3.75804L5.0456 7.65067L5.78985 8.30617L9.1211 4.41354H9.12029ZM20.6082 1.34979L19.864 2.00292L21.1542 3.477L21.8977 2.82467L20.6082 1.34979V1.34979ZM22.9003 4.06283L22.1569 4.71517L23.4471 6.19004L24.1905 5.53771L22.9003 4.06283ZM17.4102 4.12617L18.1537 3.47383L19.4431 4.94871L18.6997 5.60183L17.4102 4.12696V4.12617ZM20.4465 6.18688L19.7031 6.83921L20.9925 8.31408L21.736 7.66175L20.4465 6.18688ZM18.6834 3.03288L19.4277 2.38054L23.0173 6.63971L22.2738 7.29283L18.6834 3.03367V3.03288ZM21.1697 11.2757L20.4197 10.6202L19.1197 12.1006L19.8689 12.7561L21.1689 11.2757H21.1697ZM18.9832 13.8811L18.2333 13.2256L16.9325 14.706L17.6824 15.3615L18.9824 13.8811H18.9832ZM22.7882 12.6928L23.5373 13.3475L22.2373 14.8279L21.4873 14.1732L22.7873 12.6928H22.7882ZM21.4581 16.0138L20.7082 15.3583L19.4073 16.8387L20.1573 17.4942L21.4573 16.0138H21.4581ZM19.4723 14.2326L20.2223 14.8881L18.8654 16.469L18.1155 15.8135L19.4723 14.2326V14.2326ZM22.4502 12.2534L21.7002 11.5987L20.3425 13.1797L21.0925 13.8344L22.4493 12.2534H22.4502ZM5.20566 11.7879L5.9491 11.1348L9.26735 14.8398L8.52391 15.4929L5.20566 11.7879ZM5.97916 15.0282L6.72341 14.3751L8.12498 15.8761L7.38154 16.5292L5.97916 15.0282V15.0282ZM3.50104 13.2137L2.7576 13.8668L6.09373 17.6225L6.83716 16.9686L3.50104 13.2137V13.2137ZM4.03079 12.787L4.77423 12.1339L5.9881 13.5217L5.24466 14.1748L4.02998 12.7862L4.03079 12.787Z" fill="#272727"/>
</svg>
