<svg width="26" height="19" viewBox="0 0 26 19" fill="none" xmlns="http://www.w3.org/2000/svg">
<mask id="mask0_145_454" style="mask-type:alpha" maskUnits="userSpaceOnUse" x="0" y="0" width="26" height="19">
<path d="M0 0H26V19H0V0Z" fill="white"/>
</mask>
<g mask="url(#mask0_145_454)">
<path fill-rule="evenodd" clip-rule="evenodd" d="M0 0V19H26V0H0Z" fill="#FFB400"/>
<mask id="mask1_145_454" style="mask-type:alpha" maskUnits="userSpaceOnUse" x="0" y="0" width="26" height="19">
<path fill-rule="evenodd" clip-rule="evenodd" d="M0 0V19H26V0H0Z" fill="white"/>
</mask>
<g mask="url(#mask1_145_454)">
<path fill-rule="evenodd" clip-rule="evenodd" d="M0 0V4.75H26V0H0ZM0 14.25V19H26V14.25H0Z" fill="#C51918"/>
<path d="M4.06897 8.13196H4.97897V12.7426H4.06897V8.13196Z" fill="#F1F9FF"/>
<path fill-rule="evenodd" clip-rule="evenodd" d="M5.34302 7.33398H3.70502V7.77732H3.97802V8.13198H5.07002V7.77732H5.34302V7.33398V7.33398ZM5.07002 13.0086H5.34302V13.452H3.70502V13.0086H3.97802V12.654H5.07002V13.0086V13.0086Z" fill="#C88A02"/>
<path fill-rule="evenodd" clip-rule="evenodd" d="M4.52402 7.42272C4.72227 7.42272 4.74259 7.34989 4.85877 7.24143C4.94977 7.15751 5.16102 7.05301 5.16102 6.93505C5.16102 6.66589 4.87584 6.44739 4.52402 6.44739C4.17221 6.44739 3.88702 6.66589 3.88702 6.93505C3.88702 7.06647 4.03327 7.15355 4.14296 7.24143C4.25834 7.33405 4.34365 7.42272 4.52484 7.42272H4.52402Z" fill="#AD1619"/>
<path fill-rule="evenodd" clip-rule="evenodd" d="M3.70502 13.452H5.34302V14.1614C5.34302 14.1614 5.13827 14.0727 4.93352 14.0727C4.72877 14.0727 4.52402 14.1614 4.52402 14.1614C4.52402 14.1614 4.31927 14.0727 4.11452 14.0727C3.90977 14.0727 3.70502 14.1614 3.70502 14.1614V13.452V13.452Z" fill="#005BBF"/>
<mask id="mask2_145_454" style="mask-type:alpha" maskUnits="userSpaceOnUse" x="3" y="13" width="3" height="2">
<path fill-rule="evenodd" clip-rule="evenodd" d="M3.70502 13.452H5.34302V14.1614C5.34302 14.1614 5.13827 14.0727 4.93352 14.0727C4.72877 14.0727 4.52402 14.1614 4.52402 14.1614C4.52402 14.1614 4.31927 14.0727 4.11452 14.0727C3.90977 14.0727 3.70502 14.1614 3.70502 14.1614V13.452V13.452Z" fill="white"/>
</mask>
<g mask="url(#mask2_145_454)">
<path d="M3.69035 14.022L3.6546 13.9373C3.79378 13.8748 3.945 13.8419 4.09823 13.8407C4.1941 13.8407 4.24448 13.8541 4.32898 13.8906C4.38919 13.9207 4.4563 13.9355 4.52398 13.9333C4.59165 13.9355 4.65877 13.9207 4.71898 13.8906C4.79069 13.8554 4.87029 13.8383 4.95054 13.8407C5.09841 13.8407 5.24629 13.8724 5.39416 13.9373L5.35841 14.022C5.23041 13.9647 5.0914 13.9345 4.95054 13.9333C4.88287 13.9312 4.81575 13.9459 4.75554 13.9761C4.68382 14.0112 4.60422 14.0284 4.52398 14.0259C4.444 14.0282 4.3647 14.0111 4.29323 13.9761C4.23302 13.9459 4.1659 13.9312 4.09823 13.9333C3.96254 13.9333 3.82685 13.9626 3.69035 14.022V14.022ZM3.69035 13.756L3.6546 13.6713C3.79378 13.6088 3.945 13.5759 4.09823 13.5747C4.1941 13.5747 4.24448 13.5881 4.32898 13.6246C4.38919 13.6547 4.4563 13.6695 4.52398 13.6673C4.59165 13.6695 4.65877 13.6547 4.71898 13.6246C4.79069 13.5894 4.87029 13.5723 4.95054 13.5747C5.09841 13.5747 5.24629 13.6064 5.39416 13.6713L5.35841 13.756C5.23041 13.6987 5.0914 13.6685 4.95054 13.6673C4.88287 13.6652 4.81575 13.6799 4.75554 13.7101C4.68382 13.7452 4.60422 13.7624 4.52398 13.7599C4.444 13.7622 4.3647 13.7451 4.29323 13.7101C4.23302 13.6799 4.1659 13.6652 4.09823 13.6673C3.96254 13.6673 3.82685 13.6966 3.69035 13.756V13.756Z" fill="white"/>
</g>
<mask id="mask3_145_454" style="mask-type:alpha" maskUnits="userSpaceOnUse" x="12" y="13" width="3" height="2">
<path fill-rule="evenodd" clip-rule="evenodd" d="M12.623 13.452H14.261V14.1614C14.261 14.1614 14.0562 14.0727 13.8515 14.0727C13.6467 14.0727 13.442 14.1614 13.442 14.1614C13.442 14.1614 13.2372 14.0727 13.0325 14.0727C12.8277 14.0727 12.623 14.1614 12.623 14.1614V13.452V13.452Z" fill="white"/>
</mask>
<g mask="url(#mask3_145_454)">
<path d="M12.6084 14.022L12.5726 13.9373C12.7118 13.8748 12.863 13.8419 13.0163 13.8407C13.1121 13.8407 13.1625 13.8541 13.247 13.8906C13.3072 13.9207 13.3743 13.9355 13.442 13.9333C13.5097 13.9355 13.5768 13.9207 13.637 13.8906C13.7087 13.8554 13.7883 13.8383 13.8686 13.8407C14.0164 13.8407 14.1643 13.8724 14.3122 13.9373L14.2764 14.022C14.1484 13.9647 14.0094 13.9345 13.8686 13.9333C13.8009 13.9312 13.7338 13.9459 13.6736 13.9761C13.6019 14.0112 13.5223 14.0284 13.442 14.0259C13.362 14.0282 13.2827 14.0111 13.2113 13.9761C13.151 13.9459 13.0839 13.9312 13.0163 13.9333C12.8806 13.9333 12.7449 13.9626 12.6084 14.022V14.022ZM12.6084 13.756L12.5726 13.6713C12.7118 13.6088 12.863 13.5759 13.0163 13.5747C13.1121 13.5747 13.1625 13.5881 13.247 13.6246C13.3072 13.6547 13.3743 13.6695 13.442 13.6673C13.5097 13.6695 13.5768 13.6547 13.637 13.6246C13.7087 13.5894 13.7883 13.5723 13.8686 13.5747C14.0164 13.5747 14.1643 13.6064 14.3122 13.6713L14.2764 13.756C14.1484 13.6987 14.0094 13.6685 13.8686 13.6673C13.8009 13.6652 13.7338 13.6799 13.6736 13.7101C13.6019 13.7452 13.5223 13.7624 13.442 13.7599C13.362 13.7622 13.2827 13.7451 13.2113 13.7101C13.151 13.6799 13.0839 13.6652 13.0163 13.6673C12.8806 13.6673 12.7449 13.6966 12.6084 13.756V13.756Z" fill="white"/>
</g>
<mask id="mask4_145_454" style="mask-type:alpha" maskUnits="userSpaceOnUse" x="6" y="7" width="6" height="8">
<path fill-rule="evenodd" clip-rule="evenodd" d="M6.07098 7.33398H11.986V12.5115C11.986 12.5115 11.5472 14.25 9.02848 14.25C6.50973 14.25 6.07098 12.4664 6.07098 12.4664V7.33398V7.33398Z" fill="white"/>
</mask>
<g mask="url(#mask4_145_454)">
<path d="M6.07098 10.526H9.07398V13.984H6.07098V10.526Z" fill="#FFC034"/>
<path d="M6.43498 10.7034H6.79898V13.984H6.43498V10.7034ZM7.70898 10.7034H8.07298V13.984H7.70898V10.7034ZM7.07198 10.7034H7.43598V13.984H7.07198V10.7034ZM8.34598 10.7034H8.70998V13.984H8.34598V10.7034ZM6.07098 7.24536H9.07398V10.6147H6.07098V7.24536Z" fill="#AD1619"/>
<path d="M8.98297 10.4374H11.986V13.8067H8.98297V10.4374Z" fill="#AD1619"/>
<path d="M8.98297 7.33398H12.168V10.6147H8.98297V7.33398Z" fill="#F1F9FF"/>
<path fill-rule="evenodd" clip-rule="evenodd" d="M7.34501 7.59998H7.61801V8.33623H7.80001V7.9681H8.07301V8.33543H8.34601V8.7946H8.07301V9.62268H8.34601V10.0826H6.70801V9.62348H6.98101V8.79539H6.70801V8.33623H6.89001V7.9681H7.16301V8.33543H7.34501V7.59998V7.59998Z" fill="#C88A02"/>
<path d="M10.5454 7.75438L10.7323 7.56042L11.1223 7.91667L10.9362 8.11063L10.5454 7.75438V7.75438Z" fill="#C88A02"/>
<path fill-rule="evenodd" clip-rule="evenodd" d="M11.6675 12.7775V10.8363H9.39246V12.7616L9.39652 12.7759C9.51108 13.2541 9.90352 13.4963 10.53 13.4963C11.1556 13.4963 11.548 13.2604 11.6634 12.7933L11.6675 12.7775ZM10.53 13.2303C10.027 13.2303 9.75239 13.0656 9.66546 12.73V11.1023H11.3945V12.745C11.3075 13.0696 11.0329 13.2303 10.53 13.2303V13.2303Z" fill="#FFC034"/>
<path fill-rule="evenodd" clip-rule="evenodd" d="M10.6242 10.9987H10.4341V11.879L9.68659 11.0873L9.55334 11.2061L10.2285 11.9225H9.61672V12.1885H10.244L9.55334 12.9208L9.68741 13.0412L10.4349 12.2495V13.2779H10.6242V12.3413L11.284 13.0412L11.418 12.9208L10.7274 12.1885H11.4985V11.9225H10.742L11.418 11.2069L11.284 11.0865L10.6242 11.7864V10.9987V10.9987Z" fill="#FFC034"/>
<path fill-rule="evenodd" clip-rule="evenodd" d="M10.9549 13.8091C10.9549 13.8091 9.02765 13.9564 9.02765 12.7451C9.02765 12.7451 9.00896 13.8091 6.9964 13.8091V14.7647H10.9549V13.8091Z" fill="#F1F9FF"/>
<path fill-rule="evenodd" clip-rule="evenodd" d="M9.02851 11.2353C9.40551 11.2353 9.71101 10.9179 9.71101 10.526C9.71101 10.1341 9.40551 9.81665 9.02851 9.81665C8.65151 9.81665 8.34601 10.1341 8.34601 10.526C8.34601 10.9179 8.65151 11.2353 9.02851 11.2353Z" fill="#005BBF" stroke="#AD1619" stroke-width="1.167"/>
</g>
</g>
</g>
</svg>
