<svg width="26" height="19" viewBox="0 0 26 19" fill="none" xmlns="http://www.w3.org/2000/svg">
<mask id="mask0_163_352" style="mask-type:alpha" maskUnits="userSpaceOnUse" x="0" y="0" width="26" height="19">
<path d="M0 0H26V19H0V0Z" fill="white"/>
</mask>
<g mask="url(#mask0_163_352)">
<path fill-rule="evenodd" clip-rule="evenodd" d="M0 0V19H26V0H0Z" fill="#E31D1C"/>
<mask id="mask1_163_352" style="mask-type:alpha" maskUnits="userSpaceOnUse" x="0" y="0" width="26" height="19">
<path fill-rule="evenodd" clip-rule="evenodd" d="M0 0V19H26V0H0Z" fill="white"/>
</mask>
<g mask="url(#mask1_163_352)">
<path fill-rule="evenodd" clip-rule="evenodd" d="M13.0211 12.7561C11.2807 12.3389 9.91817 10.9195 9.93361 8.83974C9.94904 6.89224 11.1589 5.24716 13.0715 4.80224C14.9841 4.35654 16.6676 5.30179 16.6676 5.30179C16.1395 4.08579 14.3032 3.23158 12.7969 3.23395C9.99454 3.2387 7.00698 5.45379 6.98179 8.83974C6.95498 12.3508 10.1806 14.3505 13.0179 14.3458C15.292 14.3418 16.371 12.8258 16.5945 12.1814C16.5945 12.1814 14.7607 13.1741 13.0211 12.7561V12.7561ZM16.9837 8.17554L15.2506 8.79541L17.2063 9.46833L17.173 11.4768L18.4616 9.96945L20.5904 10.1199L18.9036 8.70833L20.011 7.20099L18.2073 7.79237L16.9187 6.39587L16.9837 8.17633V8.17554Z" fill="#F7FCFF"/>
</g>
</g>
</svg>
