<svg width="26" height="19" viewBox="0 0 26 19" fill="none" xmlns="http://www.w3.org/2000/svg">
<mask id="mask0_130_289" style="mask-type:alpha" maskUnits="userSpaceOnUse" x="0" y="0" width="26" height="19">
<path d="M0 0H26V19H0V0Z" fill="white"/>
</mask>
<g mask="url(#mask0_130_289)">
<path fill-rule="evenodd" clip-rule="evenodd" d="M0 0V19H26V0H0Z" fill="#2E42A5"/>
<mask id="mask1_130_289" style="mask-type:alpha" maskUnits="userSpaceOnUse" x="0" y="0" width="26" height="19">
<path fill-rule="evenodd" clip-rule="evenodd" d="M0 0V19H26V0H0Z" fill="white"/>
</mask>
<g mask="url(#mask1_130_289)">
<mask id="mask2_130_289" style="mask-type:alpha" maskUnits="userSpaceOnUse" x="0" y="0" width="26" height="19">
<path d="M0 0H26V19H0V0Z" fill="white"/>
</mask>
<g mask="url(#mask2_130_289)">
<path d="M-2.8949 17.6424L2.82673 20.0007L26.1292 2.56348L29.1477 -0.940441L23.0295 -1.72815L13.5249 5.78556L5.87442 10.8491L-2.8949 17.6424V17.6424Z" fill="white"/>
<path d="M-2.11249 19.2945L0.803575 20.6625L28.0638 -1.26587H23.9712L-2.11168 19.2937L-2.11249 19.2945Z" fill="#F50100"/>
<path d="M28.895 17.6424L23.1734 20.0007L-0.129145 2.56348L-3.14758 -0.940441L2.97054 -1.72815L12.4752 5.78556L20.1257 10.8491L28.895 17.6424Z" fill="white"/>
<path d="M28.7 18.8282L25.7847 20.1962L14.1773 10.8071L10.7356 9.75891L-3.43848 -0.928589H0.654899L14.82 9.50558L18.5827 10.7627L28.7 18.8282Z" fill="#F50100"/>
<mask id="mask3_130_289" style="mask-type:alpha" maskUnits="userSpaceOnUse" x="-2" y="-2" width="30" height="23">
<path fill-rule="evenodd" clip-rule="evenodd" d="M16.0696 -1.58325H9.93039V6.33341H-1.60223V12.6667H9.93039V20.5834H16.0696V12.6667H27.6478V6.33341H16.0696V-1.58325V-1.58325Z" fill="white"/>
</mask>
<g mask="url(#mask3_130_289)">
<path fill-rule="evenodd" clip-rule="evenodd" d="M16.0696 -1.58325H9.93039V6.33341H-1.60223V12.6667H9.93039V20.5834H16.0696V12.6667H27.6478V6.33341H16.0696V-1.58325V-1.58325Z" fill="#F50100"/>
<path d="M9.93039 -1.58329V-3.16663H8.30539V-1.58329H9.93039ZM16.0696 -1.58329H17.6946V-3.16663H16.0696V-1.58329ZM9.93039 6.33337V7.91671H11.5554V6.33337H9.93039ZM-1.60223 6.33337V4.75004H-3.22723V6.33337H-1.60223ZM-1.60223 12.6667H-3.22723V14.25H-1.60223V12.6667ZM9.93039 12.6667H11.5554V11.0834H9.93039V12.6667ZM9.93039 20.5834H8.30539V22.1667H9.93039V20.5834ZM16.0696 20.5834V22.1667H17.6946V20.5834H16.0696ZM16.0696 12.6667V11.0834H14.4446V12.6667H16.0696ZM27.6478 12.6667V14.25H29.2728V12.6667H27.6478ZM27.6478 6.33337H29.2728V4.75004H27.6478V6.33337ZM16.0696 6.33337H14.4446V7.91671H16.0696V6.33337ZM9.93039 4.05312e-05H16.0696V-3.16663H9.93039V4.05312e-05ZM11.5554 6.33337V-1.58329H8.30539V6.33337H11.5554ZM-1.60223 7.91671H9.93039V4.75004H-1.60223V7.91671V7.91671ZM0.0227661 12.6667V6.33337H-3.22723V12.6667H0.0227661ZM9.93039 11.0834H-1.60223V14.25H9.93039V11.0834V11.0834ZM11.5554 20.5834V12.6667H8.30539V20.5834H11.5554ZM16.0696 19H9.93039V22.1667H16.0696V19ZM14.4446 12.6667V20.5834H17.6946V12.6667H14.4446ZM27.6478 11.0834H16.0696V14.25H27.6478V11.0834ZM26.0228 6.33337V12.6667H29.2728V6.33337H26.0228ZM16.0696 7.91671H27.6478V4.75004H16.0696V7.91671ZM14.4446 -1.58329V6.33337H17.6946V-1.58329H14.4446Z" fill="white"/>
</g>
</g>
</g>
</g>
</svg>
