<svg width="26" height="19" viewBox="0 0 26 19" fill="none" xmlns="http://www.w3.org/2000/svg">
<mask id="mask0_163_344" style="mask-type:alpha" maskUnits="userSpaceOnUse" x="0" y="0" width="26" height="19">
<path d="M0 0H26V19H0V0Z" fill="white"/>
</mask>
<g mask="url(#mask0_163_344)">
<path fill-rule="evenodd" clip-rule="evenodd" d="M0 0H26V19H0V0Z" fill="#F7FCFF"/>
<path fill-rule="evenodd" clip-rule="evenodd" d="M0 11.6114V13.1947H26V11.6114H0V11.6114ZM0 14.5136V16.097H26V14.5136H0ZM0 5.80529V7.38863H26V5.80529H0ZM0 17.4167V19H26V17.4167H0ZM0 8.70833V10.2917H26V8.70833H0ZM0 0V1.58333H26V0H0ZM0 2.90304V4.48637H26V2.90304H0Z" fill="#E31D1C"/>
<path d="M0 0H16.25V10.2917H0V0Z" fill="#2E42A5"/>
<path fill-rule="evenodd" clip-rule="evenodd" d="M1.39913 2.32671L0.809253 2.72967L1.00832 2.01242L0.484253 1.558H1.16919L1.39832 0.972168L1.66725 1.558H2.25063L1.79238 2.01242L1.9695 2.72967L1.39913 2.32592V2.32671ZM4.64913 2.32671L4.05925 2.72967L4.25832 2.01242L3.73507 1.558H4.41919L4.64832 0.972168L4.91725 1.558H5.50063L5.04238 2.01242L5.2195 2.72967L4.64913 2.32592V2.32671ZM7.30925 2.72967L7.89913 2.32592L8.4695 2.72967L8.29238 2.01242L8.75063 1.558H8.16725L7.89832 0.972168L7.66919 1.558H6.98507L7.50832 2.01242L7.30925 2.72967V2.72967ZM11.1491 2.32592L10.5593 2.72967L10.7583 2.01242L10.2351 1.558H10.9192L11.1483 0.972168L11.4173 1.558H12.0006L11.5424 2.01242L11.7195 2.72967L11.1491 2.32592ZM0.809253 5.89713L1.39913 5.49338L1.9695 5.89713L1.79238 5.17988L2.25063 4.72546H1.66725L1.39832 4.13963L1.16919 4.72546H0.484253L1.00832 5.17988L0.809253 5.89713V5.89713ZM4.64913 5.49338L4.05925 5.89713L4.25832 5.17988L3.73507 4.72546H4.41919L4.64832 4.13963L4.91725 4.72546H5.50063L5.04238 5.17988L5.2195 5.89713L4.64913 5.49338ZM7.30925 5.89713L7.89913 5.49338L8.4695 5.89713L8.29238 5.17988L8.75063 4.72546H8.16725L7.89832 4.13963L7.66919 4.72546H6.98507L7.50832 5.17988L7.30925 5.89713ZM11.1491 5.49338L10.5593 5.89713L10.7583 5.17988L10.2351 4.72546H10.9192L11.1483 4.13963L11.4173 4.72546H12.0006L11.5424 5.17988L11.7195 5.89713L11.1491 5.49338ZM0.809253 9.06379L1.39913 8.66004L1.9695 9.06379L1.79238 8.34654L2.25063 7.89213H1.66725L1.39832 7.30629L1.16919 7.89213H0.484253L1.00832 8.34654L0.809253 9.063V9.06379ZM4.64913 8.66004L4.05925 9.06379L4.25832 8.34654L3.73507 7.89213H4.41919L4.64832 7.30629L4.91725 7.89213H5.50063L5.04238 8.34654L5.2195 9.063L4.64913 8.66083V8.66004ZM7.30925 9.06379L7.89913 8.66004L8.4695 9.06379L8.29238 8.34654L8.75063 7.89213H8.16725L7.89832 7.30629L7.66919 7.89213H6.98507L7.50832 8.34654L7.30925 9.063V9.06379ZM11.1491 8.66004L10.5593 9.06379L10.7583 8.34654L10.2351 7.89213H10.9192L11.1483 7.30629L11.4173 7.89213H12.0006L11.5424 8.34654L11.7195 9.063L11.1491 8.66083V8.66004ZM13.8093 2.73046L14.3991 2.32671L14.9695 2.73046L14.7924 2.01321L15.2506 1.55879H14.6673L14.3983 0.97296L14.1692 1.55879H13.4843L14.0083 2.01321L13.8093 2.73046ZM14.3991 5.49338L13.8093 5.89713L14.0083 5.17988L13.4843 4.72546H14.1692L14.3983 4.13963L14.6673 4.72546H15.2506L14.7924 5.17988L14.9695 5.89713L14.3991 5.49338V5.49338ZM13.8093 9.06379L14.3991 8.66004L14.9695 9.06379L14.7924 8.34654L15.2506 7.89213H14.6673L14.3983 7.30629L14.1692 7.89213H13.4843L14.0083 8.34654L13.8093 9.063V9.06379ZM3.02413 3.90925L2.43425 4.313L2.63332 3.59575L2.10925 3.14133H2.79419L3.02332 2.5555L3.29225 3.14133H3.87563L3.41738 3.59575L3.5945 4.313L3.02413 3.90925V3.90925ZM5.68425 4.313L6.27413 3.90925L6.8445 4.313L6.66738 3.59575L7.12563 3.14133H6.54225L6.27332 2.5555L6.04419 3.14133H5.35925L5.88332 3.59575L5.68425 4.313V4.313ZM9.52413 3.90925L8.93425 4.313L9.13332 3.59575L8.61007 3.14133H9.29419L9.52332 2.5555L9.79225 3.14133H10.3756L9.91738 3.59575L10.0945 4.313L9.52413 3.90925ZM2.43425 7.47967L3.02413 7.07592L3.5945 7.47967L3.41738 6.76242L3.87563 6.308H3.29225L3.02332 5.72217L2.79419 6.308H2.10925L2.63332 6.76242L2.43425 7.47967ZM6.27413 7.07592L5.68425 7.47967L5.88332 6.76242L5.36007 6.308H6.04419L6.27332 5.72217L6.54225 6.308H7.12563L6.66738 6.76242L6.8445 7.47967L6.27413 7.07592V7.07592ZM8.93425 7.47967L9.52413 7.07592L10.0945 7.47967L9.91738 6.76242L10.3756 6.308H9.79225L9.52332 5.72217L9.29419 6.308H8.61007L9.13332 6.76242L8.93425 7.47967V7.47967ZM12.7741 3.90925L12.1843 4.313L12.3833 3.59575L11.8601 3.14133H12.5442L12.7733 2.5555L13.0423 3.14133H13.6256L13.1674 3.59575L13.3445 4.313L12.7741 3.90925V3.90925ZM12.1843 7.47967L12.7741 7.07592L13.3445 7.47967L13.1674 6.76242L13.6256 6.308H13.0423L12.7733 5.72217L12.5442 6.308H11.8601L12.3833 6.76242L12.1843 7.47967V7.47967Z" fill="#F7FCFF"/>
</g>
</svg>
