<svg width="29" height="29" viewBox="0 0 29 29" fill="none" xmlns="http://www.w3.org/2000/svg">
<path d="M10 13C13.3137 13 16 10.3137 16 7C16 3.68629 13.3137 1 10 1C6.68629 1 4 3.68629 4 7C4 10.3137 6.68629 13 10 13Z" stroke="#538DBE" stroke-width="2" stroke-linecap="round" stroke-linejoin="round"/>
<path d="M28 10L22 16M1 28V25C1 23.4087 1.63214 21.8826 2.75736 20.7574C3.88258 19.6321 5.4087 19 7 19H13C14.5913 19 16.1174 19.6321 17.2426 20.7574C18.3679 21.8826 19 23.4087 19 25V28H1ZM22 10L28 16L22 10Z" stroke="#538DBE" stroke-width="2" stroke-linecap="round" stroke-linejoin="round"/>
</svg>
