<svg width="35" height="35" viewBox="0 0 35 35" fill="none" xmlns="http://www.w3.org/2000/svg">
<path d="M20.4167 21.875V24.7917C20.4167 25.1784 20.263 25.5494 19.9895 25.8229C19.716 26.0964 19.3451 26.25 18.9583 26.25H8.75L4.375 30.625V16.0417C4.375 15.6549 4.52865 15.284 4.80214 15.0105C5.07563 14.737 5.44656 14.5833 5.83333 14.5833H8.75M30.625 20.4167L26.25 16.0417H16.0417C15.6549 16.0417 15.284 15.888 15.0105 15.6145C14.737 15.341 14.5833 14.9701 14.5833 14.5833V5.83333C14.5833 5.44656 14.737 5.07563 15.0105 4.80214C15.284 4.52865 15.6549 4.375 16.0417 4.375H29.1667C29.5534 4.375 29.9244 4.52865 30.1979 4.80214C30.4714 5.07563 30.625 5.44656 30.625 5.83333V20.4167Z" stroke="#5990C0" stroke-width="2" stroke-linecap="round" stroke-linejoin="round"/>
</svg>
