<svg width="21" height="21" viewBox="0 0 21 21" fill="none" xmlns="http://www.w3.org/2000/svg">
<path d="M14.0624 5.75H14.0743" stroke="white" stroke-width="2" stroke-linecap="round" stroke-linejoin="round"/>
<path d="M16.4375 1H4.5625C2.59498 1 1 2.59498 1 4.5625V16.4375C1 18.405 2.59498 20 4.5625 20H16.4375C18.405 20 20 18.405 20 16.4375V4.5625C20 2.59498 18.405 1 16.4375 1Z" stroke="white" stroke-width="2" stroke-linecap="round" stroke-linejoin="round"/>
<path d="M1 14.0625L5.75 9.3125C6.29157 8.79138 6.9059 8.51703 7.53125 8.51703C8.1566 8.51703 8.77093 8.79138 9.3125 9.3125L15.25 15.25" stroke="white" stroke-width="2" stroke-linecap="round" stroke-linejoin="round"/>
<path d="M12.875 12.875L14.0625 11.6875C14.6041 11.1664 15.2184 10.892 15.8437 10.892C16.4691 10.892 17.0834 11.1664 17.625 11.6875L20 14.0625" stroke="white" stroke-width="2" stroke-linecap="round" stroke-linejoin="round"/>
</svg>
