<svg width="39" height="39" viewBox="0 0 39 39" fill="none" xmlns="http://www.w3.org/2000/svg">
<path d="M26.375 10.3333H26.3975" stroke="black" stroke-width="2" stroke-linecap="round" stroke-linejoin="round"/>
<path d="M30.9583 1.16669H8.04163C4.24467 1.16669 1.16663 4.24473 1.16663 8.04169V30.9584C1.16663 34.7553 4.24467 37.8334 8.04163 37.8334H30.9583C34.7552 37.8334 37.8333 34.7553 37.8333 30.9584V8.04169C37.8333 4.24473 34.7552 1.16669 30.9583 1.16669Z" stroke="black" stroke-width="2" stroke-linecap="round" stroke-linejoin="round"/>
<path d="M1.16663 26.375L10.3333 17.2083C11.3784 16.2027 12.564 15.6732 13.7708 15.6732C14.9776 15.6732 16.1632 16.2027 17.2083 17.2083L28.6666 28.6667" stroke="black" stroke-width="2" stroke-linecap="round" stroke-linejoin="round"/>
<path d="M24.0833 24.0834L26.3749 21.7917C27.4201 20.786 28.6056 20.2566 29.8124 20.2566C31.0192 20.2566 32.2048 20.786 33.2499 21.7917L37.8333 26.375" stroke="black" stroke-width="2" stroke-linecap="round" stroke-linejoin="round"/>
</svg>
