<svg width="27" height="27" viewBox="0 0 27 27" fill="none" xmlns="http://www.w3.org/2000/svg">
<path d="M18.3928 7.53577H18.4071" stroke="black" stroke-width="2" stroke-linecap="round" stroke-linejoin="round"/>
<path d="M21.3927 1.53577H6.3927C3.90742 1.53577 1.8927 3.55049 1.8927 6.03577V21.0358C1.8927 23.521 3.90742 25.5358 6.3927 25.5358H21.3927C23.878 25.5358 25.8927 23.521 25.8927 21.0358V6.03577C25.8927 3.55049 23.878 1.53577 21.3927 1.53577Z" stroke="black" stroke-width="2" stroke-linecap="round" stroke-linejoin="round"/>
<path d="M1.8927 18.0358L7.8927 12.0358C8.57679 11.3776 9.35279 11.031 10.1427 11.031C10.9326 11.031 11.7086 11.3776 12.3927 12.0358L19.8927 19.5358" stroke="black" stroke-width="2" stroke-linecap="round" stroke-linejoin="round"/>
<path d="M16.8926 16.5358L18.3926 15.0358C19.0767 14.3776 19.8527 14.031 20.6426 14.031C21.4325 14.031 22.2085 14.3776 22.8926 15.0358L25.8926 18.0358" stroke="black" stroke-width="2" stroke-linecap="round" stroke-linejoin="round"/>
</svg>
