<svg width="21" height="22" viewBox="0 0 21 22" fill="none" xmlns="http://www.w3.org/2000/svg">
<path d="M13.215 5.56036L6.22821 12.5471C5.80059 12.9747 5.56036 13.5547 5.56036 14.1595C5.56036 14.7642 5.80059 15.3442 6.22821 15.7718C6.65583 16.1994 7.2358 16.4396 7.84054 16.4396C8.44528 16.4396 9.02526 16.1994 9.45287 15.7718L16.4396 8.78502C17.2949 7.92979 17.7753 6.76984 17.7753 5.56036C17.7753 4.35088 17.2949 3.19093 16.4396 2.3357C15.5844 1.48047 14.4245 1 13.215 1C12.0055 1 10.8455 1.48047 9.99032 2.3357L3.00355 9.32247C1.7207 10.6053 1 12.3452 1 14.1595C1 15.9737 1.7207 17.7136 3.00355 18.9965C4.2864 20.2793 6.02632 21 7.84054 21C9.65477 21 11.3947 20.2793 12.6775 18.9965L19.6643 12.0097" stroke="#979D9F" stroke-width="2" stroke-linecap="round" stroke-linejoin="round"/>
</svg>
