<svg width="25" height="25" viewBox="0 0 25 25" fill="none" xmlns="http://www.w3.org/2000/svg">
<path d="M10.1906 14.8094L24 1L10.1906 14.8094ZM24 1L15.8399 23.5972C15.7848 23.7174 15.6964 23.8192 15.5851 23.8906C15.4739 23.962 15.3444 24 15.2122 24C15.08 24 14.9506 23.962 14.8393 23.8906C14.728 23.8192 14.6396 23.7174 14.5845 23.5972L10.1906 14.8094L1.40282 10.4155C1.28263 10.3604 1.18077 10.272 1.10937 10.1607C1.03796 10.0494 1 9.92 1 9.78779C1 9.65558 1.03796 9.52614 1.10937 9.41487C1.18077 9.3036 1.28263 9.21517 1.40282 9.16009L24 1Z" stroke="#5990C0" stroke-width="2" stroke-linecap="round" stroke-linejoin="round"/>
</svg>
