<svg width="23" height="23" viewBox="0 0 23 23" fill="none" xmlns="http://www.w3.org/2000/svg">
<path d="M11.5 22C17.299 22 22 17.299 22 11.5C22 5.70101 17.299 1 11.5 1C5.70101 1 1 5.70101 1 11.5C1 17.299 5.70101 22 11.5 22Z" stroke="#979D9F" stroke-width="2" stroke-linecap="round" stroke-linejoin="round"/>
<path d="M8.58333 15.0001C8.96353 15.3881 9.41732 15.6964 9.91815 15.9068C10.419 16.1173 10.9568 16.2257 11.5 16.2257C12.0432 16.2257 12.581 16.1173 13.0819 15.9068C13.5827 15.6964 14.0365 15.3881 14.4167 15.0001M8 9.16675H8.01167H8ZM15 9.16675H15.0117H15Z" stroke="#979D9F" stroke-width="2" stroke-linecap="round" stroke-linejoin="round"/>
</svg>
